solid OpenSCAD_Model
  facet normal -1 -0 -0
    outer loop
      vertex -71 8 11
      vertex -71 0 38
      vertex -71 15 0
    endloop
  endfacet
  facet normal -1 0 0
    outer loop
      vertex -71 15 0
      vertex -71 0 38
      vertex -71 15 38
    endloop
  endfacet
  facet normal -1 0 -0
    outer loop
      vertex -71 0 0
      vertex -71 0 38
      vertex -71 6 11
    endloop
  endfacet
  facet normal -1 0 0
    outer loop
      vertex -71 0 0
      vertex -71 6 11
      vertex -71 6.29289 10.2929
    endloop
  endfacet
  facet normal -1 -0 0
    outer loop
      vertex -71 0 0
      vertex -71 6.29289 10.2929
      vertex -71 15 0
    endloop
  endfacet
  facet normal -1 -0 -0
    outer loop
      vertex -71 7 12
      vertex -71 0 38
      vertex -71 7.70711 11.7071
    endloop
  endfacet
  facet normal -1 0 -0
    outer loop
      vertex -71 6.29289 11.7071
      vertex -71 0 38
      vertex -71 7 12
    endloop
  endfacet
  facet normal -1 -0 0
    outer loop
      vertex -71 7 10
      vertex -71 7.70711 10.2929
      vertex -71 15 0
    endloop
  endfacet
  facet normal -1 -0 -0
    outer loop
      vertex -71 7.70711 11.7071
      vertex -71 0 38
      vertex -71 8 11
    endloop
  endfacet
  facet normal -1 -0 0
    outer loop
      vertex -71 7.70711 10.2929
      vertex -71 8 11
      vertex -71 15 0
    endloop
  endfacet
  facet normal -1 0 -0
    outer loop
      vertex -71 6 11
      vertex -71 0 38
      vertex -71 6.29289 11.7071
    endloop
  endfacet
  facet normal -1 0 0
    outer loop
      vertex -71 7 10
      vertex -71 15 0
      vertex -71 6.29289 10.2929
    endloop
  endfacet
  facet normal -0.996917 -0.0784615 -0
    outer loop
      vertex -71 0 0
      vertex -70.9877 -0.156434 0
      vertex -71 0 38
    endloop
  endfacet
  facet normal -0.996917 -0.0784615 0
    outer loop
      vertex -71 0 38
      vertex -70.9877 -0.156434 0
      vertex -70.9877 -0.156434 38
    endloop
  endfacet
  facet normal -0 -0 -1
    outer loop
      vertex -71 0 0
      vertex -71 15 0
      vertex -70.9877 -0.156434 0
    endloop
  endfacet
  facet normal 0 0 -1
    outer loop
      vertex -70.9877 -0.156434 0
      vertex -71 15 0
      vertex -70.9877 15.1564 0
    endloop
  endfacet
  facet normal 0 -0 -1
    outer loop
      vertex -70.9877 -0.156434 0
      vertex -70.9877 15.1564 0
      vertex -70.9511 15.309 0
    endloop
  endfacet
  facet normal 0 0 -1
    outer loop
      vertex -70.9877 -0.156434 0
      vertex -70.9511 15.309 0
      vertex -70.891 15.454 0
    endloop
  endfacet
  facet normal 0 0 -1
    outer loop
      vertex -70.9877 -0.156434 0
      vertex -70.891 15.454 0
      vertex -70.809 15.5878 0
    endloop
  endfacet
  facet normal 0 0 -1
    outer loop
      vertex -70.9877 -0.156434 0
      vertex -70.809 15.5878 0
      vertex -70.7071 15.7071 0
    endloop
  endfacet
  facet normal 0 0 -1
    outer loop
      vertex -70.9877 -0.156434 0
      vertex -70.7071 15.7071 0
      vertex -70.5878 15.809 0
    endloop
  endfacet
  facet normal 0 0 -1
    outer loop
      vertex -70.9877 -0.156434 0
      vertex -70.5878 15.809 0
      vertex -70.454 15.891 0
    endloop
  endfacet
  facet normal 0 0 -1
    outer loop
      vertex -70.9877 -0.156434 0
      vertex -70.454 15.891 0
      vertex -70.309 15.9511 0
    endloop
  endfacet
  facet normal 0 0 -1
    outer loop
      vertex -70.9877 -0.156434 0
      vertex -70.309 15.9511 0
      vertex -70.1564 15.9877 0
    endloop
  endfacet
  facet normal 0 0 -1
    outer loop
      vertex -70.9877 -0.156434 0
      vertex -70.1564 15.9877 0
      vertex -70 16 0
    endloop
  endfacet
  facet normal 0 -0 -1
    outer loop
      vertex -58 13 0
      vertex -70 16 0
      vertex -19 16 0
    endloop
  endfacet
  facet normal -0 0 -1
    outer loop
      vertex -38 13 0
      vertex -18 15 0
      vertex -38 5 0
    endloop
  endfacet
  facet normal 0 0 -1
    outer loop
      vertex -38 13 0
      vertex -18.0123 15.1564 0
      vertex -18 15 0
    endloop
  endfacet
  facet normal 0 0 -1
    outer loop
      vertex -38 13 0
      vertex -18.0489 15.309 0
      vertex -18.0123 15.1564 0
    endloop
  endfacet
  facet normal 0 0 -1
    outer loop
      vertex -38 13 0
      vertex -18.109 15.454 0
      vertex -18.0489 15.309 0
    endloop
  endfacet
  facet normal 0 0 -1
    outer loop
      vertex -38 13 0
      vertex -18.191 15.5878 0
      vertex -18.109 15.454 0
    endloop
  endfacet
  facet normal 0 0 -1
    outer loop
      vertex -38 13 0
      vertex -18.2929 15.7071 0
      vertex -18.191 15.5878 0
    endloop
  endfacet
  facet normal 0 0 -1
    outer loop
      vertex -38 13 0
      vertex -18.4122 15.809 0
      vertex -18.2929 15.7071 0
    endloop
  endfacet
  facet normal 0 0 -1
    outer loop
      vertex -38 13 0
      vertex -18.546 15.891 0
      vertex -18.4122 15.809 0
    endloop
  endfacet
  facet normal 0 0 -1
    outer loop
      vertex -38 13 0
      vertex -18.691 15.9511 0
      vertex -18.546 15.891 0
    endloop
  endfacet
  facet normal 0 0 -1
    outer loop
      vertex -38 13 0
      vertex -18.8436 15.9877 0
      vertex -18.691 15.9511 0
    endloop
  endfacet
  facet normal -0 0 -1
    outer loop
      vertex -38 5 0
      vertex -18 15 0
      vertex -18 0 0
    endloop
  endfacet
  facet normal -0 0 -1
    outer loop
      vertex -70.9877 -0.156434 0
      vertex -18 0 0
      vertex -18.0123 -0.156434 0
    endloop
  endfacet
  facet normal 0 0 -1
    outer loop
      vertex -70.9877 -0.156434 0
      vertex -18.0123 -0.156434 0
      vertex -18.0489 -0.309017 0
    endloop
  endfacet
  facet normal 0 0 -1
    outer loop
      vertex -70.9877 -0.156434 0
      vertex -18.0489 -0.309017 0
      vertex -18.109 -0.45399 0
    endloop
  endfacet
  facet normal 0 0 -1
    outer loop
      vertex -70.9877 -0.156434 0
      vertex -18.109 -0.45399 0
      vertex -18.191 -0.587785 0
    endloop
  endfacet
  facet normal 0 0 -1
    outer loop
      vertex -70.9877 -0.156434 0
      vertex -18.191 -0.587785 0
      vertex -18.2929 -0.707107 0
    endloop
  endfacet
  facet normal 0 0 -1
    outer loop
      vertex -70.9877 -0.156434 0
      vertex -18.2929 -0.707107 0
      vertex -18.4122 -0.809017 0
    endloop
  endfacet
  facet normal 0 0 -1
    outer loop
      vertex -70.9877 -0.156434 0
      vertex -18.4122 -0.809017 0
      vertex -18.546 -0.891007 0
    endloop
  endfacet
  facet normal 0 0 -1
    outer loop
      vertex -70.9877 -0.156434 0
      vertex -18.546 -0.891007 0
      vertex -18.691 -0.951057 0
    endloop
  endfacet
  facet normal 0 0 -1
    outer loop
      vertex -70.9877 -0.156434 0
      vertex -18.691 -0.951057 0
      vertex -18.8436 -0.987688 0
    endloop
  endfacet
  facet normal 0 0 -1
    outer loop
      vertex -70.9877 -0.156434 0
      vertex -18.8436 -0.987688 0
      vertex -19 -1 0
    endloop
  endfacet
  facet normal 0 0 -1
    outer loop
      vertex -70.9877 -0.156434 0
      vertex -19 -1 0
      vertex -70 -1 0
    endloop
  endfacet
  facet normal 0 0 -1
    outer loop
      vertex -70.9877 -0.156434 0
      vertex -70 -1 0
      vertex -70.1564 -0.987688 0
    endloop
  endfacet
  facet normal 0 0 -1
    outer loop
      vertex -70.9877 -0.156434 0
      vertex -70.1564 -0.987688 0
      vertex -70.309 -0.951057 0
    endloop
  endfacet
  facet normal 0 0 -1
    outer loop
      vertex -70.9877 -0.156434 0
      vertex -70.309 -0.951057 0
      vertex -70.454 -0.891007 0
    endloop
  endfacet
  facet normal 0 0 -1
    outer loop
      vertex -70.9877 -0.156434 0
      vertex -70.454 -0.891007 0
      vertex -70.5878 -0.809017 0
    endloop
  endfacet
  facet normal 0 0 -1
    outer loop
      vertex -70.9877 -0.156434 0
      vertex -70.5878 -0.809017 0
      vertex -70.7071 -0.707107 0
    endloop
  endfacet
  facet normal 0 0 -1
    outer loop
      vertex -70.9877 -0.156434 0
      vertex -70.7071 -0.707107 0
      vertex -70.809 -0.587785 0
    endloop
  endfacet
  facet normal 0 0 -1
    outer loop
      vertex -70.9877 -0.156434 0
      vertex -70.809 -0.587785 0
      vertex -70.891 -0.45399 0
    endloop
  endfacet
  facet normal 0 0 -1
    outer loop
      vertex -70.9877 -0.156434 0
      vertex -70.891 -0.45399 0
      vertex -70.9511 -0.309017 0
    endloop
  endfacet
  facet normal 0 0 -1
    outer loop
      vertex -70.9877 -0.156434 0
      vertex -70 16 0
      vertex -70 7 0
    endloop
  endfacet
  facet normal 0 0 -1
    outer loop
      vertex -58 5 0
      vertex -60 5 0
      vertex -60 7 0
    endloop
  endfacet
  facet normal 0 0 -1
    outer loop
      vertex -70.9877 -0.156434 0
      vertex -70 7 0
      vertex -70 5 0
    endloop
  endfacet
  facet normal 0 -0 -1
    outer loop
      vertex -60 7 0
      vertex -70 7 0
      vertex -58 13 0
    endloop
  endfacet
  facet normal 0 0 -1
    outer loop
      vertex -70.9877 -0.156434 0
      vertex -70 5 0
      vertex -60 5 0
    endloop
  endfacet
  facet normal 0 0 -1
    outer loop
      vertex -38 5 0
      vertex -70.9877 -0.156434 0
      vertex -58 5 0
    endloop
  endfacet
  facet normal 0 -0 -1
    outer loop
      vertex -70 7 0
      vertex -70 16 0
      vertex -58 13 0
    endloop
  endfacet
  facet normal 0 -0 -1
    outer loop
      vertex -38 13 0
      vertex -58 13 0
      vertex -19 16 0
    endloop
  endfacet
  facet normal 0 0 -1
    outer loop
      vertex -70.9877 -0.156434 0
      vertex -60 5 0
      vertex -58 5 0
    endloop
  endfacet
  facet normal 0 0 -1
    outer loop
      vertex -38 13 0
      vertex -19 16 0
      vertex -18.8436 15.9877 0
    endloop
  endfacet
  facet normal 0 0 -1
    outer loop
      vertex -70.9877 -0.156434 0
      vertex -38 5 0
      vertex -18 0 0
    endloop
  endfacet
  facet normal 0 0 -1
    outer loop
      vertex -58 5 0
      vertex -60 7 0
      vertex -58 13 0
    endloop
  endfacet
  facet normal -0.996917 0.0784615 0
    outer loop
      vertex -71 15 0
      vertex -71 15 38
      vertex -70.9877 15.1564 0
    endloop
  endfacet
  facet normal -0.996917 0.0784615 0
    outer loop
      vertex -70.9877 15.1564 0
      vertex -71 15 38
      vertex -70.9877 15.1564 38
    endloop
  endfacet
  facet normal 0 -0 1
    outer loop
      vertex -71 15 38
      vertex -71 0 38
      vertex -70.9877 -0.156434 38
    endloop
  endfacet
  facet normal 0 0 1
    outer loop
      vertex -70.891 -0.45399 38
      vertex -71 15 38
      vertex -70.9511 -0.309017 38
    endloop
  endfacet
  facet normal 0 0 1
    outer loop
      vertex -70.9511 -0.309017 38
      vertex -71 15 38
      vertex -70.9877 -0.156434 38
    endloop
  endfacet
  facet normal 0 0 1
    outer loop
      vertex -70.809 -0.587785 38
      vertex -71 15 38
      vertex -70.891 -0.45399 38
    endloop
  endfacet
  facet normal 0 0 1
    outer loop
      vertex -70.7071 -0.707107 38
      vertex -71 15 38
      vertex -70.809 -0.587785 38
    endloop
  endfacet
  facet normal 0 0 1
    outer loop
      vertex -70.5878 -0.809017 38
      vertex -71 15 38
      vertex -70.7071 -0.707107 38
    endloop
  endfacet
  facet normal 0 0 1
    outer loop
      vertex -70.454 -0.891007 38
      vertex -71 15 38
      vertex -70.5878 -0.809017 38
    endloop
  endfacet
  facet normal 0 0 1
    outer loop
      vertex -70.309 -0.951057 38
      vertex -71 15 38
      vertex -70.454 -0.891007 38
    endloop
  endfacet
  facet normal 0 0 1
    outer loop
      vertex -70.1564 -0.987688 38
      vertex -71 15 38
      vertex -70.309 -0.951057 38
    endloop
  endfacet
  facet normal 0 0 1
    outer loop
      vertex -70 -1 38
      vertex -71 15 38
      vertex -70.1564 -0.987688 38
    endloop
  endfacet
  facet normal -0 0 1
    outer loop
      vertex -70 3 38
      vertex -71 15 38
      vertex -70 -1 38
    endloop
  endfacet
  facet normal 0 0 1
    outer loop
      vertex -70 3 38
      vertex -70 15 38
      vertex -71 15 38
    endloop
  endfacet
  facet normal 0 0 1
    outer loop
      vertex -20 0 38
      vertex -18.2929 -0.707107 38
      vertex -18.191 -0.587785 38
    endloop
  endfacet
  facet normal 0 0 1
    outer loop
      vertex -20 0 38
      vertex -18.4122 -0.809017 38
      vertex -18.2929 -0.707107 38
    endloop
  endfacet
  facet normal 0 0 1
    outer loop
      vertex -20 0 38
      vertex -18.546 -0.891007 38
      vertex -18.4122 -0.809017 38
    endloop
  endfacet
  facet normal 0 0 1
    outer loop
      vertex -18 4 38
      vertex -19 4 38
      vertex -18 0 38
    endloop
  endfacet
  facet normal 0 0 1
    outer loop
      vertex -19 13 38
      vertex -18 13 38
      vertex -19 15 38
    endloop
  endfacet
  facet normal 0 -0 1
    outer loop
      vertex -19 4 38
      vertex -19 3 38
      vertex -18 0 38
    endloop
  endfacet
  facet normal 0 -0 1
    outer loop
      vertex -19 3 38
      vertex -20 3 38
      vertex -18 0 38
    endloop
  endfacet
  facet normal -0 0 1
    outer loop
      vertex -18.109 -0.45399 38
      vertex -20 0 38
      vertex -18.191 -0.587785 38
    endloop
  endfacet
  facet normal -0 0 1
    outer loop
      vertex -19 -1 38
      vertex -69 0 38
      vertex -70 -1 38
    endloop
  endfacet
  facet normal 0 0 1
    outer loop
      vertex -69 3 38
      vertex -70 3 38
      vertex -69 0 38
    endloop
  endfacet
  facet normal -0 0 1
    outer loop
      vertex -69 0 38
      vertex -70 3 38
      vertex -70 -1 38
    endloop
  endfacet
  facet normal 0 0 1
    outer loop
      vertex -18.0123 15.1564 38
      vertex -71 15 38
      vertex -70 15 38
    endloop
  endfacet
  facet normal 0 0 1
    outer loop
      vertex -18.0123 15.1564 38
      vertex -70 15 38
      vertex -19 15 38
    endloop
  endfacet
  facet normal 0 0 1
    outer loop
      vertex -18 15 38
      vertex -19 15 38
      vertex -18 13 38
    endloop
  endfacet
  facet normal 0 -0 1
    outer loop
      vertex -18.0123 15.1564 38
      vertex -19 15 38
      vertex -18 15 38
    endloop
  endfacet
  facet normal 0 -0 1
    outer loop
      vertex -18.0489 15.309 38
      vertex -71 15 38
      vertex -18.0123 15.1564 38
    endloop
  endfacet
  facet normal 0 -0 1
    outer loop
      vertex -18.109 15.454 38
      vertex -71 15 38
      vertex -18.0489 15.309 38
    endloop
  endfacet
  facet normal 0 -0 1
    outer loop
      vertex -18.191 15.5878 38
      vertex -71 15 38
      vertex -18.109 15.454 38
    endloop
  endfacet
  facet normal 0 -0 1
    outer loop
      vertex -18.2929 15.7071 38
      vertex -71 15 38
      vertex -18.191 15.5878 38
    endloop
  endfacet
  facet normal 0 -0 1
    outer loop
      vertex -18.4122 15.809 38
      vertex -71 15 38
      vertex -18.2929 15.7071 38
    endloop
  endfacet
  facet normal 0 -0 1
    outer loop
      vertex -18.546 15.891 38
      vertex -71 15 38
      vertex -18.4122 15.809 38
    endloop
  endfacet
  facet normal 0 -0 1
    outer loop
      vertex -18.691 15.9511 38
      vertex -71 15 38
      vertex -18.546 15.891 38
    endloop
  endfacet
  facet normal 0 -0 1
    outer loop
      vertex -18.8436 15.9877 38
      vertex -71 15 38
      vertex -18.691 15.9511 38
    endloop
  endfacet
  facet normal 0 -0 1
    outer loop
      vertex -19 16 38
      vertex -71 15 38
      vertex -18.8436 15.9877 38
    endloop
  endfacet
  facet normal 0 -0 1
    outer loop
      vertex -70 16 38
      vertex -71 15 38
      vertex -19 16 38
    endloop
  endfacet
  facet normal 0 -0 1
    outer loop
      vertex -70.1564 15.9877 38
      vertex -71 15 38
      vertex -70 16 38
    endloop
  endfacet
  facet normal 0 -0 1
    outer loop
      vertex -70.309 15.9511 38
      vertex -71 15 38
      vertex -70.1564 15.9877 38
    endloop
  endfacet
  facet normal 0 -0 1
    outer loop
      vertex -70.454 15.891 38
      vertex -71 15 38
      vertex -70.309 15.9511 38
    endloop
  endfacet
  facet normal 0 -0 1
    outer loop
      vertex -70.5878 15.809 38
      vertex -71 15 38
      vertex -70.454 15.891 38
    endloop
  endfacet
  facet normal 0 -0 1
    outer loop
      vertex -70.7071 15.7071 38
      vertex -71 15 38
      vertex -70.5878 15.809 38
    endloop
  endfacet
  facet normal 0 -0 1
    outer loop
      vertex -70.809 15.5878 38
      vertex -71 15 38
      vertex -70.7071 15.7071 38
    endloop
  endfacet
  facet normal 0 -0 1
    outer loop
      vertex -70.891 15.454 38
      vertex -71 15 38
      vertex -70.809 15.5878 38
    endloop
  endfacet
  facet normal 0 -0 1
    outer loop
      vertex -70.9511 15.309 38
      vertex -71 15 38
      vertex -70.891 15.454 38
    endloop
  endfacet
  facet normal 0 -0 1
    outer loop
      vertex -70.9877 15.1564 38
      vertex -71 15 38
      vertex -70.9511 15.309 38
    endloop
  endfacet
  facet normal 0 0 1
    outer loop
      vertex -20 3 38
      vertex -18.0123 -0.156434 38
      vertex -18 0 38
    endloop
  endfacet
  facet normal 0 0 1
    outer loop
      vertex -20 3 38
      vertex -18.0489 -0.309017 38
      vertex -18.0123 -0.156434 38
    endloop
  endfacet
  facet normal 0 0 1
    outer loop
      vertex -20 3 38
      vertex -18.109 -0.45399 38
      vertex -18.0489 -0.309017 38
    endloop
  endfacet
  facet normal 0 -0 1
    outer loop
      vertex -20 3 38
      vertex -20 0 38
      vertex -18.109 -0.45399 38
    endloop
  endfacet
  facet normal 0 0 1
    outer loop
      vertex -20 0 38
      vertex -18.691 -0.951057 38
      vertex -18.546 -0.891007 38
    endloop
  endfacet
  facet normal 0 0 1
    outer loop
      vertex -20 0 38
      vertex -18.8436 -0.987688 38
      vertex -18.691 -0.951057 38
    endloop
  endfacet
  facet normal 0 0 1
    outer loop
      vertex -20 0 38
      vertex -19 -1 38
      vertex -18.8436 -0.987688 38
    endloop
  endfacet
  facet normal 0 -0 1
    outer loop
      vertex -20 0 38
      vertex -69 0 38
      vertex -19 -1 38
    endloop
  endfacet
  facet normal 0 0.92388 -0.382683
    outer loop
      vertex -70 6.29289 11.7071
      vertex -70 6 11
      vertex -71 6.29289 11.7071
    endloop
  endfacet
  facet normal -5.68402e-18 0.92388 -0.382683
    outer loop
      vertex -71 6.29289 11.7071
      vertex -70 6 11
      vertex -71 6 11
    endloop
  endfacet
  facet normal -0 0.92388 0.382683
    outer loop
      vertex -70 6.29289 10.2929
      vertex -71 6.29289 10.2929
      vertex -70 6 11
    endloop
  endfacet
  facet normal -0 0.92388 0.382683
    outer loop
      vertex -70 6 11
      vertex -71 6.29289 10.2929
      vertex -71 6 11
    endloop
  endfacet
  facet normal 0 0.382683 -0.92388
    outer loop
      vertex -70 7 12
      vertex -70 6.29289 11.7071
      vertex -71 7 12
    endloop
  endfacet
  facet normal -5.68402e-18 0.382683 -0.92388
    outer loop
      vertex -71 7 12
      vertex -70 6.29289 11.7071
      vertex -71 6.29289 11.7071
    endloop
  endfacet
  facet normal 0 -0.382683 -0.92388
    outer loop
      vertex -70 7.70711 11.7071
      vertex -70 7 12
      vertex -71 7.70711 11.7071
    endloop
  endfacet
  facet normal -7.82659e-18 -0.382683 -0.92388
    outer loop
      vertex -71 7.70711 11.7071
      vertex -70 7 12
      vertex -71 7 12
    endloop
  endfacet
  facet normal -0 -0.92388 -0.382683
    outer loop
      vertex -71 8 11
      vertex -70 8 11
      vertex -70 7.70711 11.7071
    endloop
  endfacet
  facet normal -0 -0.92388 -0.382683
    outer loop
      vertex -71 7.70711 11.7071
      vertex -71 8 11
      vertex -70 7.70711 11.7071
    endloop
  endfacet
  facet normal 1.70698e-17 -0.92388 0.382683
    outer loop
      vertex -70 7.70711 10.2929
      vertex -70 8 11
      vertex -71 8 11
    endloop
  endfacet
  facet normal 0 -0.92388 0.382683
    outer loop
      vertex -71 7.70711 10.2929
      vertex -70 7.70711 10.2929
      vertex -71 8 11
    endloop
  endfacet
  facet normal 1.70698e-17 -0.382683 0.92388
    outer loop
      vertex -70 7 10
      vertex -70 7.70711 10.2929
      vertex -71 7.70711 10.2929
    endloop
  endfacet
  facet normal 0 -0.382683 0.92388
    outer loop
      vertex -71 7 10
      vertex -70 7 10
      vertex -71 7.70711 10.2929
    endloop
  endfacet
  facet normal -3.54145e-18 0.382683 0.92388
    outer loop
      vertex -70 6.29289 10.2929
      vertex -70 7 10
      vertex -71 7 10
    endloop
  endfacet
  facet normal 0 0.382683 0.92388
    outer loop
      vertex -71 6.29289 10.2929
      vertex -70 6.29289 10.2929
      vertex -71 7 10
    endloop
  endfacet
  facet normal -0.972371 -0.23344 -0
    outer loop
      vertex -70.9877 -0.156434 0
      vertex -70.9511 -0.309017 0
      vertex -70.9877 -0.156434 38
    endloop
  endfacet
  facet normal -0.972371 -0.23344 0
    outer loop
      vertex -70.9877 -0.156434 38
      vertex -70.9511 -0.309017 0
      vertex -70.9511 -0.309017 38
    endloop
  endfacet
  facet normal -0.923879 -0.382685 -0
    outer loop
      vertex -70.9511 -0.309017 0
      vertex -70.891 -0.45399 0
      vertex -70.9511 -0.309017 38
    endloop
  endfacet
  facet normal -0.923879 -0.382685 0
    outer loop
      vertex -70.9511 -0.309017 38
      vertex -70.891 -0.45399 0
      vertex -70.891 -0.45399 38
    endloop
  endfacet
  facet normal -0.852639 -0.5225 -0
    outer loop
      vertex -70.891 -0.45399 0
      vertex -70.809 -0.587785 0
      vertex -70.891 -0.45399 38
    endloop
  endfacet
  facet normal -0.852639 -0.5225 0
    outer loop
      vertex -70.891 -0.45399 38
      vertex -70.809 -0.587785 0
      vertex -70.809 -0.587785 38
    endloop
  endfacet
  facet normal -0.760408 -0.649446 -0
    outer loop
      vertex -70.809 -0.587785 0
      vertex -70.7071 -0.707107 0
      vertex -70.809 -0.587785 38
    endloop
  endfacet
  facet normal -0.760408 -0.649446 0
    outer loop
      vertex -70.809 -0.587785 38
      vertex -70.7071 -0.707107 0
      vertex -70.7071 -0.707107 38
    endloop
  endfacet
  facet normal -0.649446 -0.760408 0
    outer loop
      vertex -70.7071 -0.707107 38
      vertex -70.7071 -0.707107 0
      vertex -70.5878 -0.809017 0
    endloop
  endfacet
  facet normal -0.649446 -0.760408 0
    outer loop
      vertex -70.5878 -0.809017 38
      vertex -70.7071 -0.707107 38
      vertex -70.5878 -0.809017 0
    endloop
  endfacet
  facet normal -0.5225 -0.852639 0
    outer loop
      vertex -70.5878 -0.809017 38
      vertex -70.5878 -0.809017 0
      vertex -70.454 -0.891007 0
    endloop
  endfacet
  facet normal -0.5225 -0.852639 0
    outer loop
      vertex -70.454 -0.891007 38
      vertex -70.5878 -0.809017 38
      vertex -70.454 -0.891007 0
    endloop
  endfacet
  facet normal -0.382685 -0.923879 0
    outer loop
      vertex -70.454 -0.891007 38
      vertex -70.454 -0.891007 0
      vertex -70.309 -0.951057 0
    endloop
  endfacet
  facet normal -0.382685 -0.923879 0
    outer loop
      vertex -70.309 -0.951057 38
      vertex -70.454 -0.891007 38
      vertex -70.309 -0.951057 0
    endloop
  endfacet
  facet normal -0.23344 -0.972371 0
    outer loop
      vertex -70.309 -0.951057 38
      vertex -70.309 -0.951057 0
      vertex -70.1564 -0.987688 0
    endloop
  endfacet
  facet normal -0.23344 -0.972371 0
    outer loop
      vertex -70.1564 -0.987688 38
      vertex -70.309 -0.951057 38
      vertex -70.1564 -0.987688 0
    endloop
  endfacet
  facet normal -0.0784615 -0.996917 0
    outer loop
      vertex -70.1564 -0.987688 38
      vertex -70.1564 -0.987688 0
      vertex -70 -1 0
    endloop
  endfacet
  facet normal -0.0784615 -0.996917 0
    outer loop
      vertex -70 -1 38
      vertex -70.1564 -0.987688 38
      vertex -70 -1 0
    endloop
  endfacet
  facet normal 0 -1 0
    outer loop
      vertex -70 -1 38
      vertex -70 -1 0
      vertex -19 -1 0
    endloop
  endfacet
  facet normal 0 -1 0
    outer loop
      vertex -19 -1 38
      vertex -70 -1 38
      vertex -19 -1 0
    endloop
  endfacet
  facet normal 0.0784615 -0.996917 0
    outer loop
      vertex -19 -1 38
      vertex -19 -1 0
      vertex -18.8436 -0.987688 0
    endloop
  endfacet
  facet normal 0.0784615 -0.996917 0
    outer loop
      vertex -18.8436 -0.987688 38
      vertex -19 -1 38
      vertex -18.8436 -0.987688 0
    endloop
  endfacet
  facet normal 0.23344 -0.972371 0
    outer loop
      vertex -18.8436 -0.987688 38
      vertex -18.8436 -0.987688 0
      vertex -18.691 -0.951057 0
    endloop
  endfacet
  facet normal 0.23344 -0.972371 0
    outer loop
      vertex -18.691 -0.951057 38
      vertex -18.8436 -0.987688 38
      vertex -18.691 -0.951057 0
    endloop
  endfacet
  facet normal 0.382685 -0.923879 0
    outer loop
      vertex -18.691 -0.951057 38
      vertex -18.691 -0.951057 0
      vertex -18.546 -0.891007 0
    endloop
  endfacet
  facet normal 0.382685 -0.923879 0
    outer loop
      vertex -18.546 -0.891007 38
      vertex -18.691 -0.951057 38
      vertex -18.546 -0.891007 0
    endloop
  endfacet
  facet normal 0.5225 -0.852639 0
    outer loop
      vertex -18.546 -0.891007 38
      vertex -18.546 -0.891007 0
      vertex -18.4122 -0.809017 0
    endloop
  endfacet
  facet normal 0.5225 -0.852639 0
    outer loop
      vertex -18.4122 -0.809017 38
      vertex -18.546 -0.891007 38
      vertex -18.4122 -0.809017 0
    endloop
  endfacet
  facet normal 0.649446 -0.760408 0
    outer loop
      vertex -18.4122 -0.809017 38
      vertex -18.4122 -0.809017 0
      vertex -18.2929 -0.707107 0
    endloop
  endfacet
  facet normal 0.649446 -0.760408 0
    outer loop
      vertex -18.2929 -0.707107 38
      vertex -18.4122 -0.809017 38
      vertex -18.2929 -0.707107 0
    endloop
  endfacet
  facet normal 0.760408 -0.649446 0
    outer loop
      vertex -18.2929 -0.707107 38
      vertex -18.2929 -0.707107 0
      vertex -18.191 -0.587785 0
    endloop
  endfacet
  facet normal 0.760408 -0.649446 0
    outer loop
      vertex -18.191 -0.587785 38
      vertex -18.2929 -0.707107 38
      vertex -18.191 -0.587785 0
    endloop
  endfacet
  facet normal 0.852639 -0.5225 0
    outer loop
      vertex -18.191 -0.587785 38
      vertex -18.191 -0.587785 0
      vertex -18.109 -0.45399 0
    endloop
  endfacet
  facet normal 0.852639 -0.5225 0
    outer loop
      vertex -18.109 -0.45399 38
      vertex -18.191 -0.587785 38
      vertex -18.109 -0.45399 0
    endloop
  endfacet
  facet normal 0.923879 -0.382685 0
    outer loop
      vertex -18.109 -0.45399 38
      vertex -18.109 -0.45399 0
      vertex -18.0489 -0.309017 0
    endloop
  endfacet
  facet normal 0.923879 -0.382685 0
    outer loop
      vertex -18.0489 -0.309017 38
      vertex -18.109 -0.45399 38
      vertex -18.0489 -0.309017 0
    endloop
  endfacet
  facet normal 0.972371 -0.23344 0
    outer loop
      vertex -18.0489 -0.309017 38
      vertex -18.0489 -0.309017 0
      vertex -18.0123 -0.156434 0
    endloop
  endfacet
  facet normal 0.972371 -0.23344 0
    outer loop
      vertex -18.0123 -0.156434 38
      vertex -18.0489 -0.309017 38
      vertex -18.0123 -0.156434 0
    endloop
  endfacet
  facet normal 0.996917 -0.0784615 0
    outer loop
      vertex -18.0123 -0.156434 38
      vertex -18.0123 -0.156434 0
      vertex -18 0 0
    endloop
  endfacet
  facet normal 0.996917 -0.0784615 0
    outer loop
      vertex -18 0 38
      vertex -18.0123 -0.156434 38
      vertex -18 0 0
    endloop
  endfacet
  facet normal 1 0 -0
    outer loop
      vertex -18 6.29289 13.2929
      vertex -18 0 0
      vertex -18 15 0
    endloop
  endfacet
  facet normal 1 0 0
    outer loop
      vertex -18 4 23
      vertex -18 4 38
      vertex -18 0 38
    endloop
  endfacet
  facet normal 1 0 0
    outer loop
      vertex -18 15 38
      vertex -18 13 38
      vertex -18 15 0
    endloop
  endfacet
  facet normal 1 0 -0
    outer loop
      vertex -18 13 38
      vertex -18 13 23
      vertex -18 15 0
    endloop
  endfacet
  facet normal 1 0 -0
    outer loop
      vertex -18 0 38
      vertex -18 0 0
      vertex -18 4 23
    endloop
  endfacet
  facet normal 1 -0 -0
    outer loop
      vertex -18 7 13
      vertex -18 6.29289 13.2929
      vertex -18 15 0
    endloop
  endfacet
  facet normal 1 0 -0
    outer loop
      vertex -18 6 14
      vertex -18 0 0
      vertex -18 6.29289 13.2929
    endloop
  endfacet
  facet normal 1 0 -0
    outer loop
      vertex -18 8 14
      vertex -18 7.70711 13.2929
      vertex -18 15 0
    endloop
  endfacet
  facet normal 1 0 -0
    outer loop
      vertex -18 4 23
      vertex -18 0 0
      vertex -18 6 14
    endloop
  endfacet
  facet normal 1 0 -0
    outer loop
      vertex -18 7.70711 13.2929
      vertex -18 7 13
      vertex -18 15 0
    endloop
  endfacet
  facet normal 1 0 0
    outer loop
      vertex -18 4 23
      vertex -18 6.29289 14.7071
      vertex -18 7 15
    endloop
  endfacet
  facet normal 1 0 0
    outer loop
      vertex -18 4 23
      vertex -18 7.70711 14.7071
      vertex -18 15 0
    endloop
  endfacet
  facet normal 1 0 0
    outer loop
      vertex -18 4 23
      vertex -18 7 15
      vertex -18 7.70711 14.7071
    endloop
  endfacet
  facet normal 1 0 0
    outer loop
      vertex -18 7.70711 14.7071
      vertex -18 8 14
      vertex -18 15 0
    endloop
  endfacet
  facet normal 1 0 0
    outer loop
      vertex -18 6 14
      vertex -18 6.29289 14.7071
      vertex -18 4 23
    endloop
  endfacet
  facet normal 1 0 -0
    outer loop
      vertex -18 13 23
      vertex -18 4 23
      vertex -18 15 0
    endloop
  endfacet
  facet normal 0.996917 0.0784615 0
    outer loop
      vertex -18 15 0
      vertex -18.0123 15.1564 0
      vertex -18.0123 15.1564 38
    endloop
  endfacet
  facet normal 0.996917 0.0784615 -0
    outer loop
      vertex -18 15 38
      vertex -18 15 0
      vertex -18.0123 15.1564 38
    endloop
  endfacet
  facet normal 0.972371 0.23344 0
    outer loop
      vertex -18.0123 15.1564 0
      vertex -18.0489 15.309 0
      vertex -18.0489 15.309 38
    endloop
  endfacet
  facet normal 0.972371 0.23344 -0
    outer loop
      vertex -18.0123 15.1564 38
      vertex -18.0123 15.1564 0
      vertex -18.0489 15.309 38
    endloop
  endfacet
  facet normal 0.923879 0.382685 0
    outer loop
      vertex -18.0489 15.309 0
      vertex -18.109 15.454 0
      vertex -18.109 15.454 38
    endloop
  endfacet
  facet normal 0.923879 0.382685 -0
    outer loop
      vertex -18.0489 15.309 38
      vertex -18.0489 15.309 0
      vertex -18.109 15.454 38
    endloop
  endfacet
  facet normal 0.852639 0.5225 0
    outer loop
      vertex -18.109 15.454 0
      vertex -18.191 15.5878 0
      vertex -18.191 15.5878 38
    endloop
  endfacet
  facet normal 0.852639 0.5225 -0
    outer loop
      vertex -18.109 15.454 38
      vertex -18.109 15.454 0
      vertex -18.191 15.5878 38
    endloop
  endfacet
  facet normal 0.760408 0.649446 0
    outer loop
      vertex -18.191 15.5878 0
      vertex -18.2929 15.7071 0
      vertex -18.2929 15.7071 38
    endloop
  endfacet
  facet normal 0.760408 0.649446 -0
    outer loop
      vertex -18.191 15.5878 38
      vertex -18.191 15.5878 0
      vertex -18.2929 15.7071 38
    endloop
  endfacet
  facet normal 0.649446 0.760408 0
    outer loop
      vertex -18.4122 15.809 0
      vertex -18.4122 15.809 38
      vertex -18.2929 15.7071 0
    endloop
  endfacet
  facet normal 0.649446 0.760408 0
    outer loop
      vertex -18.2929 15.7071 0
      vertex -18.4122 15.809 38
      vertex -18.2929 15.7071 38
    endloop
  endfacet
  facet normal 0.5225 0.852639 0
    outer loop
      vertex -18.546 15.891 0
      vertex -18.546 15.891 38
      vertex -18.4122 15.809 0
    endloop
  endfacet
  facet normal 0.5225 0.852639 0
    outer loop
      vertex -18.4122 15.809 0
      vertex -18.546 15.891 38
      vertex -18.4122 15.809 38
    endloop
  endfacet
  facet normal 0.382685 0.923879 0
    outer loop
      vertex -18.691 15.9511 0
      vertex -18.691 15.9511 38
      vertex -18.546 15.891 0
    endloop
  endfacet
  facet normal 0.382685 0.923879 0
    outer loop
      vertex -18.546 15.891 0
      vertex -18.691 15.9511 38
      vertex -18.546 15.891 38
    endloop
  endfacet
  facet normal 0.23344 0.972371 0
    outer loop
      vertex -18.8436 15.9877 0
      vertex -18.8436 15.9877 38
      vertex -18.691 15.9511 0
    endloop
  endfacet
  facet normal 0.23344 0.972371 0
    outer loop
      vertex -18.691 15.9511 0
      vertex -18.8436 15.9877 38
      vertex -18.691 15.9511 38
    endloop
  endfacet
  facet normal 0.0784615 0.996917 0
    outer loop
      vertex -19 16 0
      vertex -19 16 38
      vertex -18.8436 15.9877 0
    endloop
  endfacet
  facet normal 0.0784615 0.996917 0
    outer loop
      vertex -18.8436 15.9877 0
      vertex -19 16 38
      vertex -18.8436 15.9877 38
    endloop
  endfacet
  facet normal 0 1 0
    outer loop
      vertex -29.5 16 4
      vertex -55 16 17
      vertex -29.0607 16 5.06066
    endloop
  endfacet
  facet normal 0 1 0
    outer loop
      vertex -52 16 25
      vertex -70 16 38
      vertex -19 16 38
    endloop
  endfacet
  facet normal 0 1 0
    outer loop
      vertex -70 16 0
      vertex -70 16 38
      vertex -60 16 25
    endloop
  endfacet
  facet normal 0 1 0
    outer loop
      vertex -70 16 0
      vertex -60 16 25
      vertex -60 16 17
    endloop
  endfacet
  facet normal 0 1 -0
    outer loop
      vertex -26.9393 16 2.93934
      vertex -19 16 0
      vertex -28 16 2.5
    endloop
  endfacet
  facet normal 0 1 0
    outer loop
      vertex -60 16 25
      vertex -70 16 38
      vertex -57 16 25
    endloop
  endfacet
  facet normal 0 1 0
    outer loop
      vertex -57 16 25
      vertex -70 16 38
      vertex -55 16 25
    endloop
  endfacet
  facet normal 0 1 -0
    outer loop
      vertex -45 16 17
      vertex -28 16 5.5
      vertex -47 16 17
    endloop
  endfacet
  facet normal -0 1 0
    outer loop
      vertex -50 16 25
      vertex -52 16 25
      vertex -19 16 38
    endloop
  endfacet
  facet normal -0 1 0
    outer loop
      vertex -47 16 25
      vertex -50 16 25
      vertex -19 16 38
    endloop
  endfacet
  facet normal 0 1 0
    outer loop
      vertex -29.0607 16 5.06066
      vertex -47 16 17
      vertex -28 16 5.5
    endloop
  endfacet
  facet normal 0 1 0
    outer loop
      vertex -45 16 17
      vertex -47 16 25
      vertex -45 16 25
    endloop
  endfacet
  facet normal -0 1 0
    outer loop
      vertex -45 16 25
      vertex -47 16 25
      vertex -19 16 38
    endloop
  endfacet
  facet normal -0 1 0
    outer loop
      vertex -42 16 25
      vertex -45 16 25
      vertex -19 16 38
    endloop
  endfacet
  facet normal 0 1 0
    outer loop
      vertex -55 16 25
      vertex -70 16 38
      vertex -52 16 25
    endloop
  endfacet
  facet normal 0 1 0
    outer loop
      vertex -26.9393 16 5.06066
      vertex -45 16 17
      vertex -19 16 0
    endloop
  endfacet
  facet normal 0 1 0
    outer loop
      vertex -55 16 17
      vertex -57 16 25
      vertex -55 16 25
    endloop
  endfacet
  facet normal -0 1 -0
    outer loop
      vertex -36 16 16
      vertex -19 16 0
      vertex -42 16 17
    endloop
  endfacet
  facet normal 0 1 0
    outer loop
      vertex -36 16 16
      vertex -42 16 25
      vertex -36 16 22
    endloop
  endfacet
  facet normal 0 1 0
    outer loop
      vertex -36 16 22
      vertex -42 16 25
      vertex -19 16 38
    endloop
  endfacet
  facet normal -0 1 0
    outer loop
      vertex -29 16 22
      vertex -36 16 22
      vertex -19 16 38
    endloop
  endfacet
  facet normal 0 1 0
    outer loop
      vertex -29.5 16 4
      vertex -57 16 17
      vertex -55 16 17
    endloop
  endfacet
  facet normal 0 1 0
    outer loop
      vertex -29.5 16 4
      vertex -60 16 17
      vertex -57 16 17
    endloop
  endfacet
  facet normal 0 1 0
    outer loop
      vertex -19 16 0
      vertex -29 16 16
      vertex -19 16 38
    endloop
  endfacet
  facet normal 0 1 0
    outer loop
      vertex -29 16 16
      vertex -29 16 22
      vertex -19 16 38
    endloop
  endfacet
  facet normal 0 1 0
    outer loop
      vertex -70 16 0
      vertex -60 16 17
      vertex -29.5 16 4
    endloop
  endfacet
  facet normal 0 1 0
    outer loop
      vertex -70 16 0
      vertex -29.5 16 4
      vertex -29.0607 16 2.93934
    endloop
  endfacet
  facet normal 0 1 0
    outer loop
      vertex -70 16 0
      vertex -29.0607 16 2.93934
      vertex -28 16 2.5
    endloop
  endfacet
  facet normal 0 1 0
    outer loop
      vertex -70 16 0
      vertex -28 16 2.5
      vertex -19 16 0
    endloop
  endfacet
  facet normal 0 1 -0
    outer loop
      vertex -26.5 16 4
      vertex -19 16 0
      vertex -26.9393 16 2.93934
    endloop
  endfacet
  facet normal 0 1 0
    outer loop
      vertex -26.9393 16 5.06066
      vertex -19 16 0
      vertex -26.5 16 4
    endloop
  endfacet
  facet normal 0 1 0
    outer loop
      vertex -29.0607 16 5.06066
      vertex -52 16 17
      vertex -50 16 17
    endloop
  endfacet
  facet normal 0 1 0
    outer loop
      vertex -50 16 17
      vertex -52 16 25
      vertex -50 16 25
    endloop
  endfacet
  facet normal 0 1 0
    outer loop
      vertex -55 16 17
      vertex -52 16 17
      vertex -29.0607 16 5.06066
    endloop
  endfacet
  facet normal 0 1 0
    outer loop
      vertex -45 16 17
      vertex -26.9393 16 5.06066
      vertex -28 16 5.5
    endloop
  endfacet
  facet normal 0 1 -0
    outer loop
      vertex -52 16 25
      vertex -50 16 17
      vertex -52 16 17
    endloop
  endfacet
  facet normal 0 1 0
    outer loop
      vertex -29.0607 16 5.06066
      vertex -50 16 17
      vertex -47 16 17
    endloop
  endfacet
  facet normal 0 1 -0
    outer loop
      vertex -42 16 25
      vertex -36 16 16
      vertex -42 16 17
    endloop
  endfacet
  facet normal 0 1 -0
    outer loop
      vertex -29 16 16
      vertex -19 16 0
      vertex -36 16 16
    endloop
  endfacet
  facet normal 0 1 -0
    outer loop
      vertex -47 16 25
      vertex -45 16 17
      vertex -47 16 17
    endloop
  endfacet
  facet normal 0 1 -0
    outer loop
      vertex -42 16 17
      vertex -19 16 0
      vertex -45 16 17
    endloop
  endfacet
  facet normal 0 1 -0
    outer loop
      vertex -57 16 25
      vertex -55 16 17
      vertex -57 16 17
    endloop
  endfacet
  facet normal -0.0784615 0.996917 0
    outer loop
      vertex -70.1564 15.9877 0
      vertex -70.1564 15.9877 38
      vertex -70 16 0
    endloop
  endfacet
  facet normal -0.0784615 0.996917 0
    outer loop
      vertex -70 16 0
      vertex -70.1564 15.9877 38
      vertex -70 16 38
    endloop
  endfacet
  facet normal -0.23344 0.972371 0
    outer loop
      vertex -70.309 15.9511 0
      vertex -70.309 15.9511 38
      vertex -70.1564 15.9877 0
    endloop
  endfacet
  facet normal -0.23344 0.972371 0
    outer loop
      vertex -70.1564 15.9877 0
      vertex -70.309 15.9511 38
      vertex -70.1564 15.9877 38
    endloop
  endfacet
  facet normal -0.382685 0.923879 0
    outer loop
      vertex -70.454 15.891 0
      vertex -70.454 15.891 38
      vertex -70.309 15.9511 0
    endloop
  endfacet
  facet normal -0.382685 0.923879 0
    outer loop
      vertex -70.309 15.9511 0
      vertex -70.454 15.891 38
      vertex -70.309 15.9511 38
    endloop
  endfacet
  facet normal -0.5225 0.852639 0
    outer loop
      vertex -70.5878 15.809 0
      vertex -70.5878 15.809 38
      vertex -70.454 15.891 0
    endloop
  endfacet
  facet normal -0.5225 0.852639 0
    outer loop
      vertex -70.454 15.891 0
      vertex -70.5878 15.809 38
      vertex -70.454 15.891 38
    endloop
  endfacet
  facet normal -0.649446 0.760408 0
    outer loop
      vertex -70.7071 15.7071 0
      vertex -70.7071 15.7071 38
      vertex -70.5878 15.809 0
    endloop
  endfacet
  facet normal -0.649446 0.760408 0
    outer loop
      vertex -70.5878 15.809 0
      vertex -70.7071 15.7071 38
      vertex -70.5878 15.809 38
    endloop
  endfacet
  facet normal -0.760408 0.649446 0
    outer loop
      vertex -70.809 15.5878 0
      vertex -70.809 15.5878 38
      vertex -70.7071 15.7071 0
    endloop
  endfacet
  facet normal -0.760408 0.649446 0
    outer loop
      vertex -70.7071 15.7071 0
      vertex -70.809 15.5878 38
      vertex -70.7071 15.7071 38
    endloop
  endfacet
  facet normal -0.852639 0.5225 0
    outer loop
      vertex -70.891 15.454 0
      vertex -70.891 15.454 38
      vertex -70.809 15.5878 0
    endloop
  endfacet
  facet normal -0.852639 0.5225 0
    outer loop
      vertex -70.809 15.5878 0
      vertex -70.891 15.454 38
      vertex -70.809 15.5878 38
    endloop
  endfacet
  facet normal -0.923879 0.382685 0
    outer loop
      vertex -70.9511 15.309 0
      vertex -70.9511 15.309 38
      vertex -70.891 15.454 0
    endloop
  endfacet
  facet normal -0.923879 0.382685 0
    outer loop
      vertex -70.891 15.454 0
      vertex -70.9511 15.309 38
      vertex -70.891 15.454 38
    endloop
  endfacet
  facet normal -0.972371 0.23344 0
    outer loop
      vertex -70.9877 15.1564 0
      vertex -70.9877 15.1564 38
      vertex -70.9511 15.309 0
    endloop
  endfacet
  facet normal -0.972371 0.23344 0
    outer loop
      vertex -70.9511 15.309 0
      vertex -70.9877 15.1564 38
      vertex -70.9511 15.309 38
    endloop
  endfacet
  facet normal 1 0 -0
    outer loop
      vertex -70 5 1
      vertex -70 5 0
      vertex -70 7 0
    endloop
  endfacet
  facet normal 1 0 0
    outer loop
      vertex -70 8 11
      vertex -70 5 1
      vertex -70 7 1
    endloop
  endfacet
  facet normal 1 0 0
    outer loop
      vertex -70 7 1
      vertex -70 5 1
      vertex -70 7 0
    endloop
  endfacet
  facet normal 1 0 0
    outer loop
      vertex -70 15 38
      vertex -70 7 1
      vertex -70 15 1
    endloop
  endfacet
  facet normal 1 -0 0
    outer loop
      vertex -70 6.29289 10.2929
      vertex -70 6 11
      vertex -70 5 1
    endloop
  endfacet
  facet normal 1 0 0
    outer loop
      vertex -70 3 38
      vertex -70 6 11
      vertex -70 15 38
    endloop
  endfacet
  facet normal 1 0 0
    outer loop
      vertex -70 3 38
      vertex -70 5 1
      vertex -70 6 11
    endloop
  endfacet
  facet normal 1 0 0
    outer loop
      vertex -70 6 11
      vertex -70 6.29289 11.7071
      vertex -70 15 38
    endloop
  endfacet
  facet normal 1 -0 0
    outer loop
      vertex -70 7 10
      vertex -70 6.29289 10.2929
      vertex -70 5 1
    endloop
  endfacet
  facet normal 1 0 0
    outer loop
      vertex -70 6.29289 11.7071
      vertex -70 7 12
      vertex -70 15 38
    endloop
  endfacet
  facet normal 1 0 0
    outer loop
      vertex -70 7 12
      vertex -70 7.70711 11.7071
      vertex -70 15 38
    endloop
  endfacet
  facet normal 1 0 0
    outer loop
      vertex -70 15 38
      vertex -70 8 11
      vertex -70 7 1
    endloop
  endfacet
  facet normal 1 0 -0
    outer loop
      vertex -70 7.70711 10.2929
      vertex -70 5 1
      vertex -70 8 11
    endloop
  endfacet
  facet normal 1 0 0
    outer loop
      vertex -70 7.70711 10.2929
      vertex -70 7 10
      vertex -70 5 1
    endloop
  endfacet
  facet normal 1 0 0
    outer loop
      vertex -70 3 1
      vertex -70 5 1
      vertex -70 3 38
    endloop
  endfacet
  facet normal 1 0 0
    outer loop
      vertex -70 7.70711 11.7071
      vertex -70 8 11
      vertex -70 15 38
    endloop
  endfacet
  facet normal 0 -1 0
    outer loop
      vertex -60 7 0
      vertex -60 7 1
      vertex -70 7 1
    endloop
  endfacet
  facet normal -0 -1 -0
    outer loop
      vertex -70 7 0
      vertex -60 7 0
      vertex -70 7 1
    endloop
  endfacet
  facet normal -1 0 0
    outer loop
      vertex -60 7 1
      vertex -60 7 0
      vertex -60 5 1
    endloop
  endfacet
  facet normal -1 0 0
    outer loop
      vertex -60 5 1
      vertex -60 7 0
      vertex -60 5 0
    endloop
  endfacet
  facet normal 0 1 0
    outer loop
      vertex -60 5 1
      vertex -60 5 0
      vertex -70 5 1
    endloop
  endfacet
  facet normal 0 1 -0
    outer loop
      vertex -70 5 1
      vertex -60 5 0
      vertex -70 5 0
    endloop
  endfacet
  facet normal 1 0 0
    outer loop
      vertex -58 13 0
      vertex -58 13 1
      vertex -58 5 1
    endloop
  endfacet
  facet normal 1 0 0
    outer loop
      vertex -58 5 0
      vertex -58 13 0
      vertex -58 5 1
    endloop
  endfacet
  facet normal 0 -1 0
    outer loop
      vertex -38 13 0
      vertex -38 13 1
      vertex -58 13 1
    endloop
  endfacet
  facet normal -0 -1 -0
    outer loop
      vertex -58 13 0
      vertex -38 13 0
      vertex -58 13 1
    endloop
  endfacet
  facet normal -1 0 0
    outer loop
      vertex -38 13 1
      vertex -38 13 0
      vertex -38 5 1
    endloop
  endfacet
  facet normal -1 0 0
    outer loop
      vertex -38 5 1
      vertex -38 13 0
      vertex -38 5 0
    endloop
  endfacet
  facet normal 0 1 0
    outer loop
      vertex -38 5 1
      vertex -38 5 0
      vertex -58 5 1
    endloop
  endfacet
  facet normal 0 1 -0
    outer loop
      vertex -58 5 1
      vertex -38 5 0
      vertex -58 5 0
    endloop
  endfacet
  facet normal 0 -1 0
    outer loop
      vertex -18 13 23
      vertex -18 13 38
      vertex -19 13 38
    endloop
  endfacet
  facet normal -0 -1 -0
    outer loop
      vertex -19 13 23
      vertex -18 13 23
      vertex -19 13 38
    endloop
  endfacet
  facet normal -1 0 0
    outer loop
      vertex -19 4 38
      vertex -19 4 23
      vertex -19 3 38
    endloop
  endfacet
  facet normal -1 -0 -0
    outer loop
      vertex -19 7.70711 14.7071
      vertex -19 4 23
      vertex -19 15 1
    endloop
  endfacet
  facet normal -1 0 0
    outer loop
      vertex -19 15 38
      vertex -19 13 23
      vertex -19 13 38
    endloop
  endfacet
  facet normal -1 0 0
    outer loop
      vertex -19 15 1
      vertex -19 13 23
      vertex -19 15 38
    endloop
  endfacet
  facet normal -1 0 0
    outer loop
      vertex -19 4 23
      vertex -19 13 23
      vertex -19 15 1
    endloop
  endfacet
  facet normal -1 0 0
    outer loop
      vertex -19 3 38
      vertex -19 4 23
      vertex -19 3 1
    endloop
  endfacet
  facet normal -1 -0 0
    outer loop
      vertex -19 3 1
      vertex -19 6.29289 13.2929
      vertex -19 15 1
    endloop
  endfacet
  facet normal -1 0 -0
    outer loop
      vertex -19 6 14
      vertex -19 4 23
      vertex -19 6.29289 14.7071
    endloop
  endfacet
  facet normal -1 0 0
    outer loop
      vertex -19 6.29289 13.2929
      vertex -19 7 13
      vertex -19 15 1
    endloop
  endfacet
  facet normal -1 0 -0
    outer loop
      vertex -19 6.29289 14.7071
      vertex -19 4 23
      vertex -19 7 15
    endloop
  endfacet
  facet normal -1 -0 0
    outer loop
      vertex -19 7 13
      vertex -19 7.70711 13.2929
      vertex -19 15 1
    endloop
  endfacet
  facet normal -1 -0 0
    outer loop
      vertex -19 7.70711 13.2929
      vertex -19 8 14
      vertex -19 15 1
    endloop
  endfacet
  facet normal -1 -0 -0
    outer loop
      vertex -19 8 14
      vertex -19 7.70711 14.7071
      vertex -19 15 1
    endloop
  endfacet
  facet normal -1 0 0
    outer loop
      vertex -19 3 1
      vertex -19 4 23
      vertex -19 6 14
    endloop
  endfacet
  facet normal -1 0 0
    outer loop
      vertex -19 3 1
      vertex -19 6 14
      vertex -19 6.29289 13.2929
    endloop
  endfacet
  facet normal -1 -0 -0
    outer loop
      vertex -19 7 15
      vertex -19 4 23
      vertex -19 7.70711 14.7071
    endloop
  endfacet
  facet normal 0 -1 -0
    outer loop
      vertex -52 15 25
      vertex -19 15 38
      vertex -70 15 38
    endloop
  endfacet
  facet normal 0 -1 0
    outer loop
      vertex -42 15 17
      vertex -45 15 17
      vertex -19 15 1
    endloop
  endfacet
  facet normal 0 -1 -0
    outer loop
      vertex -70 15 1
      vertex -60 15 25
      vertex -70 15 38
    endloop
  endfacet
  facet normal -0 -1 -0
    outer loop
      vertex -60 15 25
      vertex -57 15 25
      vertex -70 15 38
    endloop
  endfacet
  facet normal 0 -1 0
    outer loop
      vertex -70 15 1
      vertex -60 15 17
      vertex -60 15 25
    endloop
  endfacet
  facet normal 0 -1 0
    outer loop
      vertex -70 15 1
      vertex -57 15 17
      vertex -60 15 17
    endloop
  endfacet
  facet normal -0 -1 -0
    outer loop
      vertex -57 15 25
      vertex -55 15 25
      vertex -70 15 38
    endloop
  endfacet
  facet normal 0 -1 0
    outer loop
      vertex -42 15 25
      vertex -42 15 17
      vertex -36 15 16
    endloop
  endfacet
  facet normal 0 -1 -0
    outer loop
      vertex -50 15 25
      vertex -19 15 38
      vertex -52 15 25
    endloop
  endfacet
  facet normal 0 -1 0
    outer loop
      vertex -36 15 16
      vertex -42 15 17
      vertex -19 15 1
    endloop
  endfacet
  facet normal 0 -1 0
    outer loop
      vertex -26.9393 15 5.06066
      vertex -26.5 15 4
      vertex -19 15 1
    endloop
  endfacet
  facet normal 0 -1 -0
    outer loop
      vertex -47 15 25
      vertex -19 15 38
      vertex -50 15 25
    endloop
  endfacet
  facet normal 0 -1 0
    outer loop
      vertex -45 15 17
      vertex -45 15 25
      vertex -47 15 25
    endloop
  endfacet
  facet normal 0 -1 -0
    outer loop
      vertex -45 15 25
      vertex -19 15 38
      vertex -47 15 25
    endloop
  endfacet
  facet normal 0 -1 0
    outer loop
      vertex -50 15 17
      vertex -19 15 1
      vertex -47 15 17
    endloop
  endfacet
  facet normal 0 -1 0
    outer loop
      vertex -26.5 15 4
      vertex -26.9393 15 2.93934
      vertex -19 15 1
    endloop
  endfacet
  facet normal -0 -1 -0
    outer loop
      vertex -26.9393 15 5.06066
      vertex -19 15 1
      vertex -50 15 17
    endloop
  endfacet
  facet normal 0 -1 -0
    outer loop
      vertex -42 15 25
      vertex -19 15 38
      vertex -45 15 25
    endloop
  endfacet
  facet normal 0 -1 0
    outer loop
      vertex -29.0607 15 5.06066
      vertex -52 15 17
      vertex -55 15 17
    endloop
  endfacet
  facet normal 0 -1 -0
    outer loop
      vertex -36 15 22
      vertex -19 15 38
      vertex -42 15 25
    endloop
  endfacet
  facet normal 0 -1 -0
    outer loop
      vertex -29.0607 15 5.06066
      vertex -28 15 5.5
      vertex -52 15 17
    endloop
  endfacet
  facet normal 0 -1 0
    outer loop
      vertex -50 15 17
      vertex -50 15 25
      vertex -52 15 25
    endloop
  endfacet
  facet normal 0 -1 0
    outer loop
      vertex -55 15 17
      vertex -55 15 25
      vertex -57 15 25
    endloop
  endfacet
  facet normal 0 -1 -0
    outer loop
      vertex -29 15 22
      vertex -19 15 38
      vertex -36 15 22
    endloop
  endfacet
  facet normal 0 -1 0
    outer loop
      vertex -19 15 1
      vertex -19 15 38
      vertex -29 15 22
    endloop
  endfacet
  facet normal 0 -1 0
    outer loop
      vertex -29.0607 15 5.06066
      vertex -55 15 17
      vertex -57 15 17
    endloop
  endfacet
  facet normal 0 -1 0
    outer loop
      vertex -19 15 1
      vertex -29 15 22
      vertex -29 15 16
    endloop
  endfacet
  facet normal 0 -1 0
    outer loop
      vertex -29 15 16
      vertex -36 15 16
      vertex -19 15 1
    endloop
  endfacet
  facet normal 0 -1 0
    outer loop
      vertex -36 15 16
      vertex -36 15 22
      vertex -42 15 25
    endloop
  endfacet
  facet normal 0 -1 0
    outer loop
      vertex -70 15 1
      vertex -29.5 15 4
      vertex -57 15 17
    endloop
  endfacet
  facet normal 0 -1 -0
    outer loop
      vertex -29.5 15 4
      vertex -29.0607 15 5.06066
      vertex -57 15 17
    endloop
  endfacet
  facet normal 0 -1 0
    outer loop
      vertex -52 15 17
      vertex -28 15 5.5
      vertex -50 15 17
    endloop
  endfacet
  facet normal -0 -1 -0
    outer loop
      vertex -28 15 5.5
      vertex -26.9393 15 5.06066
      vertex -50 15 17
    endloop
  endfacet
  facet normal 0 -1 0
    outer loop
      vertex -28 15 2.5
      vertex -29.0607 15 2.93934
      vertex -70 15 1
    endloop
  endfacet
  facet normal -0 -1 0
    outer loop
      vertex -28 15 2.5
      vertex -19 15 1
      vertex -26.9393 15 2.93934
    endloop
  endfacet
  facet normal -0 -1 0
    outer loop
      vertex -70 15 1
      vertex -19 15 1
      vertex -28 15 2.5
    endloop
  endfacet
  facet normal 0 -1 0
    outer loop
      vertex -70 15 1
      vertex -29.0607 15 2.93934
      vertex -29.5 15 4
    endloop
  endfacet
  facet normal 0 -1 0
    outer loop
      vertex -45 15 17
      vertex -47 15 17
      vertex -19 15 1
    endloop
  endfacet
  facet normal -0 -1 -0
    outer loop
      vertex -55 15 25
      vertex -52 15 25
      vertex -70 15 38
    endloop
  endfacet
  facet normal 0 -1 0
    outer loop
      vertex -47 15 25
      vertex -47 15 17
      vertex -45 15 17
    endloop
  endfacet
  facet normal 0 -1 0
    outer loop
      vertex -52 15 25
      vertex -52 15 17
      vertex -50 15 17
    endloop
  endfacet
  facet normal 0 -1 0
    outer loop
      vertex -57 15 25
      vertex -57 15 17
      vertex -55 15 17
    endloop
  endfacet
  facet normal 0 1 0
    outer loop
      vertex -70 3 1
      vertex -70 3 38
      vertex -69 3 1
    endloop
  endfacet
  facet normal 0 1 0
    outer loop
      vertex -69 3 1
      vertex -70 3 38
      vertex -69 3 38
    endloop
  endfacet
  facet normal 1 0 -0
    outer loop
      vertex -69 0 38
      vertex -69 0 1
      vertex -69 3 1
    endloop
  endfacet
  facet normal 1 0 0
    outer loop
      vertex -69 3 38
      vertex -69 0 38
      vertex -69 3 1
    endloop
  endfacet
  facet normal 0 1 0
    outer loop
      vertex -20 0 38
      vertex -20 0 1
      vertex -69 0 38
    endloop
  endfacet
  facet normal 0 1 -0
    outer loop
      vertex -69 0 38
      vertex -20 0 1
      vertex -69 0 1
    endloop
  endfacet
  facet normal -1 -0 -0
    outer loop
      vertex -20 0 1
      vertex -20 0 38
      vertex -20 3 1
    endloop
  endfacet
  facet normal -1 0 0
    outer loop
      vertex -20 3 1
      vertex -20 0 38
      vertex -20 3 38
    endloop
  endfacet
  facet normal 0 1 0
    outer loop
      vertex -20 3 1
      vertex -20 3 38
      vertex -19 3 1
    endloop
  endfacet
  facet normal 0 1 0
    outer loop
      vertex -19 3 1
      vertex -20 3 38
      vertex -19 3 38
    endloop
  endfacet
  facet normal 0 1 0
    outer loop
      vertex -18 4 38
      vertex -18 4 23
      vertex -19 4 38
    endloop
  endfacet
  facet normal 0 1 -0
    outer loop
      vertex -19 4 38
      vertex -18 4 23
      vertex -19 4 23
    endloop
  endfacet
  facet normal 0 0 1
    outer loop
      vertex -18 4 23
      vertex -18 13 23
      vertex -19 13 23
    endloop
  endfacet
  facet normal 0 0 1
    outer loop
      vertex -19 4 23
      vertex -18 4 23
      vertex -19 13 23
    endloop
  endfacet
  facet normal -3.54145e-18 0.382683 0.92388
    outer loop
      vertex -18 6.29289 13.2929
      vertex -18 7 13
      vertex -19 7 13
    endloop
  endfacet
  facet normal 0 0.382683 0.92388
    outer loop
      vertex -19 6.29289 13.2929
      vertex -18 6.29289 13.2929
      vertex -19 7 13
    endloop
  endfacet
  facet normal -0 0.92388 0.382683
    outer loop
      vertex -18 6.29289 13.2929
      vertex -19 6.29289 13.2929
      vertex -18 6 14
    endloop
  endfacet
  facet normal -0 0.92388 0.382683
    outer loop
      vertex -18 6 14
      vertex -19 6.29289 13.2929
      vertex -19 6 14
    endloop
  endfacet
  facet normal 1.70698e-17 -0.382683 0.92388
    outer loop
      vertex -18 7 13
      vertex -18 7.70711 13.2929
      vertex -19 7.70711 13.2929
    endloop
  endfacet
  facet normal 0 -0.382683 0.92388
    outer loop
      vertex -19 7 13
      vertex -18 7 13
      vertex -19 7.70711 13.2929
    endloop
  endfacet
  facet normal 1.70698e-17 -0.92388 0.382683
    outer loop
      vertex -18 7.70711 13.2929
      vertex -18 8 14
      vertex -19 8 14
    endloop
  endfacet
  facet normal 0 -0.92388 0.382683
    outer loop
      vertex -19 7.70711 13.2929
      vertex -18 7.70711 13.2929
      vertex -19 8 14
    endloop
  endfacet
  facet normal -0 -0.92388 -0.382683
    outer loop
      vertex -19 8 14
      vertex -18 8 14
      vertex -18 7.70711 14.7071
    endloop
  endfacet
  facet normal -0 -0.92388 -0.382683
    outer loop
      vertex -19 7.70711 14.7071
      vertex -19 8 14
      vertex -18 7.70711 14.7071
    endloop
  endfacet
  facet normal 0 -0.382683 -0.92388
    outer loop
      vertex -18 7.70711 14.7071
      vertex -18 7 15
      vertex -19 7.70711 14.7071
    endloop
  endfacet
  facet normal -7.82659e-18 -0.382683 -0.92388
    outer loop
      vertex -19 7.70711 14.7071
      vertex -18 7 15
      vertex -19 7 15
    endloop
  endfacet
  facet normal 0 0.382683 -0.92388
    outer loop
      vertex -18 7 15
      vertex -18 6.29289 14.7071
      vertex -19 7 15
    endloop
  endfacet
  facet normal -5.68402e-18 0.382683 -0.92388
    outer loop
      vertex -19 7 15
      vertex -18 6.29289 14.7071
      vertex -19 6.29289 14.7071
    endloop
  endfacet
  facet normal 0 0.92388 -0.382683
    outer loop
      vertex -18 6.29289 14.7071
      vertex -18 6 14
      vertex -19 6.29289 14.7071
    endloop
  endfacet
  facet normal -5.68402e-18 0.92388 -0.382683
    outer loop
      vertex -19 6.29289 14.7071
      vertex -18 6 14
      vertex -19 6 14
    endloop
  endfacet
  facet normal 1 0 0
    outer loop
      vertex -60 16 17
      vertex -60 16 25
      vertex -60 15 25
    endloop
  endfacet
  facet normal 1 0 0
    outer loop
      vertex -60 15 17
      vertex -60 16 17
      vertex -60 15 25
    endloop
  endfacet
  facet normal 0 0 -1
    outer loop
      vertex -57 16 25
      vertex -57 15 25
      vertex -60 16 25
    endloop
  endfacet
  facet normal 0 0 -1
    outer loop
      vertex -60 16 25
      vertex -57 15 25
      vertex -60 15 25
    endloop
  endfacet
  facet normal -1 0 0
    outer loop
      vertex -57 16 25
      vertex -57 16 17
      vertex -57 15 25
    endloop
  endfacet
  facet normal -1 0 0
    outer loop
      vertex -57 15 25
      vertex -57 16 17
      vertex -57 15 17
    endloop
  endfacet
  facet normal 0 0 1
    outer loop
      vertex -57 15 17
      vertex -57 16 17
      vertex -60 16 17
    endloop
  endfacet
  facet normal 0 0 1
    outer loop
      vertex -60 15 17
      vertex -57 15 17
      vertex -60 16 17
    endloop
  endfacet
  facet normal 1 0 0
    outer loop
      vertex -55 16 17
      vertex -55 16 25
      vertex -55 15 25
    endloop
  endfacet
  facet normal 1 0 0
    outer loop
      vertex -55 15 17
      vertex -55 16 17
      vertex -55 15 25
    endloop
  endfacet
  facet normal 0 0 -1
    outer loop
      vertex -52 16 25
      vertex -52 15 25
      vertex -55 16 25
    endloop
  endfacet
  facet normal 0 0 -1
    outer loop
      vertex -55 16 25
      vertex -52 15 25
      vertex -55 15 25
    endloop
  endfacet
  facet normal -1 0 0
    outer loop
      vertex -52 16 25
      vertex -52 16 17
      vertex -52 15 25
    endloop
  endfacet
  facet normal -1 0 0
    outer loop
      vertex -52 15 25
      vertex -52 16 17
      vertex -52 15 17
    endloop
  endfacet
  facet normal 0 0 1
    outer loop
      vertex -52 15 17
      vertex -52 16 17
      vertex -55 16 17
    endloop
  endfacet
  facet normal 0 0 1
    outer loop
      vertex -55 15 17
      vertex -52 15 17
      vertex -55 16 17
    endloop
  endfacet
  facet normal 1 0 0
    outer loop
      vertex -50 16 17
      vertex -50 16 25
      vertex -50 15 25
    endloop
  endfacet
  facet normal 1 0 0
    outer loop
      vertex -50 15 17
      vertex -50 16 17
      vertex -50 15 25
    endloop
  endfacet
  facet normal 0 0 -1
    outer loop
      vertex -47 16 25
      vertex -47 15 25
      vertex -50 16 25
    endloop
  endfacet
  facet normal 0 0 -1
    outer loop
      vertex -50 16 25
      vertex -47 15 25
      vertex -50 15 25
    endloop
  endfacet
  facet normal -1 0 0
    outer loop
      vertex -47 16 25
      vertex -47 16 17
      vertex -47 15 25
    endloop
  endfacet
  facet normal -1 0 0
    outer loop
      vertex -47 15 25
      vertex -47 16 17
      vertex -47 15 17
    endloop
  endfacet
  facet normal 0 0 1
    outer loop
      vertex -47 15 17
      vertex -47 16 17
      vertex -50 16 17
    endloop
  endfacet
  facet normal 0 0 1
    outer loop
      vertex -50 15 17
      vertex -47 15 17
      vertex -50 16 17
    endloop
  endfacet
  facet normal 1 0 0
    outer loop
      vertex -45 16 17
      vertex -45 16 25
      vertex -45 15 25
    endloop
  endfacet
  facet normal 1 0 0
    outer loop
      vertex -45 15 17
      vertex -45 16 17
      vertex -45 15 25
    endloop
  endfacet
  facet normal 0 0 -1
    outer loop
      vertex -42 16 25
      vertex -42 15 25
      vertex -45 16 25
    endloop
  endfacet
  facet normal 0 0 -1
    outer loop
      vertex -45 16 25
      vertex -42 15 25
      vertex -45 15 25
    endloop
  endfacet
  facet normal -1 0 0
    outer loop
      vertex -42 16 25
      vertex -42 16 17
      vertex -42 15 25
    endloop
  endfacet
  facet normal -1 0 0
    outer loop
      vertex -42 15 25
      vertex -42 16 17
      vertex -42 15 17
    endloop
  endfacet
  facet normal 0 0 1
    outer loop
      vertex -42 15 17
      vertex -42 16 17
      vertex -45 16 17
    endloop
  endfacet
  facet normal 0 0 1
    outer loop
      vertex -45 15 17
      vertex -42 15 17
      vertex -45 16 17
    endloop
  endfacet
  facet normal 1 0 0
    outer loop
      vertex -36 16 16
      vertex -36 16 22
      vertex -36 15 22
    endloop
  endfacet
  facet normal 1 0 0
    outer loop
      vertex -36 15 16
      vertex -36 16 16
      vertex -36 15 22
    endloop
  endfacet
  facet normal 0 0 -1
    outer loop
      vertex -29 16 22
      vertex -29 15 22
      vertex -36 16 22
    endloop
  endfacet
  facet normal 0 0 -1
    outer loop
      vertex -36 16 22
      vertex -29 15 22
      vertex -36 15 22
    endloop
  endfacet
  facet normal -1 0 0
    outer loop
      vertex -29 16 22
      vertex -29 16 16
      vertex -29 15 22
    endloop
  endfacet
  facet normal -1 0 0
    outer loop
      vertex -29 15 22
      vertex -29 16 16
      vertex -29 15 16
    endloop
  endfacet
  facet normal 0 0 1
    outer loop
      vertex -29 15 16
      vertex -29 16 16
      vertex -36 16 16
    endloop
  endfacet
  facet normal 0 0 1
    outer loop
      vertex -36 15 16
      vertex -29 15 16
      vertex -36 16 16
    endloop
  endfacet
  facet normal 0.923879 0 -0.382684
    outer loop
      vertex -29.5 16 4
      vertex -29.0607 16 5.06066
      vertex -29.0607 15 5.06066
    endloop
  endfacet
  facet normal 0.923879 0 -0.382684
    outer loop
      vertex -29.5 15 4
      vertex -29.5 16 4
      vertex -29.0607 15 5.06066
    endloop
  endfacet
  facet normal 0.923879 0 0.382684
    outer loop
      vertex -29.0607 15 2.93934
      vertex -29.0607 16 2.93934
      vertex -29.5 16 4
    endloop
  endfacet
  facet normal 0.923879 0 0.382684
    outer loop
      vertex -29.5 15 4
      vertex -29.0607 15 2.93934
      vertex -29.5 16 4
    endloop
  endfacet
  facet normal 0.382684 0 -0.923879
    outer loop
      vertex -28 16 5.5
      vertex -28 15 5.5
      vertex -29.0607 16 5.06066
    endloop
  endfacet
  facet normal 0.382684 0 -0.923879
    outer loop
      vertex -29.0607 16 5.06066
      vertex -28 15 5.5
      vertex -29.0607 15 5.06066
    endloop
  endfacet
  facet normal -0.382684 0 -0.923879
    outer loop
      vertex -26.9393 16 5.06066
      vertex -26.9393 15 5.06066
      vertex -28 16 5.5
    endloop
  endfacet
  facet normal -0.382684 0 -0.923879
    outer loop
      vertex -28 16 5.5
      vertex -26.9393 15 5.06066
      vertex -28 15 5.5
    endloop
  endfacet
  facet normal -0.923879 0 -0.382684
    outer loop
      vertex -26.5 16 4
      vertex -26.5 15 4
      vertex -26.9393 16 5.06066
    endloop
  endfacet
  facet normal -0.923879 0 -0.382684
    outer loop
      vertex -26.9393 16 5.06066
      vertex -26.5 15 4
      vertex -26.9393 15 5.06066
    endloop
  endfacet
  facet normal -0.923879 0 0.382684
    outer loop
      vertex -26.5 16 4
      vertex -26.9393 16 2.93934
      vertex -26.5 15 4
    endloop
  endfacet
  facet normal -0.923879 0 0.382684
    outer loop
      vertex -26.5 15 4
      vertex -26.9393 16 2.93934
      vertex -26.9393 15 2.93934
    endloop
  endfacet
  facet normal -0.382684 0 0.923879
    outer loop
      vertex -26.9393 15 2.93934
      vertex -26.9393 16 2.93934
      vertex -28 16 2.5
    endloop
  endfacet
  facet normal -0.382684 0 0.923879
    outer loop
      vertex -28 15 2.5
      vertex -26.9393 15 2.93934
      vertex -28 16 2.5
    endloop
  endfacet
  facet normal 0.382684 0 0.923879
    outer loop
      vertex -28 15 2.5
      vertex -28 16 2.5
      vertex -29.0607 16 2.93934
    endloop
  endfacet
  facet normal 0.382684 0 0.923879
    outer loop
      vertex -29.0607 15 2.93934
      vertex -28 15 2.5
      vertex -29.0607 16 2.93934
    endloop
  endfacet
  facet normal 0 -0 1
    outer loop
      vertex -69 3 1
      vertex -69 0 1
      vertex -20 0 1
    endloop
  endfacet
  facet normal 0 -0 1
    outer loop
      vertex -60 5 1
      vertex -69 3 1
      vertex -20 3 1
    endloop
  endfacet
  facet normal 0 0 1
    outer loop
      vertex -20 3 1
      vertex -69 3 1
      vertex -20 0 1
    endloop
  endfacet
  facet normal 0 0 1
    outer loop
      vertex -19 15 1
      vertex -20 3 1
      vertex -19 3 1
    endloop
  endfacet
  facet normal 0 0 1
    outer loop
      vertex -70 7 1
      vertex -60 7 1
      vertex -70 15 1
    endloop
  endfacet
  facet normal 0 0 1
    outer loop
      vertex -60 5 1
      vertex -70 5 1
      vertex -69 3 1
    endloop
  endfacet
  facet normal 0 -0 1
    outer loop
      vertex -38 13 1
      vertex -38 5 1
      vertex -19 15 1
    endloop
  endfacet
  facet normal -0 0 1
    outer loop
      vertex -58 5 1
      vertex -60 7 1
      vertex -60 5 1
    endloop
  endfacet
  facet normal 0 -0 1
    outer loop
      vertex -58 5 1
      vertex -60 5 1
      vertex -20 3 1
    endloop
  endfacet
  facet normal 0 0 1
    outer loop
      vertex -58 5 1
      vertex -58 13 1
      vertex -60 7 1
    endloop
  endfacet
  facet normal 0 0 1
    outer loop
      vertex -70 15 1
      vertex -58 13 1
      vertex -19 15 1
    endloop
  endfacet
  facet normal 0 0 1
    outer loop
      vertex -70 15 1
      vertex -60 7 1
      vertex -58 13 1
    endloop
  endfacet
  facet normal 0 0 1
    outer loop
      vertex -58 13 1
      vertex -38 13 1
      vertex -19 15 1
    endloop
  endfacet
  facet normal 0 0 1
    outer loop
      vertex -19 15 1
      vertex -38 5 1
      vertex -20 3 1
    endloop
  endfacet
  facet normal 0 -0 1
    outer loop
      vertex -38 5 1
      vertex -58 5 1
      vertex -20 3 1
    endloop
  endfacet
  facet normal 0 0 1
    outer loop
      vertex -70 3 1
      vertex -69 3 1
      vertex -70 5 1
    endloop
  endfacet
endsolid OpenSCAD_Model
