solid OpenSCAD_Model
  facet normal -1 0 -0
    outer loop
      vertex -1 0 0
      vertex -1 0 15
      vertex -1 9 1
    endloop
  endfacet
  facet normal -1 -0 0
    outer loop
      vertex -1 0 0
      vertex -1 9 1
      vertex -1 15 0
    endloop
  endfacet
  facet normal -1 0 0
    outer loop
      vertex -1 12 15
      vertex -1 15 0
      vertex -1 12 1
    endloop
  endfacet
  facet normal -1 0 0
    outer loop
      vertex -1 9 1
      vertex -1 12 1
      vertex -1 15 0
    endloop
  endfacet
  facet normal -1 0 0
    outer loop
      vertex -1 15 0
      vertex -1 12 15
      vertex -1 15 15
    endloop
  endfacet
  facet normal -1 0 0
    outer loop
      vertex -1 9 1
      vertex -1 0 15
      vertex -1 9 15
    endloop
  endfacet
  facet normal -0.996917 -0.0784615 -0
    outer loop
      vertex -1 0 0
      vertex -0.987688 -0.156434 0
      vertex -1 0 15
    endloop
  endfacet
  facet normal -0.996917 -0.0784615 0
    outer loop
      vertex -1 0 15
      vertex -0.987688 -0.156434 0
      vertex -0.987688 -0.156434 15
    endloop
  endfacet
  facet normal -0 -0 -1
    outer loop
      vertex -1 0 0
      vertex -1 15 0
      vertex -0.987688 -0.156434 0
    endloop
  endfacet
  facet normal 0 0 -1
    outer loop
      vertex -0.987688 -0.156434 0
      vertex -1 15 0
      vertex -0.987688 15.1564 0
    endloop
  endfacet
  facet normal 0 -0 -1
    outer loop
      vertex -0.987688 -0.156434 0
      vertex -0.987688 15.1564 0
      vertex -0.951057 15.309 0
    endloop
  endfacet
  facet normal 0 0 -1
    outer loop
      vertex -0.987688 -0.156434 0
      vertex -0.951057 15.309 0
      vertex -0.891007 15.454 0
    endloop
  endfacet
  facet normal 0 0 -1
    outer loop
      vertex -0.987688 -0.156434 0
      vertex -0.891007 15.454 0
      vertex -0.809017 15.5878 0
    endloop
  endfacet
  facet normal 0 0 -1
    outer loop
      vertex -0.987688 -0.156434 0
      vertex -0.809017 15.5878 0
      vertex -0.707107 15.7071 0
    endloop
  endfacet
  facet normal 0 0 -1
    outer loop
      vertex -0.987688 -0.156434 0
      vertex -0.707107 15.7071 0
      vertex -0.587785 15.809 0
    endloop
  endfacet
  facet normal 0 0 -1
    outer loop
      vertex -0.987688 -0.156434 0
      vertex -0.587785 15.809 0
      vertex -0.45399 15.891 0
    endloop
  endfacet
  facet normal 0 0 -1
    outer loop
      vertex -0.987688 -0.156434 0
      vertex -0.45399 15.891 0
      vertex -0.309017 15.9511 0
    endloop
  endfacet
  facet normal 0 0 -1
    outer loop
      vertex -0.987688 -0.156434 0
      vertex -0.309017 15.9511 0
      vertex -0.156434 15.9877 0
    endloop
  endfacet
  facet normal 0 0 -1
    outer loop
      vertex -0.987688 -0.156434 0
      vertex -0.156434 15.9877 0
      vertex 0 16 0
    endloop
  endfacet
  facet normal 0 0 -1
    outer loop
      vertex -0.987688 -0.156434 0
      vertex 0 16 0
      vertex 51 16 0
    endloop
  endfacet
  facet normal 0 0 -1
    outer loop
      vertex -0.987688 -0.156434 0
      vertex 51 16 0
      vertex 51.1564 15.9877 0
    endloop
  endfacet
  facet normal 0 0 -1
    outer loop
      vertex -0.987688 -0.156434 0
      vertex 51.1564 15.9877 0
      vertex 51.309 15.9511 0
    endloop
  endfacet
  facet normal 0 0 -1
    outer loop
      vertex -0.987688 -0.156434 0
      vertex 51.309 15.9511 0
      vertex 51.454 15.891 0
    endloop
  endfacet
  facet normal 0 0 -1
    outer loop
      vertex -0.987688 -0.156434 0
      vertex 51.454 15.891 0
      vertex 51.5878 15.809 0
    endloop
  endfacet
  facet normal 0 0 -1
    outer loop
      vertex -0.987688 -0.156434 0
      vertex 51.5878 15.809 0
      vertex 51.7071 15.7071 0
    endloop
  endfacet
  facet normal 0 0 -1
    outer loop
      vertex -0.987688 -0.156434 0
      vertex 51.7071 15.7071 0
      vertex 51.809 15.5878 0
    endloop
  endfacet
  facet normal 0 0 -1
    outer loop
      vertex -0.987688 -0.156434 0
      vertex 51.809 15.5878 0
      vertex 51.891 15.454 0
    endloop
  endfacet
  facet normal 0 0 -1
    outer loop
      vertex -0.987688 -0.156434 0
      vertex 51.891 15.454 0
      vertex 51.9511 15.309 0
    endloop
  endfacet
  facet normal 0 0 -1
    outer loop
      vertex -0.987688 -0.156434 0
      vertex 51.9511 15.309 0
      vertex 51.9877 15.1564 0
    endloop
  endfacet
  facet normal 0 0 -1
    outer loop
      vertex -0.987688 -0.156434 0
      vertex 51.9877 15.1564 0
      vertex 52 15 0
    endloop
  endfacet
  facet normal 0 0 -1
    outer loop
      vertex -0.987688 -0.156434 0
      vertex 52 15 0
      vertex 52 0 0
    endloop
  endfacet
  facet normal -0 0 -1
    outer loop
      vertex -0.987688 -0.156434 0
      vertex 52 0 0
      vertex 51.9877 -0.156434 0
    endloop
  endfacet
  facet normal 0 0 -1
    outer loop
      vertex -0.987688 -0.156434 0
      vertex 51.9877 -0.156434 0
      vertex 51.9511 -0.309017 0
    endloop
  endfacet
  facet normal 0 0 -1
    outer loop
      vertex -0.987688 -0.156434 0
      vertex 51.9511 -0.309017 0
      vertex 51.891 -0.45399 0
    endloop
  endfacet
  facet normal 0 0 -1
    outer loop
      vertex -0.987688 -0.156434 0
      vertex 51.891 -0.45399 0
      vertex 51.809 -0.587785 0
    endloop
  endfacet
  facet normal 0 0 -1
    outer loop
      vertex -0.987688 -0.156434 0
      vertex 51.809 -0.587785 0
      vertex 51.7071 -0.707107 0
    endloop
  endfacet
  facet normal 0 0 -1
    outer loop
      vertex -0.987688 -0.156434 0
      vertex 51.7071 -0.707107 0
      vertex 51.5878 -0.809017 0
    endloop
  endfacet
  facet normal 0 0 -1
    outer loop
      vertex -0.987688 -0.156434 0
      vertex 51.5878 -0.809017 0
      vertex 51.454 -0.891007 0
    endloop
  endfacet
  facet normal 0 0 -1
    outer loop
      vertex -0.987688 -0.156434 0
      vertex 51.454 -0.891007 0
      vertex 51.309 -0.951057 0
    endloop
  endfacet
  facet normal 0 0 -1
    outer loop
      vertex -0.987688 -0.156434 0
      vertex 51.309 -0.951057 0
      vertex 51.1564 -0.987688 0
    endloop
  endfacet
  facet normal 0 0 -1
    outer loop
      vertex -0.987688 -0.156434 0
      vertex 51.1564 -0.987688 0
      vertex 51 -1 0
    endloop
  endfacet
  facet normal 0 0 -1
    outer loop
      vertex -0.987688 -0.156434 0
      vertex 51 -1 0
      vertex 0 -1 0
    endloop
  endfacet
  facet normal 0 0 -1
    outer loop
      vertex -0.987688 -0.156434 0
      vertex 0 -1 0
      vertex -0.156434 -0.987688 0
    endloop
  endfacet
  facet normal 0 0 -1
    outer loop
      vertex -0.987688 -0.156434 0
      vertex -0.156434 -0.987688 0
      vertex -0.309017 -0.951057 0
    endloop
  endfacet
  facet normal 0 0 -1
    outer loop
      vertex -0.987688 -0.156434 0
      vertex -0.309017 -0.951057 0
      vertex -0.45399 -0.891007 0
    endloop
  endfacet
  facet normal 0 0 -1
    outer loop
      vertex -0.987688 -0.156434 0
      vertex -0.45399 -0.891007 0
      vertex -0.587785 -0.809017 0
    endloop
  endfacet
  facet normal 0 0 -1
    outer loop
      vertex -0.987688 -0.156434 0
      vertex -0.587785 -0.809017 0
      vertex -0.707107 -0.707107 0
    endloop
  endfacet
  facet normal 0 0 -1
    outer loop
      vertex -0.987688 -0.156434 0
      vertex -0.707107 -0.707107 0
      vertex -0.809017 -0.587785 0
    endloop
  endfacet
  facet normal 0 0 -1
    outer loop
      vertex -0.987688 -0.156434 0
      vertex -0.809017 -0.587785 0
      vertex -0.891007 -0.45399 0
    endloop
  endfacet
  facet normal 0 0 -1
    outer loop
      vertex -0.987688 -0.156434 0
      vertex -0.891007 -0.45399 0
      vertex -0.951057 -0.309017 0
    endloop
  endfacet
  facet normal -0.996917 0.0784615 0
    outer loop
      vertex -1 15 0
      vertex -1 15 15
      vertex -0.987688 15.1564 0
    endloop
  endfacet
  facet normal -0.996917 0.0784615 0
    outer loop
      vertex -0.987688 15.1564 0
      vertex -1 15 15
      vertex -0.987688 15.1564 15
    endloop
  endfacet
  facet normal 0 -0 1
    outer loop
      vertex -1 9 15
      vertex -1 0 15
      vertex -0.987688 -0.156434 15
    endloop
  endfacet
  facet normal 0 0 1
    outer loop
      vertex -0.891007 -0.45399 15
      vertex -1 9 15
      vertex -0.951057 -0.309017 15
    endloop
  endfacet
  facet normal 0 0 1
    outer loop
      vertex -0.951057 -0.309017 15
      vertex -1 9 15
      vertex -0.987688 -0.156434 15
    endloop
  endfacet
  facet normal 0 0 1
    outer loop
      vertex -0.809017 -0.587785 15
      vertex -1 9 15
      vertex -0.891007 -0.45399 15
    endloop
  endfacet
  facet normal 0 0 1
    outer loop
      vertex -0.707107 -0.707107 15
      vertex -1 9 15
      vertex -0.809017 -0.587785 15
    endloop
  endfacet
  facet normal 0 0 1
    outer loop
      vertex -0.587785 -0.809017 15
      vertex -1 9 15
      vertex -0.707107 -0.707107 15
    endloop
  endfacet
  facet normal 0 0 1
    outer loop
      vertex -0.45399 -0.891007 15
      vertex -1 9 15
      vertex -0.587785 -0.809017 15
    endloop
  endfacet
  facet normal 0 0 1
    outer loop
      vertex -0.309017 -0.951057 15
      vertex -1 9 15
      vertex -0.45399 -0.891007 15
    endloop
  endfacet
  facet normal 0 0 1
    outer loop
      vertex -0.156434 -0.987688 15
      vertex -1 9 15
      vertex -0.309017 -0.951057 15
    endloop
  endfacet
  facet normal 0 0 1
    outer loop
      vertex 0 -1 15
      vertex -1 9 15
      vertex -0.156434 -0.987688 15
    endloop
  endfacet
  facet normal -0 0 1
    outer loop
      vertex 0 3 15
      vertex -1 9 15
      vertex 0 -1 15
    endloop
  endfacet
  facet normal 0 0 1
    outer loop
      vertex 0 3 15
      vertex 0 9 15
      vertex -1 9 15
    endloop
  endfacet
  facet normal 0 0 1
    outer loop
      vertex 50 0 15
      vertex 51.809 -0.587785 15
      vertex 51.891 -0.45399 15
    endloop
  endfacet
  facet normal 0 0 1
    outer loop
      vertex 50 0 15
      vertex 51.7071 -0.707107 15
      vertex 51.809 -0.587785 15
    endloop
  endfacet
  facet normal 0 0 1
    outer loop
      vertex 50 3 15
      vertex 51.9511 -0.309017 15
      vertex 51.9877 -0.156434 15
    endloop
  endfacet
  facet normal 0 -0 1
    outer loop
      vertex 51 15 15
      vertex 51 3 15
      vertex 52 15 15
    endloop
  endfacet
  facet normal 0 -0 1
    outer loop
      vertex 50 3 15
      vertex 50 0 15
      vertex 51.9511 -0.309017 15
    endloop
  endfacet
  facet normal 0 0 1
    outer loop
      vertex 50 0 15
      vertex 51.5878 -0.809017 15
      vertex 51.7071 -0.707107 15
    endloop
  endfacet
  facet normal 0 0 1
    outer loop
      vertex 50 0 15
      vertex 51.454 -0.891007 15
      vertex 51.5878 -0.809017 15
    endloop
  endfacet
  facet normal 0 0 1
    outer loop
      vertex 50 0 15
      vertex 51.309 -0.951057 15
      vertex 51.454 -0.891007 15
    endloop
  endfacet
  facet normal 0 0 1
    outer loop
      vertex 50 0 15
      vertex 51.1564 -0.987688 15
      vertex 51.309 -0.951057 15
    endloop
  endfacet
  facet normal 0 0 1
    outer loop
      vertex 50 0 15
      vertex 51 -1 15
      vertex 51.1564 -0.987688 15
    endloop
  endfacet
  facet normal 0 -0 1
    outer loop
      vertex 50 0 15
      vertex 1 0 15
      vertex 51 -1 15
    endloop
  endfacet
  facet normal 0 0 1
    outer loop
      vertex 0 15 15
      vertex 51.1564 15.9877 15
      vertex 51 16 15
    endloop
  endfacet
  facet normal 0 0 1
    outer loop
      vertex 0 15 15
      vertex 51.309 15.9511 15
      vertex 51.1564 15.9877 15
    endloop
  endfacet
  facet normal 0 0 1
    outer loop
      vertex 0 15 15
      vertex 51.454 15.891 15
      vertex 51.309 15.9511 15
    endloop
  endfacet
  facet normal 0 0 1
    outer loop
      vertex 0 15 15
      vertex 51.5878 15.809 15
      vertex 51.454 15.891 15
    endloop
  endfacet
  facet normal 0 0 1
    outer loop
      vertex 0 15 15
      vertex 51.7071 15.7071 15
      vertex 51.5878 15.809 15
    endloop
  endfacet
  facet normal 0 0 1
    outer loop
      vertex 0 15 15
      vertex 51.809 15.5878 15
      vertex 51.7071 15.7071 15
    endloop
  endfacet
  facet normal 0 0 1
    outer loop
      vertex 0 15 15
      vertex 51.891 15.454 15
      vertex 51.809 15.5878 15
    endloop
  endfacet
  facet normal 0 0 1
    outer loop
      vertex 0 15 15
      vertex 51.9511 15.309 15
      vertex 51.891 15.454 15
    endloop
  endfacet
  facet normal 0 0 1
    outer loop
      vertex 0 15 15
      vertex 51.9877 15.1564 15
      vertex 51.9511 15.309 15
    endloop
  endfacet
  facet normal 0 0 1
    outer loop
      vertex 0 15 15
      vertex 51 15 15
      vertex 51.9877 15.1564 15
    endloop
  endfacet
  facet normal 0 -0 1
    outer loop
      vertex -1 15 15
      vertex -1 12 15
      vertex -0.987688 15.1564 15
    endloop
  endfacet
  facet normal 0 -0 1
    outer loop
      vertex 0 16 15
      vertex 0 15 15
      vertex 51 16 15
    endloop
  endfacet
  facet normal 0 -0 1
    outer loop
      vertex 51.9877 15.1564 15
      vertex 51 15 15
      vertex 52 15 15
    endloop
  endfacet
  facet normal 0 0 1
    outer loop
      vertex 52 15 15
      vertex 51 3 15
      vertex 52 0 15
    endloop
  endfacet
  facet normal 0 -0 1
    outer loop
      vertex 51 3 15
      vertex 50 3 15
      vertex 52 0 15
    endloop
  endfacet
  facet normal -0 0 1
    outer loop
      vertex 51.9511 -0.309017 15
      vertex 50 0 15
      vertex 51.891 -0.45399 15
    endloop
  endfacet
  facet normal -0 0 1
    outer loop
      vertex 51 -1 15
      vertex 1 0 15
      vertex 0 -1 15
    endloop
  endfacet
  facet normal 0 0 1
    outer loop
      vertex 1 3 15
      vertex 0 3 15
      vertex 1 0 15
    endloop
  endfacet
  facet normal -0 0 1
    outer loop
      vertex 1 0 15
      vertex 0 3 15
      vertex 0 -1 15
    endloop
  endfacet
  facet normal 0 0 1
    outer loop
      vertex 50 3 15
      vertex 51.9877 -0.156434 15
      vertex 52 0 15
    endloop
  endfacet
  facet normal 0 0 1
    outer loop
      vertex -1 12 15
      vertex -0.951057 15.309 15
      vertex -0.987688 15.1564 15
    endloop
  endfacet
  facet normal 0 0 1
    outer loop
      vertex -1 12 15
      vertex -0.891007 15.454 15
      vertex -0.951057 15.309 15
    endloop
  endfacet
  facet normal 0 0 1
    outer loop
      vertex -1 12 15
      vertex -0.809017 15.5878 15
      vertex -0.891007 15.454 15
    endloop
  endfacet
  facet normal 0 0 1
    outer loop
      vertex -1 12 15
      vertex -0.707107 15.7071 15
      vertex -0.809017 15.5878 15
    endloop
  endfacet
  facet normal 0 0 1
    outer loop
      vertex -1 12 15
      vertex -0.587785 15.809 15
      vertex -0.707107 15.7071 15
    endloop
  endfacet
  facet normal 0 0 1
    outer loop
      vertex -1 12 15
      vertex -0.45399 15.891 15
      vertex -0.587785 15.809 15
    endloop
  endfacet
  facet normal 0 0 1
    outer loop
      vertex -1 12 15
      vertex -0.309017 15.9511 15
      vertex -0.45399 15.891 15
    endloop
  endfacet
  facet normal 0 0 1
    outer loop
      vertex -1 12 15
      vertex -0.156434 15.9877 15
      vertex -0.309017 15.9511 15
    endloop
  endfacet
  facet normal 0 0 1
    outer loop
      vertex -1 12 15
      vertex 0 16 15
      vertex -0.156434 15.9877 15
    endloop
  endfacet
  facet normal 0 0 1
    outer loop
      vertex -1 12 15
      vertex 0 15 15
      vertex 0 16 15
    endloop
  endfacet
  facet normal 0 0 1
    outer loop
      vertex -1 12 15
      vertex 0 12 15
      vertex 0 15 15
    endloop
  endfacet
  facet normal 0 -1 0
    outer loop
      vertex 0 12 1
      vertex 0 12 15
      vertex -1 12 15
    endloop
  endfacet
  facet normal -0 -1 -0
    outer loop
      vertex -1 12 1
      vertex 0 12 1
      vertex -1 12 15
    endloop
  endfacet
  facet normal 0 0 1
    outer loop
      vertex 50 3 1
      vertex 51 3 1
      vertex 0 9 1
    endloop
  endfacet
  facet normal 0 -0 1
    outer loop
      vertex 0 9 1
      vertex 0 3 1
      vertex 1 3 1
    endloop
  endfacet
  facet normal 0 0 1
    outer loop
      vertex 50 0 1
      vertex 0 9 1
      vertex 1 3 1
    endloop
  endfacet
  facet normal 0 0 1
    outer loop
      vertex 1 0 1
      vertex 50 0 1
      vertex 1 3 1
    endloop
  endfacet
  facet normal 0 0 1
    outer loop
      vertex 50 0 1
      vertex 50 3 1
      vertex 0 9 1
    endloop
  endfacet
  facet normal 0 0 1
    outer loop
      vertex 0 12 1
      vertex -1 12 1
      vertex 0 9 1
    endloop
  endfacet
  facet normal 0 0 1
    outer loop
      vertex 51 3 1
      vertex 51 15 1
      vertex 0 9 1
    endloop
  endfacet
  facet normal 0 0 1
    outer loop
      vertex 51 15 1
      vertex 0 12 1
      vertex 0 9 1
    endloop
  endfacet
  facet normal 0 0 1
    outer loop
      vertex 51 15 1
      vertex 0 15 1
      vertex 0 12 1
    endloop
  endfacet
  facet normal 0 0 1
    outer loop
      vertex -1 9 1
      vertex 0 9 1
      vertex -1 12 1
    endloop
  endfacet
  facet normal 0 1 0
    outer loop
      vertex 0 9 15
      vertex 0 9 1
      vertex -1 9 15
    endloop
  endfacet
  facet normal 0 1 -0
    outer loop
      vertex -1 9 15
      vertex 0 9 1
      vertex -1 9 1
    endloop
  endfacet
  facet normal -0.972371 -0.23344 -0
    outer loop
      vertex -0.987688 -0.156434 0
      vertex -0.951057 -0.309017 0
      vertex -0.987688 -0.156434 15
    endloop
  endfacet
  facet normal -0.972371 -0.23344 0
    outer loop
      vertex -0.987688 -0.156434 15
      vertex -0.951057 -0.309017 0
      vertex -0.951057 -0.309017 15
    endloop
  endfacet
  facet normal -0.923879 -0.382685 -0
    outer loop
      vertex -0.951057 -0.309017 0
      vertex -0.891007 -0.45399 0
      vertex -0.951057 -0.309017 15
    endloop
  endfacet
  facet normal -0.923879 -0.382685 0
    outer loop
      vertex -0.951057 -0.309017 15
      vertex -0.891007 -0.45399 0
      vertex -0.891007 -0.45399 15
    endloop
  endfacet
  facet normal -0.852639 -0.5225 -0
    outer loop
      vertex -0.891007 -0.45399 0
      vertex -0.809017 -0.587785 0
      vertex -0.891007 -0.45399 15
    endloop
  endfacet
  facet normal -0.852639 -0.5225 0
    outer loop
      vertex -0.891007 -0.45399 15
      vertex -0.809017 -0.587785 0
      vertex -0.809017 -0.587785 15
    endloop
  endfacet
  facet normal -0.760408 -0.649446 -0
    outer loop
      vertex -0.809017 -0.587785 0
      vertex -0.707107 -0.707107 0
      vertex -0.809017 -0.587785 15
    endloop
  endfacet
  facet normal -0.760408 -0.649446 0
    outer loop
      vertex -0.809017 -0.587785 15
      vertex -0.707107 -0.707107 0
      vertex -0.707107 -0.707107 15
    endloop
  endfacet
  facet normal -0.649446 -0.760408 0
    outer loop
      vertex -0.707107 -0.707107 15
      vertex -0.707107 -0.707107 0
      vertex -0.587785 -0.809017 0
    endloop
  endfacet
  facet normal -0.649446 -0.760408 0
    outer loop
      vertex -0.587785 -0.809017 15
      vertex -0.707107 -0.707107 15
      vertex -0.587785 -0.809017 0
    endloop
  endfacet
  facet normal -0.5225 -0.852639 0
    outer loop
      vertex -0.587785 -0.809017 15
      vertex -0.587785 -0.809017 0
      vertex -0.45399 -0.891007 0
    endloop
  endfacet
  facet normal -0.5225 -0.852639 0
    outer loop
      vertex -0.45399 -0.891007 15
      vertex -0.587785 -0.809017 15
      vertex -0.45399 -0.891007 0
    endloop
  endfacet
  facet normal -0.382685 -0.923879 0
    outer loop
      vertex -0.45399 -0.891007 15
      vertex -0.45399 -0.891007 0
      vertex -0.309017 -0.951057 0
    endloop
  endfacet
  facet normal -0.382685 -0.923879 0
    outer loop
      vertex -0.309017 -0.951057 15
      vertex -0.45399 -0.891007 15
      vertex -0.309017 -0.951057 0
    endloop
  endfacet
  facet normal -0.23344 -0.972371 0
    outer loop
      vertex -0.309017 -0.951057 15
      vertex -0.309017 -0.951057 0
      vertex -0.156434 -0.987688 0
    endloop
  endfacet
  facet normal -0.23344 -0.972371 0
    outer loop
      vertex -0.156434 -0.987688 15
      vertex -0.309017 -0.951057 15
      vertex -0.156434 -0.987688 0
    endloop
  endfacet
  facet normal -0.0784615 -0.996917 0
    outer loop
      vertex -0.156434 -0.987688 15
      vertex -0.156434 -0.987688 0
      vertex 0 -1 0
    endloop
  endfacet
  facet normal -0.0784615 -0.996917 0
    outer loop
      vertex 0 -1 15
      vertex -0.156434 -0.987688 15
      vertex 0 -1 0
    endloop
  endfacet
  facet normal 0 -1 0
    outer loop
      vertex 0 -1 15
      vertex 0 -1 0
      vertex 51 -1 0
    endloop
  endfacet
  facet normal 0 -1 0
    outer loop
      vertex 51 -1 15
      vertex 0 -1 15
      vertex 51 -1 0
    endloop
  endfacet
  facet normal 0.0784615 -0.996917 0
    outer loop
      vertex 51 -1 15
      vertex 51 -1 0
      vertex 51.1564 -0.987688 0
    endloop
  endfacet
  facet normal 0.0784615 -0.996917 0
    outer loop
      vertex 51.1564 -0.987688 15
      vertex 51 -1 15
      vertex 51.1564 -0.987688 0
    endloop
  endfacet
  facet normal 0.23344 -0.972371 0
    outer loop
      vertex 51.1564 -0.987688 15
      vertex 51.1564 -0.987688 0
      vertex 51.309 -0.951057 0
    endloop
  endfacet
  facet normal 0.23344 -0.972371 0
    outer loop
      vertex 51.309 -0.951057 15
      vertex 51.1564 -0.987688 15
      vertex 51.309 -0.951057 0
    endloop
  endfacet
  facet normal 0.382685 -0.923879 0
    outer loop
      vertex 51.309 -0.951057 15
      vertex 51.309 -0.951057 0
      vertex 51.454 -0.891007 0
    endloop
  endfacet
  facet normal 0.382685 -0.923879 0
    outer loop
      vertex 51.454 -0.891007 15
      vertex 51.309 -0.951057 15
      vertex 51.454 -0.891007 0
    endloop
  endfacet
  facet normal 0.5225 -0.852639 0
    outer loop
      vertex 51.454 -0.891007 15
      vertex 51.454 -0.891007 0
      vertex 51.5878 -0.809017 0
    endloop
  endfacet
  facet normal 0.5225 -0.852639 0
    outer loop
      vertex 51.5878 -0.809017 15
      vertex 51.454 -0.891007 15
      vertex 51.5878 -0.809017 0
    endloop
  endfacet
  facet normal 0.649446 -0.760408 0
    outer loop
      vertex 51.5878 -0.809017 15
      vertex 51.5878 -0.809017 0
      vertex 51.7071 -0.707107 0
    endloop
  endfacet
  facet normal 0.649446 -0.760408 0
    outer loop
      vertex 51.7071 -0.707107 15
      vertex 51.5878 -0.809017 15
      vertex 51.7071 -0.707107 0
    endloop
  endfacet
  facet normal 0.760408 -0.649446 0
    outer loop
      vertex 51.7071 -0.707107 15
      vertex 51.7071 -0.707107 0
      vertex 51.809 -0.587785 0
    endloop
  endfacet
  facet normal 0.760408 -0.649446 0
    outer loop
      vertex 51.809 -0.587785 15
      vertex 51.7071 -0.707107 15
      vertex 51.809 -0.587785 0
    endloop
  endfacet
  facet normal 0.852639 -0.5225 0
    outer loop
      vertex 51.809 -0.587785 15
      vertex 51.809 -0.587785 0
      vertex 51.891 -0.45399 0
    endloop
  endfacet
  facet normal 0.852639 -0.5225 0
    outer loop
      vertex 51.891 -0.45399 15
      vertex 51.809 -0.587785 15
      vertex 51.891 -0.45399 0
    endloop
  endfacet
  facet normal 0.923879 -0.382685 0
    outer loop
      vertex 51.891 -0.45399 15
      vertex 51.891 -0.45399 0
      vertex 51.9511 -0.309017 0
    endloop
  endfacet
  facet normal 0.923879 -0.382685 0
    outer loop
      vertex 51.9511 -0.309017 15
      vertex 51.891 -0.45399 15
      vertex 51.9511 -0.309017 0
    endloop
  endfacet
  facet normal 0.972371 -0.23344 0
    outer loop
      vertex 51.9511 -0.309017 15
      vertex 51.9511 -0.309017 0
      vertex 51.9877 -0.156434 0
    endloop
  endfacet
  facet normal 0.972371 -0.23344 0
    outer loop
      vertex 51.9877 -0.156434 15
      vertex 51.9511 -0.309017 15
      vertex 51.9877 -0.156434 0
    endloop
  endfacet
  facet normal 0.996917 -0.0784615 0
    outer loop
      vertex 51.9877 -0.156434 15
      vertex 51.9877 -0.156434 0
      vertex 52 0 0
    endloop
  endfacet
  facet normal 0.996917 -0.0784615 0
    outer loop
      vertex 52 0 15
      vertex 51.9877 -0.156434 15
      vertex 52 0 0
    endloop
  endfacet
  facet normal 1 0 -0
    outer loop
      vertex 52 0 15
      vertex 52 0 0
      vertex 52 15 0
    endloop
  endfacet
  facet normal 1 0 0
    outer loop
      vertex 52 15 15
      vertex 52 0 15
      vertex 52 15 0
    endloop
  endfacet
  facet normal 0.996917 0.0784615 0
    outer loop
      vertex 52 15 0
      vertex 51.9877 15.1564 0
      vertex 51.9877 15.1564 15
    endloop
  endfacet
  facet normal 0.996917 0.0784615 -0
    outer loop
      vertex 52 15 15
      vertex 52 15 0
      vertex 51.9877 15.1564 15
    endloop
  endfacet
  facet normal 0.972371 0.23344 0
    outer loop
      vertex 51.9877 15.1564 0
      vertex 51.9511 15.309 0
      vertex 51.9511 15.309 15
    endloop
  endfacet
  facet normal 0.972371 0.23344 -0
    outer loop
      vertex 51.9877 15.1564 15
      vertex 51.9877 15.1564 0
      vertex 51.9511 15.309 15
    endloop
  endfacet
  facet normal 0.923879 0.382685 0
    outer loop
      vertex 51.9511 15.309 0
      vertex 51.891 15.454 0
      vertex 51.891 15.454 15
    endloop
  endfacet
  facet normal 0.923879 0.382685 -0
    outer loop
      vertex 51.9511 15.309 15
      vertex 51.9511 15.309 0
      vertex 51.891 15.454 15
    endloop
  endfacet
  facet normal 0.852639 0.5225 0
    outer loop
      vertex 51.891 15.454 0
      vertex 51.809 15.5878 0
      vertex 51.809 15.5878 15
    endloop
  endfacet
  facet normal 0.852639 0.5225 -0
    outer loop
      vertex 51.891 15.454 15
      vertex 51.891 15.454 0
      vertex 51.809 15.5878 15
    endloop
  endfacet
  facet normal 0.760408 0.649446 0
    outer loop
      vertex 51.809 15.5878 0
      vertex 51.7071 15.7071 0
      vertex 51.7071 15.7071 15
    endloop
  endfacet
  facet normal 0.760408 0.649446 -0
    outer loop
      vertex 51.809 15.5878 15
      vertex 51.809 15.5878 0
      vertex 51.7071 15.7071 15
    endloop
  endfacet
  facet normal 0.649446 0.760408 0
    outer loop
      vertex 51.5878 15.809 0
      vertex 51.5878 15.809 15
      vertex 51.7071 15.7071 0
    endloop
  endfacet
  facet normal 0.649446 0.760408 0
    outer loop
      vertex 51.7071 15.7071 0
      vertex 51.5878 15.809 15
      vertex 51.7071 15.7071 15
    endloop
  endfacet
  facet normal 0.5225 0.852639 0
    outer loop
      vertex 51.454 15.891 0
      vertex 51.454 15.891 15
      vertex 51.5878 15.809 0
    endloop
  endfacet
  facet normal 0.5225 0.852639 0
    outer loop
      vertex 51.5878 15.809 0
      vertex 51.454 15.891 15
      vertex 51.5878 15.809 15
    endloop
  endfacet
  facet normal 0.382685 0.923879 0
    outer loop
      vertex 51.309 15.9511 0
      vertex 51.309 15.9511 15
      vertex 51.454 15.891 0
    endloop
  endfacet
  facet normal 0.382685 0.923879 0
    outer loop
      vertex 51.454 15.891 0
      vertex 51.309 15.9511 15
      vertex 51.454 15.891 15
    endloop
  endfacet
  facet normal 0.23344 0.972371 0
    outer loop
      vertex 51.1564 15.9877 0
      vertex 51.1564 15.9877 15
      vertex 51.309 15.9511 0
    endloop
  endfacet
  facet normal 0.23344 0.972371 0
    outer loop
      vertex 51.309 15.9511 0
      vertex 51.1564 15.9877 15
      vertex 51.309 15.9511 15
    endloop
  endfacet
  facet normal 0.0784615 0.996917 0
    outer loop
      vertex 51 16 0
      vertex 51 16 15
      vertex 51.1564 15.9877 0
    endloop
  endfacet
  facet normal 0.0784615 0.996917 0
    outer loop
      vertex 51.1564 15.9877 0
      vertex 51 16 15
      vertex 51.1564 15.9877 15
    endloop
  endfacet
  facet normal 0 1 0
    outer loop
      vertex 0 16 0
      vertex 0 16 15
      vertex 51 16 0
    endloop
  endfacet
  facet normal 0 1 0
    outer loop
      vertex 25 16 11
      vertex 0 16 15
      vertex 51 16 15
    endloop
  endfacet
  facet normal 0 1 0
    outer loop
      vertex 25 16 8
      vertex 0 16 15
      vertex 25 16 11
    endloop
  endfacet
  facet normal -0 1 0
    outer loop
      vertex 36 16 11
      vertex 25 16 11
      vertex 51 16 15
    endloop
  endfacet
  facet normal 0 1 0
    outer loop
      vertex 51 16 0
      vertex 0 16 15
      vertex 25 16 8
    endloop
  endfacet
  facet normal -0 1 -0
    outer loop
      vertex 47 16 4.5
      vertex 51 16 0
      vertex 45.9393 16 4.93934
    endloop
  endfacet
  facet normal 0 1 0
    outer loop
      vertex 45.9393 16 7.06066
      vertex 36 16 8
      vertex 51 16 15
    endloop
  endfacet
  facet normal 0 1 0
    outer loop
      vertex 36 16 8
      vertex 36 16 11
      vertex 51 16 15
    endloop
  endfacet
  facet normal 0 1 0
    outer loop
      vertex 45.9393 16 4.93934
      vertex 36 16 8
      vertex 45.5 16 6
    endloop
  endfacet
  facet normal 0 1 0
    outer loop
      vertex 51 16 0
      vertex 36 16 8
      vertex 45.9393 16 4.93934
    endloop
  endfacet
  facet normal 0 1 0
    outer loop
      vertex 48.0607 16 7.06066
      vertex 51 16 15
      vertex 48.5 16 6
    endloop
  endfacet
  facet normal 0 1 0
    outer loop
      vertex 51 16 0
      vertex 47 16 4.5
      vertex 48.0607 16 4.93934
    endloop
  endfacet
  facet normal 0 1 0
    outer loop
      vertex 51 16 0
      vertex 48.0607 16 4.93934
      vertex 48.5 16 6
    endloop
  endfacet
  facet normal 0 1 0
    outer loop
      vertex 51 16 0
      vertex 48.5 16 6
      vertex 51 16 15
    endloop
  endfacet
  facet normal 0 1 0
    outer loop
      vertex 47 16 7.5
      vertex 51 16 15
      vertex 48.0607 16 7.06066
    endloop
  endfacet
  facet normal 0 1 0
    outer loop
      vertex 45.9393 16 7.06066
      vertex 51 16 15
      vertex 47 16 7.5
    endloop
  endfacet
  facet normal 0 1 0
    outer loop
      vertex 45.5 16 6
      vertex 36 16 8
      vertex 45.9393 16 7.06066
    endloop
  endfacet
  facet normal 0 1 -0
    outer loop
      vertex 36 16 8
      vertex 51 16 0
      vertex 25 16 8
    endloop
  endfacet
  facet normal -0.0784615 0.996917 0
    outer loop
      vertex -0.156434 15.9877 0
      vertex -0.156434 15.9877 15
      vertex 0 16 0
    endloop
  endfacet
  facet normal -0.0784615 0.996917 0
    outer loop
      vertex 0 16 0
      vertex -0.156434 15.9877 15
      vertex 0 16 15
    endloop
  endfacet
  facet normal -0.23344 0.972371 0
    outer loop
      vertex -0.309017 15.9511 0
      vertex -0.309017 15.9511 15
      vertex -0.156434 15.9877 0
    endloop
  endfacet
  facet normal -0.23344 0.972371 0
    outer loop
      vertex -0.156434 15.9877 0
      vertex -0.309017 15.9511 15
      vertex -0.156434 15.9877 15
    endloop
  endfacet
  facet normal -0.382685 0.923879 0
    outer loop
      vertex -0.45399 15.891 0
      vertex -0.45399 15.891 15
      vertex -0.309017 15.9511 0
    endloop
  endfacet
  facet normal -0.382685 0.923879 0
    outer loop
      vertex -0.309017 15.9511 0
      vertex -0.45399 15.891 15
      vertex -0.309017 15.9511 15
    endloop
  endfacet
  facet normal -0.5225 0.852639 0
    outer loop
      vertex -0.587785 15.809 0
      vertex -0.587785 15.809 15
      vertex -0.45399 15.891 0
    endloop
  endfacet
  facet normal -0.5225 0.852639 0
    outer loop
      vertex -0.45399 15.891 0
      vertex -0.587785 15.809 15
      vertex -0.45399 15.891 15
    endloop
  endfacet
  facet normal -0.649446 0.760408 0
    outer loop
      vertex -0.707107 15.7071 0
      vertex -0.707107 15.7071 15
      vertex -0.587785 15.809 0
    endloop
  endfacet
  facet normal -0.649446 0.760408 0
    outer loop
      vertex -0.587785 15.809 0
      vertex -0.707107 15.7071 15
      vertex -0.587785 15.809 15
    endloop
  endfacet
  facet normal -0.760408 0.649446 0
    outer loop
      vertex -0.809017 15.5878 0
      vertex -0.809017 15.5878 15
      vertex -0.707107 15.7071 0
    endloop
  endfacet
  facet normal -0.760408 0.649446 0
    outer loop
      vertex -0.707107 15.7071 0
      vertex -0.809017 15.5878 15
      vertex -0.707107 15.7071 15
    endloop
  endfacet
  facet normal -0.852639 0.5225 0
    outer loop
      vertex -0.891007 15.454 0
      vertex -0.891007 15.454 15
      vertex -0.809017 15.5878 0
    endloop
  endfacet
  facet normal -0.852639 0.5225 0
    outer loop
      vertex -0.809017 15.5878 0
      vertex -0.891007 15.454 15
      vertex -0.809017 15.5878 15
    endloop
  endfacet
  facet normal -0.923879 0.382685 0
    outer loop
      vertex -0.951057 15.309 0
      vertex -0.951057 15.309 15
      vertex -0.891007 15.454 0
    endloop
  endfacet
  facet normal -0.923879 0.382685 0
    outer loop
      vertex -0.891007 15.454 0
      vertex -0.951057 15.309 15
      vertex -0.891007 15.454 15
    endloop
  endfacet
  facet normal -0.972371 0.23344 0
    outer loop
      vertex -0.987688 15.1564 0
      vertex -0.987688 15.1564 15
      vertex -0.951057 15.309 0
    endloop
  endfacet
  facet normal -0.972371 0.23344 0
    outer loop
      vertex -0.951057 15.309 0
      vertex -0.987688 15.1564 15
      vertex -0.951057 15.309 15
    endloop
  endfacet
  facet normal 1 0 0
    outer loop
      vertex 0 9 1
      vertex 0 9 15
      vertex 0 3 15
    endloop
  endfacet
  facet normal 1 0 0
    outer loop
      vertex 0 3 1
      vertex 0 9 1
      vertex 0 3 15
    endloop
  endfacet
  facet normal 0 1 0
    outer loop
      vertex 0 3 1
      vertex 0 3 15
      vertex 1 3 1
    endloop
  endfacet
  facet normal 0 1 0
    outer loop
      vertex 1 3 1
      vertex 0 3 15
      vertex 1 3 15
    endloop
  endfacet
  facet normal 1 0 -0
    outer loop
      vertex 1 0 15
      vertex 1 0 1
      vertex 1 3 1
    endloop
  endfacet
  facet normal 1 0 0
    outer loop
      vertex 1 3 15
      vertex 1 0 15
      vertex 1 3 1
    endloop
  endfacet
  facet normal 0 1 0
    outer loop
      vertex 50 0 15
      vertex 50 0 1
      vertex 1 0 15
    endloop
  endfacet
  facet normal 0 1 -0
    outer loop
      vertex 1 0 15
      vertex 50 0 1
      vertex 1 0 1
    endloop
  endfacet
  facet normal -1 -0 -0
    outer loop
      vertex 50 0 1
      vertex 50 0 15
      vertex 50 3 1
    endloop
  endfacet
  facet normal -1 0 0
    outer loop
      vertex 50 3 1
      vertex 50 0 15
      vertex 50 3 15
    endloop
  endfacet
  facet normal 0 1 0
    outer loop
      vertex 50 3 1
      vertex 50 3 15
      vertex 51 3 1
    endloop
  endfacet
  facet normal 0 1 0
    outer loop
      vertex 51 3 1
      vertex 50 3 15
      vertex 51 3 15
    endloop
  endfacet
  facet normal -1 0 0
    outer loop
      vertex 51 15 15
      vertex 51 15 1
      vertex 51 3 15
    endloop
  endfacet
  facet normal -1 0 0
    outer loop
      vertex 51 3 15
      vertex 51 15 1
      vertex 51 3 1
    endloop
  endfacet
  facet normal 0 -1 -0
    outer loop
      vertex 25 15 11
      vertex 51 15 15
      vertex 0 15 15
    endloop
  endfacet
  facet normal 0 -1 0
    outer loop
      vertex 36 15 8
      vertex 25 15 8
      vertex 51 15 1
    endloop
  endfacet
  facet normal 0 -1 -0
    outer loop
      vertex 36 15 11
      vertex 51 15 15
      vertex 25 15 11
    endloop
  endfacet
  facet normal 0 -1 -0
    outer loop
      vertex 45.9393 15 7.06066
      vertex 51 15 15
      vertex 36 15 11
    endloop
  endfacet
  facet normal 0 -1 0
    outer loop
      vertex 45.9393 15 4.93934
      vertex 45.5 15 6
      vertex 36 15 11
    endloop
  endfacet
  facet normal 0 -1 0
    outer loop
      vertex 51 15 1
      vertex 36 15 11
      vertex 36 15 8
    endloop
  endfacet
  facet normal 0 -1 -0
    outer loop
      vertex 0 15 1
      vertex 25 15 8
      vertex 0 15 15
    endloop
  endfacet
  facet normal -0 -1 0
    outer loop
      vertex 0 15 1
      vertex 51 15 1
      vertex 25 15 8
    endloop
  endfacet
  facet normal 0 -1 -0
    outer loop
      vertex 45.5 15 6
      vertex 45.9393 15 7.06066
      vertex 36 15 11
    endloop
  endfacet
  facet normal 0 -1 0
    outer loop
      vertex 48.5 15 6
      vertex 48.0607 15 4.93934
      vertex 51 15 1
    endloop
  endfacet
  facet normal 0 -1 -0
    outer loop
      vertex 48.0607 15 7.06066
      vertex 51 15 15
      vertex 47 15 7.5
    endloop
  endfacet
  facet normal 0 -1 0
    outer loop
      vertex 51 15 1
      vertex 51 15 15
      vertex 48.0607 15 7.06066
    endloop
  endfacet
  facet normal 0 -1 0
    outer loop
      vertex 48.0607 15 4.93934
      vertex 47 15 4.5
      vertex 51 15 1
    endloop
  endfacet
  facet normal 0 -1 0
    outer loop
      vertex 51 15 1
      vertex 48.0607 15 7.06066
      vertex 48.5 15 6
    endloop
  endfacet
  facet normal 0 -1 0
    outer loop
      vertex 45.9393 15 7.06066
      vertex 47 15 7.5
      vertex 51 15 15
    endloop
  endfacet
  facet normal 0 -1 0
    outer loop
      vertex 51 15 1
      vertex 45.9393 15 4.93934
      vertex 36 15 11
    endloop
  endfacet
  facet normal 0 -1 0
    outer loop
      vertex 51 15 1
      vertex 47 15 4.5
      vertex 45.9393 15 4.93934
    endloop
  endfacet
  facet normal 0 -1 0
    outer loop
      vertex 25 15 8
      vertex 25 15 11
      vertex 0 15 15
    endloop
  endfacet
  facet normal 1 0 0
    outer loop
      vertex 0 15 1
      vertex 0 15 15
      vertex 0 12 15
    endloop
  endfacet
  facet normal 1 0 0
    outer loop
      vertex 0 12 1
      vertex 0 15 1
      vertex 0 12 15
    endloop
  endfacet
  facet normal 1 0 0
    outer loop
      vertex 25 16 8
      vertex 25 16 11
      vertex 25 15 11
    endloop
  endfacet
  facet normal 1 0 0
    outer loop
      vertex 25 15 8
      vertex 25 16 8
      vertex 25 15 11
    endloop
  endfacet
  facet normal 0 0 -1
    outer loop
      vertex 36 16 11
      vertex 36 15 11
      vertex 25 16 11
    endloop
  endfacet
  facet normal 0 0 -1
    outer loop
      vertex 25 16 11
      vertex 36 15 11
      vertex 25 15 11
    endloop
  endfacet
  facet normal -1 0 0
    outer loop
      vertex 36 16 11
      vertex 36 16 8
      vertex 36 15 11
    endloop
  endfacet
  facet normal -1 0 0
    outer loop
      vertex 36 15 11
      vertex 36 16 8
      vertex 36 15 8
    endloop
  endfacet
  facet normal 0 0 1
    outer loop
      vertex 36 15 8
      vertex 36 16 8
      vertex 25 16 8
    endloop
  endfacet
  facet normal 0 0 1
    outer loop
      vertex 25 15 8
      vertex 36 15 8
      vertex 25 16 8
    endloop
  endfacet
  facet normal 0.923879 0 0.382684
    outer loop
      vertex 45.9393 15 4.93934
      vertex 45.9393 16 4.93934
      vertex 45.5 16 6
    endloop
  endfacet
  facet normal 0.923879 0 0.382684
    outer loop
      vertex 45.5 15 6
      vertex 45.9393 15 4.93934
      vertex 45.5 16 6
    endloop
  endfacet
  facet normal 0.923879 0 -0.382684
    outer loop
      vertex 45.5 16 6
      vertex 45.9393 16 7.06066
      vertex 45.9393 15 7.06066
    endloop
  endfacet
  facet normal 0.923879 0 -0.382684
    outer loop
      vertex 45.5 15 6
      vertex 45.5 16 6
      vertex 45.9393 15 7.06066
    endloop
  endfacet
  facet normal 0.382684 0 -0.923879
    outer loop
      vertex 47 16 7.5
      vertex 47 15 7.5
      vertex 45.9393 16 7.06066
    endloop
  endfacet
  facet normal 0.382684 0 -0.923879
    outer loop
      vertex 45.9393 16 7.06066
      vertex 47 15 7.5
      vertex 45.9393 15 7.06066
    endloop
  endfacet
  facet normal -0.382684 0 -0.923879
    outer loop
      vertex 48.0607 16 7.06066
      vertex 48.0607 15 7.06066
      vertex 47 16 7.5
    endloop
  endfacet
  facet normal -0.382684 0 -0.923879
    outer loop
      vertex 47 16 7.5
      vertex 48.0607 15 7.06066
      vertex 47 15 7.5
    endloop
  endfacet
  facet normal -0.923879 0 -0.382684
    outer loop
      vertex 48.5 16 6
      vertex 48.5 15 6
      vertex 48.0607 16 7.06066
    endloop
  endfacet
  facet normal -0.923879 0 -0.382684
    outer loop
      vertex 48.0607 16 7.06066
      vertex 48.5 15 6
      vertex 48.0607 15 7.06066
    endloop
  endfacet
  facet normal -0.923879 0 0.382684
    outer loop
      vertex 48.5 16 6
      vertex 48.0607 16 4.93934
      vertex 48.5 15 6
    endloop
  endfacet
  facet normal -0.923879 0 0.382684
    outer loop
      vertex 48.5 15 6
      vertex 48.0607 16 4.93934
      vertex 48.0607 15 4.93934
    endloop
  endfacet
  facet normal -0.382684 0 0.923879
    outer loop
      vertex 48.0607 15 4.93934
      vertex 48.0607 16 4.93934
      vertex 47 16 4.5
    endloop
  endfacet
  facet normal -0.382684 0 0.923879
    outer loop
      vertex 47 15 4.5
      vertex 48.0607 15 4.93934
      vertex 47 16 4.5
    endloop
  endfacet
  facet normal 0.382684 0 0.923879
    outer loop
      vertex 47 15 4.5
      vertex 47 16 4.5
      vertex 45.9393 16 4.93934
    endloop
  endfacet
  facet normal 0.382684 0 0.923879
    outer loop
      vertex 45.9393 15 4.93934
      vertex 47 15 4.5
      vertex 45.9393 16 4.93934
    endloop
  endfacet
endsolid OpenSCAD_Model
