solid OpenSCAD_Model
  facet normal -0 0 -1
    outer loop
      vertex -15 0 0
      vertex -14.6722 3.11868 0
      vertex -14.6722 -3.11868 0
    endloop
  endfacet
  facet normal 0 -0 -1
    outer loop
      vertex -14.6722 -3.11868 0
      vertex -14.6722 3.11868 0
      vertex -13.7032 6.10105 0
    endloop
  endfacet
  facet normal 0 0 -1
    outer loop
      vertex -14.6722 -3.11868 0
      vertex -13.7032 6.10105 0
      vertex -12.1353 8.81678 0
    endloop
  endfacet
  facet normal 0 0 -1
    outer loop
      vertex -14.6722 -3.11868 0
      vertex -12.1353 8.81678 0
      vertex -10.037 11.1472 0
    endloop
  endfacet
  facet normal 0 0 -1
    outer loop
      vertex -14.6722 -3.11868 0
      vertex -10.037 11.1472 0
      vertex -7.5 12.9904 0
    endloop
  endfacet
  facet normal -0 -0 -1
    outer loop
      vertex -9 66 0
      vertex -9 68.25 0
      vertex -7.5 66 0
    endloop
  endfacet
  facet normal 0 0 -1
    outer loop
      vertex -7.5 66 0
      vertex -9 68.25 0
      vertex -7.5 68.25 0
    endloop
  endfacet
  facet normal -0 0 -1
    outer loop
      vertex -7.5 66 0
      vertex -4.5 78 0
      vertex -7.5 12.9904 0
    endloop
  endfacet
  facet normal -0 0 -1
    outer loop
      vertex -7.5 68.25 0
      vertex -4.5 78 0
      vertex -7.5 66 0
    endloop
  endfacet
  facet normal 0 0 -1
    outer loop
      vertex -7.5 70.5 0
      vertex -12 70.5 0
      vertex -12 72.75 0
    endloop
  endfacet
  facet normal -0 -0 -1
    outer loop
      vertex -12 72.75 0
      vertex -15 75 0
      vertex -7.5 70.5 0
    endloop
  endfacet
  facet normal 0 0 -1
    outer loop
      vertex -9 75 0
      vertex -7.5 70.5 0
      vertex -9 72.75 0
    endloop
  endfacet
  facet normal 0 0 -1
    outer loop
      vertex -12.75 72.75 0
      vertex -15 70.5 0
      vertex -15 75 0
    endloop
  endfacet
  facet normal -0 -0 -1
    outer loop
      vertex -12.75 72.75 0
      vertex -15 75 0
      vertex -12 72.75 0
    endloop
  endfacet
  facet normal 0 0 -1
    outer loop
      vertex -9.75 72.75 0
      vertex -15 75 0
      vertex -9.75 75 0
    endloop
  endfacet
  facet normal 0 0 -1
    outer loop
      vertex -7.5 70.5 0
      vertex -15 75 0
      vertex -9.75 72.75 0
    endloop
  endfacet
  facet normal 0 0 -1
    outer loop
      vertex -7.5 70.5 0
      vertex -9.75 72.75 0
      vertex -9 72.75 0
    endloop
  endfacet
  facet normal -0 0 -1
    outer loop
      vertex 15 68.25 0
      vertex 17.25 70.5 0
      vertex 17.25 68.25 0
    endloop
  endfacet
  facet normal 0 0 -1
    outer loop
      vertex -7.5 70.5 0
      vertex -9 75 0
      vertex -7.5 75 0
    endloop
  endfacet
  facet normal -0 0 -1
    outer loop
      vertex -7.5 70.5 0
      vertex -4.5 78 0
      vertex -7.5 68.25 0
    endloop
  endfacet
  facet normal 0 -0 -1
    outer loop
      vertex -7.5 75 0
      vertex -7.5 78 0
      vertex -4.5 78 0
    endloop
  endfacet
  facet normal -0 0 -1
    outer loop
      vertex -7.5 75 0
      vertex -4.5 78 0
      vertex -7.5 70.5 0
    endloop
  endfacet
  facet normal 0 0 -1
    outer loop
      vertex -7.5 12.9904 0
      vertex -4.5 78 0
      vertex -4.5 24 0
    endloop
  endfacet
  facet normal 0 -0 -1
    outer loop
      vertex -4.5 21 0
      vertex -4.5 24 0
      vertex 4.5 24 0
    endloop
  endfacet
  facet normal -0 0 -1
    outer loop
      vertex 2.91171 10.8667 0
      vertex 7.5 12.9904 0
      vertex 5.625 9.74279 0
    endloop
  endfacet
  facet normal 0 -0 -1
    outer loop
      vertex 4.5 24 0
      vertex 4.5 72 0
      vertex 7.5 72 0
    endloop
  endfacet
  facet normal 0 0 -1
    outer loop
      vertex 4.5 24 0
      vertex 7.5 72 0
      vertex 7.5 66 0
    endloop
  endfacet
  facet normal 0 -0 -1
    outer loop
      vertex 7.5 60 0
      vertex 7.5 66 0
      vertex 9.75 66 0
    endloop
  endfacet
  facet normal 0 -0 -1
    outer loop
      vertex 9.75 66 0
      vertex 9.75 70.5 0
      vertex 17.25 70.5 0
    endloop
  endfacet
  facet normal 0 0 -1
    outer loop
      vertex 17.25 66.75 0
      vertex 15 64.5 0
      vertex 15 66.75 0
    endloop
  endfacet
  facet normal -0 0 -1
    outer loop
      vertex 12 60 0
      vertex 17.25 62.25 0
      vertex 17.25 60 0
    endloop
  endfacet
  facet normal 0 0 -1
    outer loop
      vertex 9.75 66 0
      vertex 17.25 70.5 0
      vertex 15 68.25 0
    endloop
  endfacet
  facet normal 0 0 -1
    outer loop
      vertex 10.5 60 0
      vertex 9.75 66 0
      vertex 10.5 64.5 0
    endloop
  endfacet
  facet normal -0 0 -1
    outer loop
      vertex 15 64.5 0
      vertex 17.25 66.75 0
      vertex 17.25 64.5 0
    endloop
  endfacet
  facet normal 0 0 -1
    outer loop
      vertex 12 60 0
      vertex 15 64.5 0
      vertex 15 62.25 0
    endloop
  endfacet
  facet normal -0 0 -1
    outer loop
      vertex 5.625 9.74279 0
      vertex 10.037 11.1472 0
      vertex 7.95495 7.95495 0
    endloop
  endfacet
  facet normal 0 0 -1
    outer loop
      vertex 12 60 0
      vertex 15 66.75 0
      vertex 15 64.5 0
    endloop
  endfacet
  facet normal 0 0 -1
    outer loop
      vertex 12 60 0
      vertex 15 68.25 0
      vertex 15 66.75 0
    endloop
  endfacet
  facet normal -0 0 -1
    outer loop
      vertex 12 64.5 0
      vertex 15 68.25 0
      vertex 12 60 0
    endloop
  endfacet
  facet normal 0 -0 -1
    outer loop
      vertex -10.8667 2.91171 0
      vertex -14.6722 -3.11868 0
      vertex -9.74279 5.625 0
    endloop
  endfacet
  facet normal -0 0 -1
    outer loop
      vertex 9.75 66 0
      vertex 15 68.25 0
      vertex 12 64.5 0
    endloop
  endfacet
  facet normal 0 0 -1
    outer loop
      vertex 9.75 66 0
      vertex 12 64.5 0
      vertex 10.5 64.5 0
    endloop
  endfacet
  facet normal -0 0 -1
    outer loop
      vertex 7.5 60 0
      vertex 9.75 66 0
      vertex 10.5 60 0
    endloop
  endfacet
  facet normal 0 0 -1
    outer loop
      vertex 4.5 24 0
      vertex 7.5 66 0
      vertex 7.5 60 0
    endloop
  endfacet
  facet normal 0 0 -1
    outer loop
      vertex 7.5 12.9904 0
      vertex 4.5 24 0
      vertex 7.5 60 0
    endloop
  endfacet
  facet normal 0 -0 -1
    outer loop
      vertex -11.25 0 0
      vertex -14.6722 -3.11868 0
      vertex -10.8667 2.91171 0
    endloop
  endfacet
  facet normal 0 0 -1
    outer loop
      vertex 7.95495 7.95495 0
      vertex 10.037 11.1472 0
      vertex 12.1353 8.81678 0
    endloop
  endfacet
  facet normal 0 0 -1
    outer loop
      vertex 9.74279 5.625 0
      vertex 12.1353 8.81678 0
      vertex 13.7032 6.10105 0
    endloop
  endfacet
  facet normal 0 0 -1
    outer loop
      vertex 10.8667 2.91171 0
      vertex 13.7032 6.10105 0
      vertex 14.6722 3.11868 0
    endloop
  endfacet
  facet normal -0 0 -1
    outer loop
      vertex 11.25 0 0
      vertex 14.6722 3.11868 0
      vertex 15 0 0
    endloop
  endfacet
  facet normal -0 0 -1
    outer loop
      vertex 10.8667 -2.91171 0
      vertex 15 0 0
      vertex 14.6722 -3.11868 0
    endloop
  endfacet
  facet normal -0 0 -1
    outer loop
      vertex 9.74279 -5.625 0
      vertex 14.6722 -3.11868 0
      vertex 13.7032 -6.10105 0
    endloop
  endfacet
  facet normal 0 0 -1
    outer loop
      vertex 7.95495 -7.95495 0
      vertex 12.1353 -8.81678 0
      vertex 10.037 -11.1472 0
    endloop
  endfacet
  facet normal 0 0 -1
    outer loop
      vertex 2.91171 -10.8667 0
      vertex 10.037 -11.1472 0
      vertex 7.5 -12.9904 0
    endloop
  endfacet
  facet normal 0 0 -1
    outer loop
      vertex 0 -11.25 0
      vertex 7.5 -12.9904 0
      vertex 4.63525 -14.2658 0
    endloop
  endfacet
  facet normal 0 0 -1
    outer loop
      vertex -2.91171 -10.8667 0
      vertex 4.63525 -14.2658 0
      vertex 1.56793 -14.9178 0
    endloop
  endfacet
  facet normal 0 0 -1
    outer loop
      vertex -5.625 -9.74279 0
      vertex 1.56793 -14.9178 0
      vertex -1.56793 -14.9178 0
    endloop
  endfacet
  facet normal 0 0 -1
    outer loop
      vertex -14.6722 -3.11868 0
      vertex -1.56793 -14.9178 0
      vertex -4.63525 -14.2658 0
    endloop
  endfacet
  facet normal 0 0 -1
    outer loop
      vertex -14.6722 -3.11868 0
      vertex -4.63525 -14.2658 0
      vertex -7.5 -12.9904 0
    endloop
  endfacet
  facet normal 0 0 -1
    outer loop
      vertex -14.6722 -3.11868 0
      vertex -7.5 -12.9904 0
      vertex -10.037 -11.1472 0
    endloop
  endfacet
  facet normal 0 0 -1
    outer loop
      vertex -14.6722 -3.11868 0
      vertex -10.037 -11.1472 0
      vertex -12.1353 -8.81678 0
    endloop
  endfacet
  facet normal 0 0 -1
    outer loop
      vertex -14.6722 -3.11868 0
      vertex -12.1353 -8.81678 0
      vertex -13.7032 -6.10105 0
    endloop
  endfacet
  facet normal 0 0 -1
    outer loop
      vertex -10.8667 -2.91171 0
      vertex -14.6722 -3.11868 0
      vertex -11.25 0 0
    endloop
  endfacet
  facet normal 0 0 -1
    outer loop
      vertex -9.74279 -5.625 0
      vertex -14.6722 -3.11868 0
      vertex -10.8667 -2.91171 0
    endloop
  endfacet
  facet normal 0 0 -1
    outer loop
      vertex -7.95495 -7.95495 0
      vertex -14.6722 -3.11868 0
      vertex -9.74279 -5.625 0
    endloop
  endfacet
  facet normal 0 0 -1
    outer loop
      vertex -5.625 -9.74279 0
      vertex -14.6722 -3.11868 0
      vertex -7.95495 -7.95495 0
    endloop
  endfacet
  facet normal 0 0 -1
    outer loop
      vertex -2.91171 -10.8667 0
      vertex 1.56793 -14.9178 0
      vertex -5.625 -9.74279 0
    endloop
  endfacet
  facet normal 0 0 -1
    outer loop
      vertex -14.6722 -3.11868 0
      vertex -5.625 -9.74279 0
      vertex -1.56793 -14.9178 0
    endloop
  endfacet
  facet normal 0 0 -1
    outer loop
      vertex 0 -11.25 0
      vertex 4.63525 -14.2658 0
      vertex -2.91171 -10.8667 0
    endloop
  endfacet
  facet normal 0 0 -1
    outer loop
      vertex 2.91171 -10.8667 0
      vertex 7.5 -12.9904 0
      vertex 0 -11.25 0
    endloop
  endfacet
  facet normal 0 0 -1
    outer loop
      vertex 5.625 -9.74279 0
      vertex 10.037 -11.1472 0
      vertex 2.91171 -10.8667 0
    endloop
  endfacet
  facet normal 0 0 -1
    outer loop
      vertex -1.56793 14.9178 0
      vertex -5.625 9.74279 0
      vertex -4.5 14.2946 0
    endloop
  endfacet
  facet normal 0 0 -1
    outer loop
      vertex 1.56793 14.9178 0
      vertex -2.91171 10.8667 0
      vertex -1.56793 14.9178 0
    endloop
  endfacet
  facet normal 0 0 -1
    outer loop
      vertex 11.25 0 0
      vertex 15 0 0
      vertex 10.8667 -2.91171 0
    endloop
  endfacet
  facet normal 0 0 -1
    outer loop
      vertex 9.74279 -5.625 0
      vertex 13.7032 -6.10105 0
      vertex 12.1353 -8.81678 0
    endloop
  endfacet
  facet normal 0 0 -1
    outer loop
      vertex 10.8667 -2.91171 0
      vertex 14.6722 -3.11868 0
      vertex 9.74279 -5.625 0
    endloop
  endfacet
  facet normal 0 0 -1
    outer loop
      vertex 9.74279 -5.625 0
      vertex 12.1353 -8.81678 0
      vertex 7.95495 -7.95495 0
    endloop
  endfacet
  facet normal 0 0 -1
    outer loop
      vertex 7.95495 -7.95495 0
      vertex 10.037 -11.1472 0
      vertex 5.625 -9.74279 0
    endloop
  endfacet
  facet normal 0 0 -1
    outer loop
      vertex 7.5 12.9904 0
      vertex 10.037 11.1472 0
      vertex 5.625 9.74279 0
    endloop
  endfacet
  facet normal 0 0 -1
    outer loop
      vertex 4.5 14.2946 0
      vertex 7.5 12.9904 0
      vertex 2.91171 10.8667 0
    endloop
  endfacet
  facet normal 0 0 -1
    outer loop
      vertex 1.56793 14.9178 0
      vertex 2.91171 10.8667 0
      vertex 0 11.25 0
    endloop
  endfacet
  facet normal 0 0 -1
    outer loop
      vertex 4.5 14.2946 0
      vertex 2.91171 10.8667 0
      vertex 1.56793 14.9178 0
    endloop
  endfacet
  facet normal 0 0 -1
    outer loop
      vertex -7.5 12.9904 0
      vertex -5.625 9.74279 0
      vertex -7.95495 7.95495 0
    endloop
  endfacet
  facet normal 0 0 -1
    outer loop
      vertex -7.5 12.9904 0
      vertex -7.95495 7.95495 0
      vertex -9.74279 5.625 0
    endloop
  endfacet
  facet normal 0 0 -1
    outer loop
      vertex -7.5 12.9904 0
      vertex -9.74279 5.625 0
      vertex -14.6722 -3.11868 0
    endloop
  endfacet
  facet normal -0 0 -1
    outer loop
      vertex -4.5 21 0
      vertex 4.5 24 0
      vertex 4.5 21 0
    endloop
  endfacet
  facet normal 0 0 -1
    outer loop
      vertex -7.5 12.9904 0
      vertex -4.5 24 0
      vertex -4.5 21 0
    endloop
  endfacet
  facet normal 0 0 -1
    outer loop
      vertex -4.5 14.2946 0
      vertex -7.5 12.9904 0
      vertex -4.5 21 0
    endloop
  endfacet
  facet normal -0 0 -1
    outer loop
      vertex -7.5 12.9904 0
      vertex -4.5 14.2946 0
      vertex -5.625 9.74279 0
    endloop
  endfacet
  facet normal 0 0 -1
    outer loop
      vertex 1.56793 14.9178 0
      vertex 0 11.25 0
      vertex -2.91171 10.8667 0
    endloop
  endfacet
  facet normal 0 0 -1
    outer loop
      vertex -5.625 9.74279 0
      vertex -1.56793 14.9178 0
      vertex -2.91171 10.8667 0
    endloop
  endfacet
  facet normal 0 0 -1
    outer loop
      vertex 4.5 21 0
      vertex 7.5 12.9904 0
      vertex 4.5 14.2946 0
    endloop
  endfacet
  facet normal 0 0 -1
    outer loop
      vertex 4.5 24 0
      vertex 7.5 12.9904 0
      vertex 4.5 21 0
    endloop
  endfacet
  facet normal -0 0 -1
    outer loop
      vertex -15 70.5 0
      vertex -12.75 72.75 0
      vertex -12.75 70.5 0
    endloop
  endfacet
  facet normal 0 0 -1
    outer loop
      vertex 12 60 0
      vertex 15 62.25 0
      vertex 17.25 62.25 0
    endloop
  endfacet
  facet normal -0 0 -1
    outer loop
      vertex 7.95495 7.95495 0
      vertex 12.1353 8.81678 0
      vertex 9.74279 5.625 0
    endloop
  endfacet
  facet normal -0 0 -1
    outer loop
      vertex 9.74279 5.625 0
      vertex 13.7032 6.10105 0
      vertex 10.8667 2.91171 0
    endloop
  endfacet
  facet normal -0 0 -1
    outer loop
      vertex 10.8667 2.91171 0
      vertex 14.6722 3.11868 0
      vertex 11.25 0 0
    endloop
  endfacet
  facet normal -0.994522 0.104528 0
    outer loop
      vertex -15 0 0
      vertex -15 0 3
      vertex -14.6722 3.11868 0
    endloop
  endfacet
  facet normal -0.994522 0.104528 0
    outer loop
      vertex -14.6722 3.11868 0
      vertex -15 0 3
      vertex -14.6722 3.11868 3
    endloop
  endfacet
  facet normal -0.994522 -0.104528 -0
    outer loop
      vertex -15 0 0
      vertex -14.6722 -3.11868 0
      vertex -15 0 3
    endloop
  endfacet
  facet normal -0.994522 -0.104528 0
    outer loop
      vertex -15 0 3
      vertex -14.6722 -3.11868 0
      vertex -14.6722 -3.11868 3
    endloop
  endfacet
  facet normal -0.951057 -0.309017 -0
    outer loop
      vertex -14.6722 -3.11868 0
      vertex -13.7032 -6.10105 0
      vertex -14.6722 -3.11868 3
    endloop
  endfacet
  facet normal -0.951057 -0.309017 0
    outer loop
      vertex -14.6722 -3.11868 3
      vertex -13.7032 -6.10105 0
      vertex -13.7032 -6.10105 3
    endloop
  endfacet
  facet normal -0.866025 -0.5 -0
    outer loop
      vertex -13.7032 -6.10105 0
      vertex -12.1353 -8.81678 0
      vertex -13.7032 -6.10105 3
    endloop
  endfacet
  facet normal -0.866025 -0.5 0
    outer loop
      vertex -13.7032 -6.10105 3
      vertex -12.1353 -8.81678 0
      vertex -12.1353 -8.81678 3
    endloop
  endfacet
  facet normal -0.743145 -0.669131 -0
    outer loop
      vertex -12.1353 -8.81678 0
      vertex -10.037 -11.1472 0
      vertex -12.1353 -8.81678 3
    endloop
  endfacet
  facet normal -0.743145 -0.669131 0
    outer loop
      vertex -12.1353 -8.81678 3
      vertex -10.037 -11.1472 0
      vertex -10.037 -11.1472 3
    endloop
  endfacet
  facet normal -0.587785 -0.809017 0
    outer loop
      vertex -10.037 -11.1472 3
      vertex -10.037 -11.1472 0
      vertex -7.5 -12.9904 0
    endloop
  endfacet
  facet normal -0.587785 -0.809017 0
    outer loop
      vertex -7.5 -12.9904 3
      vertex -10.037 -11.1472 3
      vertex -7.5 -12.9904 0
    endloop
  endfacet
  facet normal -0.406737 -0.913545 0
    outer loop
      vertex -7.5 -12.9904 3
      vertex -7.5 -12.9904 0
      vertex -4.63525 -14.2658 0
    endloop
  endfacet
  facet normal -0.406737 -0.913545 0
    outer loop
      vertex -4.63525 -14.2658 3
      vertex -7.5 -12.9904 3
      vertex -4.63525 -14.2658 0
    endloop
  endfacet
  facet normal -0.207912 -0.978148 0
    outer loop
      vertex -4.63525 -14.2658 3
      vertex -4.63525 -14.2658 0
      vertex -1.56793 -14.9178 0
    endloop
  endfacet
  facet normal -0.207912 -0.978148 0
    outer loop
      vertex -1.56793 -14.9178 3
      vertex -4.63525 -14.2658 3
      vertex -1.56793 -14.9178 0
    endloop
  endfacet
  facet normal 0 -1 0
    outer loop
      vertex -1.56793 -14.9178 3
      vertex -1.56793 -14.9178 0
      vertex 1.56793 -14.9178 0
    endloop
  endfacet
  facet normal 0 -1 0
    outer loop
      vertex 1.56793 -14.9178 3
      vertex -1.56793 -14.9178 3
      vertex 1.56793 -14.9178 0
    endloop
  endfacet
  facet normal 0.207912 -0.978148 0
    outer loop
      vertex 1.56793 -14.9178 3
      vertex 1.56793 -14.9178 0
      vertex 4.63525 -14.2658 0
    endloop
  endfacet
  facet normal 0.207912 -0.978148 0
    outer loop
      vertex 4.63525 -14.2658 3
      vertex 1.56793 -14.9178 3
      vertex 4.63525 -14.2658 0
    endloop
  endfacet
  facet normal 0.406737 -0.913545 0
    outer loop
      vertex 4.63525 -14.2658 3
      vertex 4.63525 -14.2658 0
      vertex 7.5 -12.9904 0
    endloop
  endfacet
  facet normal 0.406737 -0.913545 0
    outer loop
      vertex 7.5 -12.9904 3
      vertex 4.63525 -14.2658 3
      vertex 7.5 -12.9904 0
    endloop
  endfacet
  facet normal 0.587785 -0.809017 0
    outer loop
      vertex 7.5 -12.9904 3
      vertex 7.5 -12.9904 0
      vertex 10.037 -11.1472 0
    endloop
  endfacet
  facet normal 0.587785 -0.809017 0
    outer loop
      vertex 10.037 -11.1472 3
      vertex 7.5 -12.9904 3
      vertex 10.037 -11.1472 0
    endloop
  endfacet
  facet normal 0.743145 -0.669131 0
    outer loop
      vertex 10.037 -11.1472 3
      vertex 10.037 -11.1472 0
      vertex 12.1353 -8.81678 0
    endloop
  endfacet
  facet normal 0.743145 -0.669131 0
    outer loop
      vertex 12.1353 -8.81678 3
      vertex 10.037 -11.1472 3
      vertex 12.1353 -8.81678 0
    endloop
  endfacet
  facet normal 0.866025 -0.5 0
    outer loop
      vertex 12.1353 -8.81678 3
      vertex 12.1353 -8.81678 0
      vertex 13.7032 -6.10105 0
    endloop
  endfacet
  facet normal 0.866025 -0.5 0
    outer loop
      vertex 13.7032 -6.10105 3
      vertex 12.1353 -8.81678 3
      vertex 13.7032 -6.10105 0
    endloop
  endfacet
  facet normal 0.951057 -0.309017 0
    outer loop
      vertex 13.7032 -6.10105 3
      vertex 13.7032 -6.10105 0
      vertex 14.6722 -3.11868 0
    endloop
  endfacet
  facet normal 0.951057 -0.309017 0
    outer loop
      vertex 14.6722 -3.11868 3
      vertex 13.7032 -6.10105 3
      vertex 14.6722 -3.11868 0
    endloop
  endfacet
  facet normal 0.994522 -0.104528 0
    outer loop
      vertex 14.6722 -3.11868 3
      vertex 14.6722 -3.11868 0
      vertex 15 0 0
    endloop
  endfacet
  facet normal 0.994522 -0.104528 0
    outer loop
      vertex 15 0 3
      vertex 14.6722 -3.11868 3
      vertex 15 0 0
    endloop
  endfacet
  facet normal 0.994522 0.104528 0
    outer loop
      vertex 15 0 0
      vertex 14.6722 3.11868 0
      vertex 14.6722 3.11868 3
    endloop
  endfacet
  facet normal 0.994522 0.104528 -0
    outer loop
      vertex 15 0 3
      vertex 15 0 0
      vertex 14.6722 3.11868 3
    endloop
  endfacet
  facet normal 0.951057 0.309017 0
    outer loop
      vertex 14.6722 3.11868 0
      vertex 13.7032 6.10105 0
      vertex 13.7032 6.10105 3
    endloop
  endfacet
  facet normal 0.951057 0.309017 -0
    outer loop
      vertex 14.6722 3.11868 3
      vertex 14.6722 3.11868 0
      vertex 13.7032 6.10105 3
    endloop
  endfacet
  facet normal 0.866025 0.5 0
    outer loop
      vertex 13.7032 6.10105 0
      vertex 12.1353 8.81678 0
      vertex 12.1353 8.81678 3
    endloop
  endfacet
  facet normal 0.866025 0.5 -0
    outer loop
      vertex 13.7032 6.10105 3
      vertex 13.7032 6.10105 0
      vertex 12.1353 8.81678 3
    endloop
  endfacet
  facet normal 0.743145 0.669131 0
    outer loop
      vertex 12.1353 8.81678 0
      vertex 10.037 11.1472 0
      vertex 10.037 11.1472 3
    endloop
  endfacet
  facet normal 0.743145 0.669131 -0
    outer loop
      vertex 12.1353 8.81678 3
      vertex 12.1353 8.81678 0
      vertex 10.037 11.1472 3
    endloop
  endfacet
  facet normal 0.587785 0.809017 0
    outer loop
      vertex 7.5 12.9904 0
      vertex 7.5 12.9904 3
      vertex 10.037 11.1472 0
    endloop
  endfacet
  facet normal 0.587785 0.809017 0
    outer loop
      vertex 10.037 11.1472 0
      vertex 7.5 12.9904 3
      vertex 10.037 11.1472 3
    endloop
  endfacet
  facet normal 1 0 -0
    outer loop
      vertex 7.5 12.9904 3
      vertex 7.5 12.9904 0
      vertex 7.5 60 0
    endloop
  endfacet
  facet normal 1 0 0
    outer loop
      vertex 7.5 60 3
      vertex 7.5 12.9904 3
      vertex 7.5 60 0
    endloop
  endfacet
  facet normal 0 -1 0
    outer loop
      vertex 7.5 60 3
      vertex 7.5 60 0
      vertex 10.5 60 0
    endloop
  endfacet
  facet normal 0 -1 0
    outer loop
      vertex 10.5 60 3
      vertex 7.5 60 3
      vertex 10.5 60 0
    endloop
  endfacet
  facet normal 1 0 -0
    outer loop
      vertex 10.5 60 3
      vertex 10.5 60 0
      vertex 10.5 64.5 0
    endloop
  endfacet
  facet normal 1 0 0
    outer loop
      vertex 10.5 64.5 3
      vertex 10.5 60 3
      vertex 10.5 64.5 0
    endloop
  endfacet
  facet normal 0 -1 0
    outer loop
      vertex 10.5 64.5 3
      vertex 10.5 64.5 0
      vertex 12 64.5 0
    endloop
  endfacet
  facet normal 0 -1 0
    outer loop
      vertex 12 64.5 3
      vertex 10.5 64.5 3
      vertex 12 64.5 0
    endloop
  endfacet
  facet normal -1 -0 -0
    outer loop
      vertex 12 60 0
      vertex 12 60 3
      vertex 12 64.5 0
    endloop
  endfacet
  facet normal -1 0 0
    outer loop
      vertex 12 64.5 0
      vertex 12 60 3
      vertex 12 64.5 3
    endloop
  endfacet
  facet normal 0 -1 0
    outer loop
      vertex 12 60 3
      vertex 12 60 0
      vertex 17.25 60 0
    endloop
  endfacet
  facet normal 0 -1 0
    outer loop
      vertex 17.25 60 3
      vertex 12 60 3
      vertex 17.25 60 0
    endloop
  endfacet
  facet normal 1 0 -0
    outer loop
      vertex 17.25 60 3
      vertex 17.25 60 0
      vertex 17.25 62.25 0
    endloop
  endfacet
  facet normal 1 0 0
    outer loop
      vertex 17.25 62.25 3
      vertex 17.25 60 3
      vertex 17.25 62.25 0
    endloop
  endfacet
  facet normal 0 1 0
    outer loop
      vertex 15 62.25 0
      vertex 15 62.25 3
      vertex 17.25 62.25 0
    endloop
  endfacet
  facet normal 0 1 0
    outer loop
      vertex 17.25 62.25 0
      vertex 15 62.25 3
      vertex 17.25 62.25 3
    endloop
  endfacet
  facet normal 1 0 -0
    outer loop
      vertex 15 62.25 3
      vertex 15 62.25 0
      vertex 15 64.5 0
    endloop
  endfacet
  facet normal 1 0 0
    outer loop
      vertex 15 64.5 3
      vertex 15 62.25 3
      vertex 15 64.5 0
    endloop
  endfacet
  facet normal 0 -1 0
    outer loop
      vertex 15 64.5 3
      vertex 15 64.5 0
      vertex 17.25 64.5 0
    endloop
  endfacet
  facet normal 0 -1 0
    outer loop
      vertex 17.25 64.5 3
      vertex 15 64.5 3
      vertex 17.25 64.5 0
    endloop
  endfacet
  facet normal 1 0 -0
    outer loop
      vertex 17.25 64.5 3
      vertex 17.25 64.5 0
      vertex 17.25 66.75 0
    endloop
  endfacet
  facet normal 1 0 0
    outer loop
      vertex 17.25 66.75 3
      vertex 17.25 64.5 3
      vertex 17.25 66.75 0
    endloop
  endfacet
  facet normal 0 1 0
    outer loop
      vertex 15 66.75 0
      vertex 15 66.75 3
      vertex 17.25 66.75 0
    endloop
  endfacet
  facet normal 0 1 0
    outer loop
      vertex 17.25 66.75 0
      vertex 15 66.75 3
      vertex 17.25 66.75 3
    endloop
  endfacet
  facet normal 1 0 -0
    outer loop
      vertex 15 66.75 3
      vertex 15 66.75 0
      vertex 15 68.25 0
    endloop
  endfacet
  facet normal 1 0 0
    outer loop
      vertex 15 68.25 3
      vertex 15 66.75 3
      vertex 15 68.25 0
    endloop
  endfacet
  facet normal 0 -1 0
    outer loop
      vertex 15 68.25 3
      vertex 15 68.25 0
      vertex 17.25 68.25 0
    endloop
  endfacet
  facet normal 0 -1 0
    outer loop
      vertex 17.25 68.25 3
      vertex 15 68.25 3
      vertex 17.25 68.25 0
    endloop
  endfacet
  facet normal 1 0 -0
    outer loop
      vertex 17.25 68.25 3
      vertex 17.25 68.25 0
      vertex 17.25 70.5 0
    endloop
  endfacet
  facet normal 1 0 0
    outer loop
      vertex 17.25 70.5 3
      vertex 17.25 68.25 3
      vertex 17.25 70.5 0
    endloop
  endfacet
  facet normal 0 1 0
    outer loop
      vertex 9.75 70.5 0
      vertex 9.75 70.5 3
      vertex 17.25 70.5 0
    endloop
  endfacet
  facet normal 0 1 0
    outer loop
      vertex 17.25 70.5 0
      vertex 9.75 70.5 3
      vertex 17.25 70.5 3
    endloop
  endfacet
  facet normal -1 -0 -0
    outer loop
      vertex 9.75 66 0
      vertex 9.75 66 3
      vertex 9.75 70.5 0
    endloop
  endfacet
  facet normal -1 0 0
    outer loop
      vertex 9.75 70.5 0
      vertex 9.75 66 3
      vertex 9.75 70.5 3
    endloop
  endfacet
  facet normal 0 1 0
    outer loop
      vertex 7.5 66 0
      vertex 7.5 66 3
      vertex 9.75 66 0
    endloop
  endfacet
  facet normal 0 1 0
    outer loop
      vertex 9.75 66 0
      vertex 7.5 66 3
      vertex 9.75 66 3
    endloop
  endfacet
  facet normal 1 0 -0
    outer loop
      vertex 7.5 66 3
      vertex 7.5 66 0
      vertex 7.5 72 0
    endloop
  endfacet
  facet normal 1 0 0
    outer loop
      vertex 7.5 72 3
      vertex 7.5 66 3
      vertex 7.5 72 0
    endloop
  endfacet
  facet normal 0 1 0
    outer loop
      vertex 4.5 72 0
      vertex 4.5 72 3
      vertex 7.5 72 0
    endloop
  endfacet
  facet normal 0 1 0
    outer loop
      vertex 7.5 72 0
      vertex 4.5 72 3
      vertex 7.5 72 3
    endloop
  endfacet
  facet normal -1 -0 -0
    outer loop
      vertex 4.5 24 0
      vertex 4.5 24 3
      vertex 4.5 72 0
    endloop
  endfacet
  facet normal -1 0 0
    outer loop
      vertex 4.5 72 0
      vertex 4.5 24 3
      vertex 4.5 72 3
    endloop
  endfacet
  facet normal 0 1 0
    outer loop
      vertex -4.5 24 0
      vertex -4.5 24 3
      vertex 4.5 24 0
    endloop
  endfacet
  facet normal 0 1 0
    outer loop
      vertex 4.5 24 0
      vertex -4.5 24 3
      vertex 4.5 24 3
    endloop
  endfacet
  facet normal 1 0 -0
    outer loop
      vertex -4.5 24 3
      vertex -4.5 24 0
      vertex -4.5 78 0
    endloop
  endfacet
  facet normal 1 0 0
    outer loop
      vertex -4.5 78 3
      vertex -4.5 24 3
      vertex -4.5 78 0
    endloop
  endfacet
  facet normal 0 1 0
    outer loop
      vertex -7.5 78 0
      vertex -7.5 78 3
      vertex -4.5 78 0
    endloop
  endfacet
  facet normal 0 1 0
    outer loop
      vertex -4.5 78 0
      vertex -7.5 78 3
      vertex -4.5 78 3
    endloop
  endfacet
  facet normal -1 -0 -0
    outer loop
      vertex -7.5 75 0
      vertex -7.5 75 3
      vertex -7.5 78 0
    endloop
  endfacet
  facet normal -1 0 0
    outer loop
      vertex -7.5 78 0
      vertex -7.5 75 3
      vertex -7.5 78 3
    endloop
  endfacet
  facet normal 0 1 0
    outer loop
      vertex -9 75 0
      vertex -9 75 3
      vertex -7.5 75 0
    endloop
  endfacet
  facet normal 0 1 0
    outer loop
      vertex -7.5 75 0
      vertex -9 75 3
      vertex -7.5 75 3
    endloop
  endfacet
  facet normal -1 -0 -0
    outer loop
      vertex -9 72.75 0
      vertex -9 72.75 3
      vertex -9 75 0
    endloop
  endfacet
  facet normal -1 0 0
    outer loop
      vertex -9 75 0
      vertex -9 72.75 3
      vertex -9 75 3
    endloop
  endfacet
  facet normal 0 1 0
    outer loop
      vertex -9.75 72.75 0
      vertex -9.75 72.75 3
      vertex -9 72.75 0
    endloop
  endfacet
  facet normal 0 1 0
    outer loop
      vertex -9 72.75 0
      vertex -9.75 72.75 3
      vertex -9 72.75 3
    endloop
  endfacet
  facet normal 1 0 -0
    outer loop
      vertex -9.75 72.75 3
      vertex -9.75 72.75 0
      vertex -9.75 75 0
    endloop
  endfacet
  facet normal 1 0 0
    outer loop
      vertex -9.75 75 3
      vertex -9.75 72.75 3
      vertex -9.75 75 0
    endloop
  endfacet
  facet normal 0 1 0
    outer loop
      vertex -15 75 0
      vertex -15 75 3
      vertex -9.75 75 0
    endloop
  endfacet
  facet normal 0 1 0
    outer loop
      vertex -9.75 75 0
      vertex -15 75 3
      vertex -9.75 75 3
    endloop
  endfacet
  facet normal -1 -0 -0
    outer loop
      vertex -15 70.5 0
      vertex -15 70.5 3
      vertex -15 75 0
    endloop
  endfacet
  facet normal -1 0 0
    outer loop
      vertex -15 75 0
      vertex -15 70.5 3
      vertex -15 75 3
    endloop
  endfacet
  facet normal 0 -1 0
    outer loop
      vertex -15 70.5 3
      vertex -15 70.5 0
      vertex -12.75 70.5 0
    endloop
  endfacet
  facet normal 0 -1 0
    outer loop
      vertex -12.75 70.5 3
      vertex -15 70.5 3
      vertex -12.75 70.5 0
    endloop
  endfacet
  facet normal 1 0 -0
    outer loop
      vertex -12.75 70.5 3
      vertex -12.75 70.5 0
      vertex -12.75 72.75 0
    endloop
  endfacet
  facet normal 1 0 0
    outer loop
      vertex -12.75 72.75 3
      vertex -12.75 70.5 3
      vertex -12.75 72.75 0
    endloop
  endfacet
  facet normal 0 -1 0
    outer loop
      vertex -12.75 72.75 3
      vertex -12.75 72.75 0
      vertex -12 72.75 0
    endloop
  endfacet
  facet normal 0 -1 0
    outer loop
      vertex -12 72.75 3
      vertex -12.75 72.75 3
      vertex -12 72.75 0
    endloop
  endfacet
  facet normal -1 -0 -0
    outer loop
      vertex -12 70.5 0
      vertex -12 70.5 3
      vertex -12 72.75 0
    endloop
  endfacet
  facet normal -1 0 0
    outer loop
      vertex -12 72.75 0
      vertex -12 70.5 3
      vertex -12 72.75 3
    endloop
  endfacet
  facet normal 0 -1 0
    outer loop
      vertex -12 70.5 3
      vertex -12 70.5 0
      vertex -7.5 70.5 0
    endloop
  endfacet
  facet normal 0 -1 0
    outer loop
      vertex -7.5 70.5 3
      vertex -12 70.5 3
      vertex -7.5 70.5 0
    endloop
  endfacet
  facet normal -1 -0 -0
    outer loop
      vertex -7.5 68.25 0
      vertex -7.5 68.25 3
      vertex -7.5 70.5 0
    endloop
  endfacet
  facet normal -1 0 0
    outer loop
      vertex -7.5 70.5 0
      vertex -7.5 68.25 3
      vertex -7.5 70.5 3
    endloop
  endfacet
  facet normal 0 1 0
    outer loop
      vertex -9 68.25 0
      vertex -9 68.25 3
      vertex -7.5 68.25 0
    endloop
  endfacet
  facet normal 0 1 0
    outer loop
      vertex -7.5 68.25 0
      vertex -9 68.25 3
      vertex -7.5 68.25 3
    endloop
  endfacet
  facet normal -1 -0 -0
    outer loop
      vertex -9 66 0
      vertex -9 66 3
      vertex -9 68.25 0
    endloop
  endfacet
  facet normal -1 0 0
    outer loop
      vertex -9 68.25 0
      vertex -9 66 3
      vertex -9 68.25 3
    endloop
  endfacet
  facet normal 0 -1 0
    outer loop
      vertex -9 66 3
      vertex -9 66 0
      vertex -7.5 66 0
    endloop
  endfacet
  facet normal 0 -1 0
    outer loop
      vertex -7.5 66 3
      vertex -9 66 3
      vertex -7.5 66 0
    endloop
  endfacet
  facet normal -1 -0 -0
    outer loop
      vertex -7.5 12.9904 0
      vertex -7.5 12.9904 3
      vertex -7.5 66 0
    endloop
  endfacet
  facet normal -1 0 0
    outer loop
      vertex -7.5 66 0
      vertex -7.5 12.9904 3
      vertex -7.5 66 3
    endloop
  endfacet
  facet normal -0.587785 0.809017 0
    outer loop
      vertex -10.037 11.1472 0
      vertex -10.037 11.1472 3
      vertex -7.5 12.9904 0
    endloop
  endfacet
  facet normal -0.587785 0.809017 0
    outer loop
      vertex -7.5 12.9904 0
      vertex -10.037 11.1472 3
      vertex -7.5 12.9904 3
    endloop
  endfacet
  facet normal -0.743145 0.669131 0
    outer loop
      vertex -12.1353 8.81678 0
      vertex -12.1353 8.81678 3
      vertex -10.037 11.1472 0
    endloop
  endfacet
  facet normal -0.743145 0.669131 0
    outer loop
      vertex -10.037 11.1472 0
      vertex -12.1353 8.81678 3
      vertex -10.037 11.1472 3
    endloop
  endfacet
  facet normal -0.866025 0.5 0
    outer loop
      vertex -13.7032 6.10105 0
      vertex -13.7032 6.10105 3
      vertex -12.1353 8.81678 0
    endloop
  endfacet
  facet normal -0.866025 0.5 0
    outer loop
      vertex -12.1353 8.81678 0
      vertex -13.7032 6.10105 3
      vertex -12.1353 8.81678 3
    endloop
  endfacet
  facet normal -0.951057 0.309017 0
    outer loop
      vertex -14.6722 3.11868 0
      vertex -14.6722 3.11868 3
      vertex -13.7032 6.10105 0
    endloop
  endfacet
  facet normal -0.951057 0.309017 0
    outer loop
      vertex -13.7032 6.10105 0
      vertex -14.6722 3.11868 3
      vertex -13.7032 6.10105 3
    endloop
  endfacet
  facet normal 0.991445 -0.130526 0
    outer loop
      vertex -10.8667 2.91171 0
      vertex -10.8667 2.91171 3
      vertex -11.25 0 3
    endloop
  endfacet
  facet normal 0.991445 -0.130526 0
    outer loop
      vertex -11.25 0 0
      vertex -10.8667 2.91171 0
      vertex -11.25 0 3
    endloop
  endfacet
  facet normal 0.991445 0.130526 0
    outer loop
      vertex -11.25 0 3
      vertex -10.8667 -2.91171 3
      vertex -10.8667 -2.91171 0
    endloop
  endfacet
  facet normal 0.991445 0.130526 0
    outer loop
      vertex -11.25 0 0
      vertex -11.25 0 3
      vertex -10.8667 -2.91171 0
    endloop
  endfacet
  facet normal 0.92388 -0.382683 0
    outer loop
      vertex -9.74279 5.625 0
      vertex -9.74279 5.625 3
      vertex -10.8667 2.91171 3
    endloop
  endfacet
  facet normal 0.92388 -0.382683 0
    outer loop
      vertex -10.8667 2.91171 0
      vertex -9.74279 5.625 0
      vertex -10.8667 2.91171 3
    endloop
  endfacet
  facet normal 0.793353 -0.608762 0
    outer loop
      vertex -7.95495 7.95495 0
      vertex -7.95495 7.95495 3
      vertex -9.74279 5.625 3
    endloop
  endfacet
  facet normal 0.793353 -0.608762 0
    outer loop
      vertex -9.74279 5.625 0
      vertex -7.95495 7.95495 0
      vertex -9.74279 5.625 3
    endloop
  endfacet
  facet normal 0.608762 -0.793353 0
    outer loop
      vertex -5.625 9.74279 0
      vertex -5.625 9.74279 3
      vertex -7.95495 7.95495 3
    endloop
  endfacet
  facet normal 0.608762 -0.793353 0
    outer loop
      vertex -7.95495 7.95495 0
      vertex -5.625 9.74279 0
      vertex -7.95495 7.95495 3
    endloop
  endfacet
  facet normal 0.382683 -0.92388 0
    outer loop
      vertex -2.91171 10.8667 0
      vertex -2.91171 10.8667 3
      vertex -5.625 9.74279 3
    endloop
  endfacet
  facet normal 0.382683 -0.92388 0
    outer loop
      vertex -5.625 9.74279 0
      vertex -2.91171 10.8667 0
      vertex -5.625 9.74279 3
    endloop
  endfacet
  facet normal 0.130526 -0.991445 0
    outer loop
      vertex 0 11.25 0
      vertex 0 11.25 3
      vertex -2.91171 10.8667 3
    endloop
  endfacet
  facet normal 0.130526 -0.991445 0
    outer loop
      vertex -2.91171 10.8667 0
      vertex 0 11.25 0
      vertex -2.91171 10.8667 3
    endloop
  endfacet
  facet normal -0.130526 -0.991445 -0
    outer loop
      vertex 2.91171 10.8667 0
      vertex 2.91171 10.8667 3
      vertex 0 11.25 3
    endloop
  endfacet
  facet normal -0.130526 -0.991445 -0
    outer loop
      vertex 0 11.25 0
      vertex 2.91171 10.8667 0
      vertex 0 11.25 3
    endloop
  endfacet
  facet normal -0.382683 -0.92388 -0
    outer loop
      vertex 5.625 9.74279 0
      vertex 5.625 9.74279 3
      vertex 2.91171 10.8667 3
    endloop
  endfacet
  facet normal -0.382683 -0.92388 -0
    outer loop
      vertex 2.91171 10.8667 0
      vertex 5.625 9.74279 0
      vertex 2.91171 10.8667 3
    endloop
  endfacet
  facet normal -0.608762 -0.793353 -0
    outer loop
      vertex 7.95495 7.95495 0
      vertex 7.95495 7.95495 3
      vertex 5.625 9.74279 3
    endloop
  endfacet
  facet normal -0.608762 -0.793353 -0
    outer loop
      vertex 5.625 9.74279 0
      vertex 7.95495 7.95495 0
      vertex 5.625 9.74279 3
    endloop
  endfacet
  facet normal -0.793353 -0.608762 0
    outer loop
      vertex 9.74279 5.625 3
      vertex 7.95495 7.95495 3
      vertex 9.74279 5.625 0
    endloop
  endfacet
  facet normal -0.793353 -0.608762 0
    outer loop
      vertex 9.74279 5.625 0
      vertex 7.95495 7.95495 3
      vertex 7.95495 7.95495 0
    endloop
  endfacet
  facet normal -0.92388 -0.382683 0
    outer loop
      vertex 10.8667 2.91171 3
      vertex 9.74279 5.625 3
      vertex 10.8667 2.91171 0
    endloop
  endfacet
  facet normal -0.92388 -0.382683 0
    outer loop
      vertex 10.8667 2.91171 0
      vertex 9.74279 5.625 3
      vertex 9.74279 5.625 0
    endloop
  endfacet
  facet normal -0.991445 -0.130526 0
    outer loop
      vertex 11.25 0 3
      vertex 10.8667 2.91171 3
      vertex 11.25 0 0
    endloop
  endfacet
  facet normal -0.991445 -0.130526 0
    outer loop
      vertex 11.25 0 0
      vertex 10.8667 2.91171 3
      vertex 10.8667 2.91171 0
    endloop
  endfacet
  facet normal -0.991445 0.130526 0
    outer loop
      vertex 11.25 0 3
      vertex 11.25 0 0
      vertex 10.8667 -2.91171 3
    endloop
  endfacet
  facet normal -0.991445 0.130526 0
    outer loop
      vertex 10.8667 -2.91171 3
      vertex 11.25 0 0
      vertex 10.8667 -2.91171 0
    endloop
  endfacet
  facet normal -0.92388 0.382683 0
    outer loop
      vertex 10.8667 -2.91171 3
      vertex 10.8667 -2.91171 0
      vertex 9.74279 -5.625 3
    endloop
  endfacet
  facet normal -0.92388 0.382683 0
    outer loop
      vertex 9.74279 -5.625 3
      vertex 10.8667 -2.91171 0
      vertex 9.74279 -5.625 0
    endloop
  endfacet
  facet normal -0.793353 0.608762 0
    outer loop
      vertex 9.74279 -5.625 3
      vertex 9.74279 -5.625 0
      vertex 7.95495 -7.95495 3
    endloop
  endfacet
  facet normal -0.793353 0.608762 0
    outer loop
      vertex 7.95495 -7.95495 3
      vertex 9.74279 -5.625 0
      vertex 7.95495 -7.95495 0
    endloop
  endfacet
  facet normal -0.608762 0.793353 0
    outer loop
      vertex 7.95495 -7.95495 3
      vertex 7.95495 -7.95495 0
      vertex 5.625 -9.74279 3
    endloop
  endfacet
  facet normal -0.608762 0.793353 0
    outer loop
      vertex 5.625 -9.74279 3
      vertex 7.95495 -7.95495 0
      vertex 5.625 -9.74279 0
    endloop
  endfacet
  facet normal -0.382683 0.92388 0
    outer loop
      vertex 5.625 -9.74279 3
      vertex 5.625 -9.74279 0
      vertex 2.91171 -10.8667 3
    endloop
  endfacet
  facet normal -0.382683 0.92388 0
    outer loop
      vertex 2.91171 -10.8667 3
      vertex 5.625 -9.74279 0
      vertex 2.91171 -10.8667 0
    endloop
  endfacet
  facet normal -0.130526 0.991445 0
    outer loop
      vertex 2.91171 -10.8667 3
      vertex 2.91171 -10.8667 0
      vertex 0 -11.25 3
    endloop
  endfacet
  facet normal -0.130526 0.991445 0
    outer loop
      vertex 0 -11.25 3
      vertex 2.91171 -10.8667 0
      vertex 0 -11.25 0
    endloop
  endfacet
  facet normal 0.130526 0.991445 -0
    outer loop
      vertex 0 -11.25 3
      vertex 0 -11.25 0
      vertex -2.91171 -10.8667 3
    endloop
  endfacet
  facet normal 0.130526 0.991445 -0
    outer loop
      vertex -2.91171 -10.8667 3
      vertex 0 -11.25 0
      vertex -2.91171 -10.8667 0
    endloop
  endfacet
  facet normal 0.382683 0.92388 -0
    outer loop
      vertex -2.91171 -10.8667 3
      vertex -2.91171 -10.8667 0
      vertex -5.625 -9.74279 3
    endloop
  endfacet
  facet normal 0.382683 0.92388 -0
    outer loop
      vertex -5.625 -9.74279 3
      vertex -2.91171 -10.8667 0
      vertex -5.625 -9.74279 0
    endloop
  endfacet
  facet normal 0.608762 0.793353 -0
    outer loop
      vertex -5.625 -9.74279 3
      vertex -5.625 -9.74279 0
      vertex -7.95495 -7.95495 3
    endloop
  endfacet
  facet normal 0.608762 0.793353 -0
    outer loop
      vertex -7.95495 -7.95495 3
      vertex -5.625 -9.74279 0
      vertex -7.95495 -7.95495 0
    endloop
  endfacet
  facet normal 0.793353 0.608762 0
    outer loop
      vertex -9.74279 -5.625 3
      vertex -7.95495 -7.95495 3
      vertex -7.95495 -7.95495 0
    endloop
  endfacet
  facet normal 0.793353 0.608762 0
    outer loop
      vertex -9.74279 -5.625 0
      vertex -9.74279 -5.625 3
      vertex -7.95495 -7.95495 0
    endloop
  endfacet
  facet normal 0.92388 0.382683 0
    outer loop
      vertex -10.8667 -2.91171 3
      vertex -9.74279 -5.625 3
      vertex -9.74279 -5.625 0
    endloop
  endfacet
  facet normal 0.92388 0.382683 0
    outer loop
      vertex -10.8667 -2.91171 0
      vertex -10.8667 -2.91171 3
      vertex -9.74279 -5.625 0
    endloop
  endfacet
  facet normal 1 0 -0
    outer loop
      vertex -4.5 14.2946 3
      vertex -4.5 14.2946 0
      vertex -4.5 21 0
    endloop
  endfacet
  facet normal 1 0 0
    outer loop
      vertex -4.5 21 3
      vertex -4.5 14.2946 3
      vertex -4.5 21 0
    endloop
  endfacet
  facet normal 0 -1 0
    outer loop
      vertex -4.5 21 3
      vertex -4.5 21 0
      vertex 4.5 21 0
    endloop
  endfacet
  facet normal 0 -1 0
    outer loop
      vertex 4.5 21 3
      vertex -4.5 21 3
      vertex 4.5 21 0
    endloop
  endfacet
  facet normal -1 -0 -0
    outer loop
      vertex 4.5 14.2946 0
      vertex 4.5 14.2946 3
      vertex 4.5 21 0
    endloop
  endfacet
  facet normal -1 0 0
    outer loop
      vertex 4.5 21 0
      vertex 4.5 14.2946 3
      vertex 4.5 21 3
    endloop
  endfacet
  facet normal 0.207912 0.978148 0
    outer loop
      vertex 1.56793 14.9178 0
      vertex 1.56793 14.9178 3
      vertex 4.5 14.2946 0
    endloop
  endfacet
  facet normal 0.207912 0.978148 0
    outer loop
      vertex 4.5 14.2946 0
      vertex 1.56793 14.9178 3
      vertex 4.5 14.2946 3
    endloop
  endfacet
  facet normal 0 1 0
    outer loop
      vertex -1.56793 14.9178 0
      vertex -1.56793 14.9178 3
      vertex 1.56793 14.9178 0
    endloop
  endfacet
  facet normal 0 1 0
    outer loop
      vertex 1.56793 14.9178 0
      vertex -1.56793 14.9178 3
      vertex 1.56793 14.9178 3
    endloop
  endfacet
  facet normal -0.207912 0.978148 0
    outer loop
      vertex -4.5 14.2946 0
      vertex -4.5 14.2946 3
      vertex -1.56793 14.9178 0
    endloop
  endfacet
  facet normal -0.207912 0.978148 0
    outer loop
      vertex -1.56793 14.9178 0
      vertex -4.5 14.2946 3
      vertex -1.56793 14.9178 3
    endloop
  endfacet
  facet normal 0 0 1
    outer loop
      vertex -14.6722 3.11868 3
      vertex -15 0 3
      vertex -14.6722 -3.11868 3
    endloop
  endfacet
  facet normal 0 0 1
    outer loop
      vertex -12.1353 -8.81678 3
      vertex -14.6722 3.11868 3
      vertex -13.7032 -6.10105 3
    endloop
  endfacet
  facet normal 0 0 1
    outer loop
      vertex -13.7032 -6.10105 3
      vertex -14.6722 3.11868 3
      vertex -14.6722 -3.11868 3
    endloop
  endfacet
  facet normal 0 0 1
    outer loop
      vertex -10.037 -11.1472 3
      vertex -14.6722 3.11868 3
      vertex -12.1353 -8.81678 3
    endloop
  endfacet
  facet normal 0 0 1
    outer loop
      vertex -7.5 -12.9904 3
      vertex -14.6722 3.11868 3
      vertex -10.037 -11.1472 3
    endloop
  endfacet
  facet normal -0 -0 1
    outer loop
      vertex -9.74279 -5.625 3
      vertex -14.6722 3.11868 3
      vertex -7.5 -12.9904 3
    endloop
  endfacet
  facet normal 0 0 1
    outer loop
      vertex 10.8667 2.91171 3
      vertex 11.25 0 3
      vertex 15 0 3
    endloop
  endfacet
  facet normal 0 0 1
    outer loop
      vertex 7.95495 7.95495 3
      vertex 13.7032 6.10105 3
      vertex 12.1353 8.81678 3
    endloop
  endfacet
  facet normal 0 0 1
    outer loop
      vertex 5.625 9.74279 3
      vertex 7.95495 7.95495 3
      vertex 10.037 11.1472 3
    endloop
  endfacet
  facet normal 0 0 1
    outer loop
      vertex -1.56793 14.9178 3
      vertex -4.5 14.2946 3
      vertex -14.6722 3.11868 3
    endloop
  endfacet
  facet normal 0 0 1
    outer loop
      vertex -10.8667 -2.91171 3
      vertex -11.25 0 3
      vertex -14.6722 3.11868 3
    endloop
  endfacet
  facet normal 0 0 1
    outer loop
      vertex 10.5 64.5 3
      vertex 7.5 60 3
      vertex 10.5 60 3
    endloop
  endfacet
  facet normal 0 -0 1
    outer loop
      vertex 9.75 66 3
      vertex 7.5 60 3
      vertex 10.5 64.5 3
    endloop
  endfacet
  facet normal 0 0 1
    outer loop
      vertex 17.25 66.75 3
      vertex 10.5 64.5 3
      vertex 12 64.5 3
    endloop
  endfacet
  facet normal 0 0 1
    outer loop
      vertex 15 62.25 3
      vertex 15 64.5 3
      vertex 12 64.5 3
    endloop
  endfacet
  facet normal -0 -0 1
    outer loop
      vertex 15 62.25 3
      vertex 12 64.5 3
      vertex 17.25 60 3
    endloop
  endfacet
  facet normal 0 0 1
    outer loop
      vertex 17.25 62.25 3
      vertex 15 62.25 3
      vertex 17.25 60 3
    endloop
  endfacet
  facet normal 0 0 1
    outer loop
      vertex 17.25 66.75 3
      vertex 12 64.5 3
      vertex 15 64.5 3
    endloop
  endfacet
  facet normal 0 0 1
    outer loop
      vertex 17.25 66.75 3
      vertex 15 64.5 3
      vertex 17.25 64.5 3
    endloop
  endfacet
  facet normal 0 -0 1
    outer loop
      vertex 15 66.75 3
      vertex 10.5 64.5 3
      vertex 17.25 66.75 3
    endloop
  endfacet
  facet normal 0 0 1
    outer loop
      vertex 15 68.25 3
      vertex 10.5 64.5 3
      vertex 15 66.75 3
    endloop
  endfacet
  facet normal 0 0 1
    outer loop
      vertex 17.25 70.5 3
      vertex 10.5 64.5 3
      vertex 15 68.25 3
    endloop
  endfacet
  facet normal 0 0 1
    outer loop
      vertex 17.25 70.5 3
      vertex 15 68.25 3
      vertex 17.25 68.25 3
    endloop
  endfacet
  facet normal 0 0 1
    outer loop
      vertex 9.75 70.5 3
      vertex 10.5 64.5 3
      vertex 17.25 70.5 3
    endloop
  endfacet
  facet normal 0 0 1
    outer loop
      vertex -12.1353 8.81678 3
      vertex -13.7032 6.10105 3
      vertex -14.6722 3.11868 3
    endloop
  endfacet
  facet normal 0 -0 1
    outer loop
      vertex 9.75 70.5 3
      vertex 9.75 66 3
      vertex 10.5 64.5 3
    endloop
  endfacet
  facet normal 0 0 1
    outer loop
      vertex -7.5 75 3
      vertex -9 75 3
      vertex -9 72.75 3
    endloop
  endfacet
  facet normal 0 0 1
    outer loop
      vertex -12 70.5 3
      vertex -7.5 70.5 3
      vertex -9 72.75 3
    endloop
  endfacet
  facet normal 0 0 1
    outer loop
      vertex 7.5 60 3
      vertex 4.5 24 3
      vertex 7.5 12.9904 3
    endloop
  endfacet
  facet normal -0 -0 1
    outer loop
      vertex -7.95495 -7.95495 3
      vertex -9.74279 -5.625 3
      vertex -4.63525 -14.2658 3
    endloop
  endfacet
  facet normal 0 -0 1
    outer loop
      vertex -7.5 78 3
      vertex -7.5 75 3
      vertex -4.5 78 3
    endloop
  endfacet
  facet normal 0 0 1
    outer loop
      vertex -12 70.5 3
      vertex -9.75 72.75 3
      vertex -9.75 75 3
    endloop
  endfacet
  facet normal 0 0 1
    outer loop
      vertex -12.75 72.75 3
      vertex -12 72.75 3
      vertex -9.75 75 3
    endloop
  endfacet
  facet normal 0 -0 1
    outer loop
      vertex 5.625 -9.74279 3
      vertex 2.91171 -10.8667 3
      vertex 7.5 -12.9904 3
    endloop
  endfacet
  facet normal 0 0 1
    outer loop
      vertex -9 66 3
      vertex -7.5 66 3
      vertex -7.5 68.25 3
    endloop
  endfacet
  facet normal 0 0 1
    outer loop
      vertex -15 75 3
      vertex -12.75 72.75 3
      vertex -9.75 75 3
    endloop
  endfacet
  facet normal 0 -0 1
    outer loop
      vertex -15 75 3
      vertex -15 70.5 3
      vertex -12.75 72.75 3
    endloop
  endfacet
  facet normal 0 -0 1
    outer loop
      vertex -12 72.75 3
      vertex -12 70.5 3
      vertex -9.75 75 3
    endloop
  endfacet
  facet normal 0 -0 1
    outer loop
      vertex -7.5 75 3
      vertex -7.5 70.5 3
      vertex -4.5 78 3
    endloop
  endfacet
  facet normal 0 -0 1
    outer loop
      vertex -7.5 70.5 3
      vertex -7.5 68.25 3
      vertex -4.5 78 3
    endloop
  endfacet
  facet normal 0 -0 1
    outer loop
      vertex -7.5 66 3
      vertex -7.5 12.9904 3
      vertex -4.5 24 3
    endloop
  endfacet
  facet normal 0 0 1
    outer loop
      vertex -7.5 66 3
      vertex -4.5 24 3
      vertex -4.5 78 3
    endloop
  endfacet
  facet normal -0 0 1
    outer loop
      vertex -12.75 70.5 3
      vertex -12.75 72.75 3
      vertex -15 70.5 3
    endloop
  endfacet
  facet normal 0 -0 1
    outer loop
      vertex -7.5 68.25 3
      vertex -7.5 66 3
      vertex -4.5 78 3
    endloop
  endfacet
  facet normal 0 0 1
    outer loop
      vertex -10.037 11.1472 3
      vertex -12.1353 8.81678 3
      vertex -14.6722 3.11868 3
    endloop
  endfacet
  facet normal 0 -0 1
    outer loop
      vertex -10.037 11.1472 3
      vertex -14.6722 3.11868 3
      vertex -7.5 12.9904 3
    endloop
  endfacet
  facet normal 0 0 1
    outer loop
      vertex -9.74279 -5.625 3
      vertex -10.8667 -2.91171 3
      vertex -14.6722 3.11868 3
    endloop
  endfacet
  facet normal 0 -0 1
    outer loop
      vertex 7.95495 -7.95495 3
      vertex 5.625 -9.74279 3
      vertex 10.037 -11.1472 3
    endloop
  endfacet
  facet normal 0 0 1
    outer loop
      vertex -12 70.5 3
      vertex -9 72.75 3
      vertex -9.75 72.75 3
    endloop
  endfacet
  facet normal 0 0 1
    outer loop
      vertex -9 72.75 3
      vertex -7.5 70.5 3
      vertex -7.5 75 3
    endloop
  endfacet
  facet normal 0 0 1
    outer loop
      vertex -1.56793 14.9178 3
      vertex -7.95495 7.95495 3
      vertex -5.625 9.74279 3
    endloop
  endfacet
  facet normal 0 -0 1
    outer loop
      vertex 9.74279 -5.625 3
      vertex 7.95495 -7.95495 3
      vertex 12.1353 -8.81678 3
    endloop
  endfacet
  facet normal 0 -0 1
    outer loop
      vertex 11.25 0 3
      vertex 10.8667 -2.91171 3
      vertex 14.6722 -3.11868 3
    endloop
  endfacet
  facet normal 0 0 1
    outer loop
      vertex 7.95495 7.95495 3
      vertex 9.74279 5.625 3
      vertex 13.7032 6.10105 3
    endloop
  endfacet
  facet normal 0 0 1
    outer loop
      vertex -7.95495 7.95495 3
      vertex -14.6722 3.11868 3
      vertex -9.74279 5.625 3
    endloop
  endfacet
  facet normal -0 0 1
    outer loop
      vertex -4.5 14.2946 3
      vertex -4.5 21 3
      vertex -7.5 12.9904 3
    endloop
  endfacet
  facet normal 0 0 1
    outer loop
      vertex 9.74279 5.625 3
      vertex 10.8667 2.91171 3
      vertex 14.6722 3.11868 3
    endloop
  endfacet
  facet normal 0 -0 1
    outer loop
      vertex 4.5 14.2946 3
      vertex -2.91171 10.8667 3
      vertex 7.5 12.9904 3
    endloop
  endfacet
  facet normal 0 0 1
    outer loop
      vertex -1.56793 14.9178 3
      vertex -5.625 9.74279 3
      vertex -2.91171 10.8667 3
    endloop
  endfacet
  facet normal 0 0 1
    outer loop
      vertex -2.91171 10.8667 3
      vertex 0 11.25 3
      vertex 7.5 12.9904 3
    endloop
  endfacet
  facet normal 0 -0 1
    outer loop
      vertex 7.5 12.9904 3
      vertex 2.91171 10.8667 3
      vertex 10.037 11.1472 3
    endloop
  endfacet
  facet normal 0 0 1
    outer loop
      vertex 2.91171 10.8667 3
      vertex 5.625 9.74279 3
      vertex 10.037 11.1472 3
    endloop
  endfacet
  facet normal 0 0 1
    outer loop
      vertex 0 11.25 3
      vertex 2.91171 10.8667 3
      vertex 7.5 12.9904 3
    endloop
  endfacet
  facet normal 0 -0 1
    outer loop
      vertex 10.037 11.1472 3
      vertex 7.95495 7.95495 3
      vertex 12.1353 8.81678 3
    endloop
  endfacet
  facet normal 0 -0 1
    outer loop
      vertex 13.7032 6.10105 3
      vertex 9.74279 5.625 3
      vertex 14.6722 3.11868 3
    endloop
  endfacet
  facet normal 0 -0 1
    outer loop
      vertex 14.6722 3.11868 3
      vertex 10.8667 2.91171 3
      vertex 15 0 3
    endloop
  endfacet
  facet normal 0 0 1
    outer loop
      vertex 15 0 3
      vertex 11.25 0 3
      vertex 14.6722 -3.11868 3
    endloop
  endfacet
  facet normal -0 0 1
    outer loop
      vertex 14.6722 -3.11868 3
      vertex 10.8667 -2.91171 3
      vertex 13.7032 -6.10105 3
    endloop
  endfacet
  facet normal -0 0 1
    outer loop
      vertex 13.7032 -6.10105 3
      vertex 9.74279 -5.625 3
      vertex 12.1353 -8.81678 3
    endloop
  endfacet
  facet normal -0 0 1
    outer loop
      vertex 12.1353 -8.81678 3
      vertex 7.95495 -7.95495 3
      vertex 10.037 -11.1472 3
    endloop
  endfacet
  facet normal 0 -0 1
    outer loop
      vertex 2.91171 -10.8667 3
      vertex 0 -11.25 3
      vertex 4.63525 -14.2658 3
    endloop
  endfacet
  facet normal -0 0 1
    outer loop
      vertex 10.037 -11.1472 3
      vertex 5.625 -9.74279 3
      vertex 7.5 -12.9904 3
    endloop
  endfacet
  facet normal 0 0 1
    outer loop
      vertex -10.8667 2.91171 3
      vertex -9.74279 5.625 3
      vertex -14.6722 3.11868 3
    endloop
  endfacet
  facet normal -0 0 1
    outer loop
      vertex 7.5 -12.9904 3
      vertex 2.91171 -10.8667 3
      vertex 4.63525 -14.2658 3
    endloop
  endfacet
  facet normal -0 0 1
    outer loop
      vertex 4.63525 -14.2658 3
      vertex 0 -11.25 3
      vertex 1.56793 -14.9178 3
    endloop
  endfacet
  facet normal -0 0 1
    outer loop
      vertex 1.56793 -14.9178 3
      vertex -2.91171 -10.8667 3
      vertex -1.56793 -14.9178 3
    endloop
  endfacet
  facet normal 0 -0 1
    outer loop
      vertex 10.8667 -2.91171 3
      vertex 9.74279 -5.625 3
      vertex 13.7032 -6.10105 3
    endloop
  endfacet
  facet normal 0 0 1
    outer loop
      vertex -1.56793 -14.9178 3
      vertex -5.625 -9.74279 3
      vertex -4.63525 -14.2658 3
    endloop
  endfacet
  facet normal -0 -0 1
    outer loop
      vertex -5.625 -9.74279 3
      vertex -7.95495 -7.95495 3
      vertex -4.63525 -14.2658 3
    endloop
  endfacet
  facet normal 0 0 1
    outer loop
      vertex -4.63525 -14.2658 3
      vertex -9.74279 -5.625 3
      vertex -7.5 -12.9904 3
    endloop
  endfacet
  facet normal 0 0 1
    outer loop
      vertex -1.56793 14.9178 3
      vertex -14.6722 3.11868 3
      vertex -7.95495 7.95495 3
    endloop
  endfacet
  facet normal 0 -0 1
    outer loop
      vertex -7.5 12.9904 3
      vertex -14.6722 3.11868 3
      vertex -4.5 14.2946 3
    endloop
  endfacet
  facet normal 0 -0 1
    outer loop
      vertex -4.5 24 3
      vertex -4.5 21 3
      vertex 4.5 24 3
    endloop
  endfacet
  facet normal 0 0 1
    outer loop
      vertex -4.5 24 3
      vertex -7.5 12.9904 3
      vertex -4.5 21 3
    endloop
  endfacet
  facet normal 0 -0 1
    outer loop
      vertex 4.5 24 3
      vertex 4.5 21 3
      vertex 7.5 12.9904 3
    endloop
  endfacet
  facet normal 0 -0 1
    outer loop
      vertex 4.5 21 3
      vertex 4.5 14.2946 3
      vertex 7.5 12.9904 3
    endloop
  endfacet
  facet normal 0 -0 1
    outer loop
      vertex 1.56793 14.9178 3
      vertex -2.91171 10.8667 3
      vertex 4.5 14.2946 3
    endloop
  endfacet
  facet normal 0 0 1
    outer loop
      vertex 1.56793 14.9178 3
      vertex -1.56793 14.9178 3
      vertex -2.91171 10.8667 3
    endloop
  endfacet
  facet normal 0 0 1
    outer loop
      vertex -4.5 21 3
      vertex 4.5 21 3
      vertex 4.5 24 3
    endloop
  endfacet
  facet normal 0 0 1
    outer loop
      vertex 12 60 3
      vertex 17.25 60 3
      vertex 12 64.5 3
    endloop
  endfacet
  facet normal 0 0 1
    outer loop
      vertex -7.5 68.25 3
      vertex -9 68.25 3
      vertex -9 66 3
    endloop
  endfacet
  facet normal 0 0 1
    outer loop
      vertex 4.5 72 3
      vertex 7.5 66 3
      vertex 7.5 72 3
    endloop
  endfacet
  facet normal 0 -0 1
    outer loop
      vertex 7.5 66 3
      vertex 7.5 60 3
      vertex 9.75 66 3
    endloop
  endfacet
  facet normal 0 0 1
    outer loop
      vertex 4.5 72 3
      vertex 7.5 60 3
      vertex 7.5 66 3
    endloop
  endfacet
  facet normal 0 -0 1
    outer loop
      vertex 4.5 72 3
      vertex 4.5 24 3
      vertex 7.5 60 3
    endloop
  endfacet
  facet normal -0 -0 1
    outer loop
      vertex -2.91171 -10.8667 3
      vertex -5.625 -9.74279 3
      vertex -1.56793 -14.9178 3
    endloop
  endfacet
  facet normal -0 -0 1
    outer loop
      vertex 0 -11.25 3
      vertex -2.91171 -10.8667 3
      vertex 1.56793 -14.9178 3
    endloop
  endfacet
  facet normal 0 0 1
    outer loop
      vertex -11.25 0 3
      vertex -10.8667 2.91171 3
      vertex -14.6722 3.11868 3
    endloop
  endfacet
endsolid OpenSCAD_Model
