solid OpenSCAD_Model
  facet normal -0 0 -1
    outer loop
      vertex -50 0 0
      vertex -48.9074 10.3956 0
      vertex -48.9074 -10.3956 0
    endloop
  endfacet
  facet normal 0 -0 -1
    outer loop
      vertex -48.9074 -10.3956 0
      vertex -48.9074 10.3956 0
      vertex -45.6773 20.3368 0
    endloop
  endfacet
  facet normal 0 0 -1
    outer loop
      vertex -48.9074 -10.3956 0
      vertex -45.6773 20.3368 0
      vertex -40.4508 29.3893 0
    endloop
  endfacet
  facet normal 0 0 -1
    outer loop
      vertex -48.9074 -10.3956 0
      vertex -40.4508 29.3893 0
      vertex -33.4565 37.1572 0
    endloop
  endfacet
  facet normal 0 0 -1
    outer loop
      vertex -48.9074 -10.3956 0
      vertex -33.4565 37.1572 0
      vertex -25 43.3013 0
    endloop
  endfacet
  facet normal 0 0 -1
    outer loop
      vertex -48.9074 -10.3956 0
      vertex -25 43.3013 0
      vertex -15.4508 47.5528 0
    endloop
  endfacet
  facet normal 0 0 -1
    outer loop
      vertex -48.9074 -10.3956 0
      vertex -15.4508 47.5528 0
      vertex -5.22642 49.7261 0
    endloop
  endfacet
  facet normal 0 0 -1
    outer loop
      vertex -48.9074 -10.3956 0
      vertex -5.22642 49.7261 0
      vertex 5.22642 49.7261 0
    endloop
  endfacet
  facet normal 0 0 -1
    outer loop
      vertex -48.9074 -10.3956 0
      vertex 5.22642 49.7261 0
      vertex 15.4508 47.5528 0
    endloop
  endfacet
  facet normal 0 0 -1
    outer loop
      vertex -48.9074 -10.3956 0
      vertex 15.4508 47.5528 0
      vertex 25 43.3013 0
    endloop
  endfacet
  facet normal 0 0 -1
    outer loop
      vertex -10.445 11.9499 0
      vertex 25 43.3013 0
      vertex 33.4565 37.1572 0
    endloop
  endfacet
  facet normal 0 0 -1
    outer loop
      vertex 11.247 8.43634 0
      vertex 45.6773 20.3368 0
      vertex 48.9074 10.3956 0
    endloop
  endfacet
  facet normal 0 0 -1
    outer loop
      vertex -48.9074 -10.3956 0
      vertex 48.9074 10.3956 0
      vertex 50 0 0
    endloop
  endfacet
  facet normal -0 0 -1
    outer loop
      vertex 11.247 11.5637 0
      vertex 45.6773 20.3368 0
      vertex 12 10 0
    endloop
  endfacet
  facet normal -0 0 -1
    outer loop
      vertex 11.247 -11.5637 0
      vertex 48.9074 -10.3956 0
      vertex 45.6773 -20.3368 0
    endloop
  endfacet
  facet normal 0 0 -1
    outer loop
      vertex -48.9074 -10.3956 0
      vertex 45.6773 -20.3368 0
      vertex 40.4508 -29.3893 0
    endloop
  endfacet
  facet normal 0 0 -1
    outer loop
      vertex -48.9074 -10.3956 0
      vertex 40.4508 -29.3893 0
      vertex 33.4565 -37.1572 0
    endloop
  endfacet
  facet normal 0 0 -1
    outer loop
      vertex -48.9074 -10.3956 0
      vertex 33.4565 -37.1572 0
      vertex 25 -43.3013 0
    endloop
  endfacet
  facet normal 0 0 -1
    outer loop
      vertex -48.9074 -10.3956 0
      vertex 25 -43.3013 0
      vertex 15.4508 -47.5528 0
    endloop
  endfacet
  facet normal 0 0 -1
    outer loop
      vertex -48.9074 -10.3956 0
      vertex 15.4508 -47.5528 0
      vertex 5.22642 -49.7261 0
    endloop
  endfacet
  facet normal 0 0 -1
    outer loop
      vertex -48.9074 -10.3956 0
      vertex 5.22642 -49.7261 0
      vertex -5.22642 -49.7261 0
    endloop
  endfacet
  facet normal 0 0 -1
    outer loop
      vertex -48.9074 -10.3956 0
      vertex -5.22642 -49.7261 0
      vertex -15.4508 -47.5528 0
    endloop
  endfacet
  facet normal 0 0 -1
    outer loop
      vertex -48.9074 -10.3956 0
      vertex -15.4508 -47.5528 0
      vertex -25 -43.3013 0
    endloop
  endfacet
  facet normal 0 0 -1
    outer loop
      vertex -48.9074 -10.3956 0
      vertex -25 -43.3013 0
      vertex -33.4565 -37.1572 0
    endloop
  endfacet
  facet normal 0 0 -1
    outer loop
      vertex -48.9074 -10.3956 0
      vertex -33.4565 -37.1572 0
      vertex -40.4508 -29.3893 0
    endloop
  endfacet
  facet normal 0 0 -1
    outer loop
      vertex -48.9074 -10.3956 0
      vertex -40.4508 -29.3893 0
      vertex -45.6773 -20.3368 0
    endloop
  endfacet
  facet normal 0 -0 -1
    outer loop
      vertex -11.8019 10.8678 0
      vertex -48.9074 -10.3956 0
      vertex -10.445 11.9499 0
    endloop
  endfacet
  facet normal 0 0 -1
    outer loop
      vertex 11.247 -11.5637 0
      vertex 45.6773 -20.3368 0
      vertex 9.55496 -11.9499 0
    endloop
  endfacet
  facet normal 0 0 -1
    outer loop
      vertex -48.9074 -10.3956 0
      vertex -11.8019 -10.8678 0
      vertex -10.445 -11.9499 0
    endloop
  endfacet
  facet normal 0 0 -1
    outer loop
      vertex -48.9074 -10.3956 0
      vertex -10.445 -11.9499 0
      vertex 45.6773 -20.3368 0
    endloop
  endfacet
  facet normal -0 0 -1
    outer loop
      vertex -10.445 -11.9499 0
      vertex -8.75302 -11.5637 0
      vertex 45.6773 -20.3368 0
    endloop
  endfacet
  facet normal 0 0 -1
    outer loop
      vertex -8 -10 0
      vertex 9.55496 -11.9499 0
      vertex 45.6773 -20.3368 0
    endloop
  endfacet
  facet normal 0 0 -1
    outer loop
      vertex -8 -10 0
      vertex 8.19806 -10.8678 0
      vertex 9.55496 -11.9499 0
    endloop
  endfacet
  facet normal -0 0 -1
    outer loop
      vertex -10.445 -8.05014 0
      vertex 50 0 0
      vertex -8.75302 -8.43634 0
    endloop
  endfacet
  facet normal 0 0 -1
    outer loop
      vertex -11.8019 -10.8678 0
      vertex -48.9074 -10.3956 0
      vertex -11.8019 -9.13223 0
    endloop
  endfacet
  facet normal 0 0 -1
    outer loop
      vertex -48.9074 -10.3956 0
      vertex 50 0 0
      vertex -10.445 -8.05014 0
    endloop
  endfacet
  facet normal 0 0 -1
    outer loop
      vertex -8.75302 -8.43634 0
      vertex 50 0 0
      vertex 9.55496 -8.05014 0
    endloop
  endfacet
  facet normal -0 0 -1
    outer loop
      vertex -8 10 0
      vertex 40.4508 29.3893 0
      vertex -8.75302 8.43634 0
    endloop
  endfacet
  facet normal -0 0 -1
    outer loop
      vertex 11.247 -8.43634 0
      vertex 50 0 0
      vertex 48.9074 -10.3956 0
    endloop
  endfacet
  facet normal 0 0 -1
    outer loop
      vertex -48.9074 -10.3956 0
      vertex -11.8019 10.8678 0
      vertex -11.8019 9.13223 0
    endloop
  endfacet
  facet normal -0 0 -1
    outer loop
      vertex -10.445 11.9499 0
      vertex 40.4508 29.3893 0
      vertex -8.75302 11.5637 0
    endloop
  endfacet
  facet normal 0 0 -1
    outer loop
      vertex -48.9074 -10.3956 0
      vertex -11.8019 9.13223 0
      vertex -10.445 8.05014 0
    endloop
  endfacet
  facet normal 0 0 -1
    outer loop
      vertex -48.9074 -10.3956 0
      vertex -10.445 8.05014 0
      vertex -8.75302 8.43634 0
    endloop
  endfacet
  facet normal 0 0 -1
    outer loop
      vertex -48.9074 -10.3956 0
      vertex -8.75302 8.43634 0
      vertex 40.4508 29.3893 0
    endloop
  endfacet
  facet normal -0 0 -1
    outer loop
      vertex -8.75302 11.5637 0
      vertex 40.4508 29.3893 0
      vertex -8 10 0
    endloop
  endfacet
  facet normal 0 0 -1
    outer loop
      vertex -10.445 11.9499 0
      vertex 33.4565 37.1572 0
      vertex 40.4508 29.3893 0
    endloop
  endfacet
  facet normal 0 0 -1
    outer loop
      vertex -48.9074 -10.3956 0
      vertex 25 43.3013 0
      vertex -10.445 11.9499 0
    endloop
  endfacet
  facet normal 0 0 -1
    outer loop
      vertex 9.55496 8.05014 0
      vertex -48.9074 -10.3956 0
      vertex 8.19806 9.13223 0
    endloop
  endfacet
  facet normal 0 0 -1
    outer loop
      vertex 8.19806 -10.8678 0
      vertex -8.75302 -8.43634 0
      vertex 8.19806 -9.13223 0
    endloop
  endfacet
  facet normal 0 0 -1
    outer loop
      vertex 8.19806 -10.8678 0
      vertex -8 -10 0
      vertex -8.75302 -8.43634 0
    endloop
  endfacet
  facet normal 0 0 -1
    outer loop
      vertex 11.247 -8.43634 0
      vertex 48.9074 -10.3956 0
      vertex 12 -10 0
    endloop
  endfacet
  facet normal 0 0 -1
    outer loop
      vertex 12 -10 0
      vertex 48.9074 -10.3956 0
      vertex 11.247 -11.5637 0
    endloop
  endfacet
  facet normal -0 0 -1
    outer loop
      vertex 9.55496 -8.05014 0
      vertex 50 0 0
      vertex 11.247 -8.43634 0
    endloop
  endfacet
  facet normal 0 -0 -1
    outer loop
      vertex 8.19806 -9.13223 0
      vertex -8.75302 -8.43634 0
      vertex 9.55496 -8.05014 0
    endloop
  endfacet
  facet normal 0 0 -1
    outer loop
      vertex -48.9074 -10.3956 0
      vertex 8.19806 10.8678 0
      vertex 8.19806 9.13223 0
    endloop
  endfacet
  facet normal -0 0 -1
    outer loop
      vertex 9.55496 11.9499 0
      vertex 45.6773 20.3368 0
      vertex 11.247 11.5637 0
    endloop
  endfacet
  facet normal -0 0 -1
    outer loop
      vertex 12 10 0
      vertex 45.6773 20.3368 0
      vertex 11.247 8.43634 0
    endloop
  endfacet
  facet normal 0 0 -1
    outer loop
      vertex -48.9074 -10.3956 0
      vertex 9.55496 8.05014 0
      vertex 48.9074 10.3956 0
    endloop
  endfacet
  facet normal 0 0 -1
    outer loop
      vertex 9.55496 8.05014 0
      vertex 11.247 8.43634 0
      vertex 48.9074 10.3956 0
    endloop
  endfacet
  facet normal 0 0 -1
    outer loop
      vertex 9.55496 11.9499 0
      vertex 40.4508 29.3893 0
      vertex 45.6773 20.3368 0
    endloop
  endfacet
  facet normal 0 0 -1
    outer loop
      vertex -48.9074 -10.3956 0
      vertex 40.4508 29.3893 0
      vertex 9.55496 11.9499 0
    endloop
  endfacet
  facet normal 0 0 -1
    outer loop
      vertex -48.9074 -10.3956 0
      vertex 9.55496 11.9499 0
      vertex 8.19806 10.8678 0
    endloop
  endfacet
  facet normal 0 -0 -1
    outer loop
      vertex -11.8019 -9.13223 0
      vertex -48.9074 -10.3956 0
      vertex -10.445 -8.05014 0
    endloop
  endfacet
  facet normal 0 0 -1
    outer loop
      vertex -8 -10 0
      vertex 45.6773 -20.3368 0
      vertex -8.75302 -11.5637 0
    endloop
  endfacet
  facet normal -0.994522 0.104528 0
    outer loop
      vertex -50 0 0
      vertex -50 0 5
      vertex -48.9074 10.3956 0
    endloop
  endfacet
  facet normal -0.994522 0.104528 0
    outer loop
      vertex -48.9074 10.3956 0
      vertex -50 0 5
      vertex -48.9074 10.3956 5
    endloop
  endfacet
  facet normal -0.994522 -0.104528 -0
    outer loop
      vertex -50 0 0
      vertex -48.9074 -10.3956 0
      vertex -50 0 5
    endloop
  endfacet
  facet normal -0.994522 -0.104528 0
    outer loop
      vertex -50 0 5
      vertex -48.9074 -10.3956 0
      vertex -48.9074 -10.3956 5
    endloop
  endfacet
  facet normal -0.951057 -0.309017 -0
    outer loop
      vertex -48.9074 -10.3956 0
      vertex -45.6773 -20.3368 0
      vertex -48.9074 -10.3956 5
    endloop
  endfacet
  facet normal -0.951057 -0.309017 0
    outer loop
      vertex -48.9074 -10.3956 5
      vertex -45.6773 -20.3368 0
      vertex -45.6773 -20.3368 5
    endloop
  endfacet
  facet normal -0.866025 -0.5 -0
    outer loop
      vertex -45.6773 -20.3368 0
      vertex -40.4508 -29.3893 0
      vertex -45.6773 -20.3368 5
    endloop
  endfacet
  facet normal -0.866025 -0.5 0
    outer loop
      vertex -45.6773 -20.3368 5
      vertex -40.4508 -29.3893 0
      vertex -40.4508 -29.3893 5
    endloop
  endfacet
  facet normal -0.743145 -0.669131 -0
    outer loop
      vertex -40.4508 -29.3893 0
      vertex -33.4565 -37.1572 0
      vertex -40.4508 -29.3893 5
    endloop
  endfacet
  facet normal -0.743145 -0.669131 0
    outer loop
      vertex -40.4508 -29.3893 5
      vertex -33.4565 -37.1572 0
      vertex -33.4565 -37.1572 5
    endloop
  endfacet
  facet normal -0.587785 -0.809017 0
    outer loop
      vertex -33.4565 -37.1572 5
      vertex -33.4565 -37.1572 0
      vertex -25 -43.3013 0
    endloop
  endfacet
  facet normal -0.587785 -0.809017 0
    outer loop
      vertex -25 -43.3013 5
      vertex -33.4565 -37.1572 5
      vertex -25 -43.3013 0
    endloop
  endfacet
  facet normal -0.406737 -0.913545 0
    outer loop
      vertex -25 -43.3013 5
      vertex -25 -43.3013 0
      vertex -15.4508 -47.5528 0
    endloop
  endfacet
  facet normal -0.406737 -0.913545 0
    outer loop
      vertex -15.4508 -47.5528 5
      vertex -25 -43.3013 5
      vertex -15.4508 -47.5528 0
    endloop
  endfacet
  facet normal -0.207912 -0.978148 0
    outer loop
      vertex -15.4508 -47.5528 5
      vertex -15.4508 -47.5528 0
      vertex -5.22642 -49.7261 0
    endloop
  endfacet
  facet normal -0.207912 -0.978148 0
    outer loop
      vertex -5.22642 -49.7261 5
      vertex -15.4508 -47.5528 5
      vertex -5.22642 -49.7261 0
    endloop
  endfacet
  facet normal 0 -1 0
    outer loop
      vertex -5.22642 -49.7261 5
      vertex -5.22642 -49.7261 0
      vertex 5.22642 -49.7261 0
    endloop
  endfacet
  facet normal 0 -1 0
    outer loop
      vertex 5.22642 -49.7261 5
      vertex -5.22642 -49.7261 5
      vertex 5.22642 -49.7261 0
    endloop
  endfacet
  facet normal 0.207912 -0.978148 0
    outer loop
      vertex 5.22642 -49.7261 5
      vertex 5.22642 -49.7261 0
      vertex 15.4508 -47.5528 0
    endloop
  endfacet
  facet normal 0.207912 -0.978148 0
    outer loop
      vertex 15.4508 -47.5528 5
      vertex 5.22642 -49.7261 5
      vertex 15.4508 -47.5528 0
    endloop
  endfacet
  facet normal 0.406737 -0.913545 0
    outer loop
      vertex 15.4508 -47.5528 5
      vertex 15.4508 -47.5528 0
      vertex 25 -43.3013 0
    endloop
  endfacet
  facet normal 0.406737 -0.913545 0
    outer loop
      vertex 25 -43.3013 5
      vertex 15.4508 -47.5528 5
      vertex 25 -43.3013 0
    endloop
  endfacet
  facet normal 0.587785 -0.809017 0
    outer loop
      vertex 25 -43.3013 5
      vertex 25 -43.3013 0
      vertex 33.4565 -37.1572 0
    endloop
  endfacet
  facet normal 0.587785 -0.809017 0
    outer loop
      vertex 33.4565 -37.1572 5
      vertex 25 -43.3013 5
      vertex 33.4565 -37.1572 0
    endloop
  endfacet
  facet normal 0.743145 -0.669131 0
    outer loop
      vertex 33.4565 -37.1572 5
      vertex 33.4565 -37.1572 0
      vertex 40.4508 -29.3893 0
    endloop
  endfacet
  facet normal 0.743145 -0.669131 0
    outer loop
      vertex 40.4508 -29.3893 5
      vertex 33.4565 -37.1572 5
      vertex 40.4508 -29.3893 0
    endloop
  endfacet
  facet normal 0.866025 -0.5 0
    outer loop
      vertex 40.4508 -29.3893 5
      vertex 40.4508 -29.3893 0
      vertex 45.6773 -20.3368 0
    endloop
  endfacet
  facet normal 0.866025 -0.5 0
    outer loop
      vertex 45.6773 -20.3368 5
      vertex 40.4508 -29.3893 5
      vertex 45.6773 -20.3368 0
    endloop
  endfacet
  facet normal 0.951057 -0.309017 0
    outer loop
      vertex 45.6773 -20.3368 5
      vertex 45.6773 -20.3368 0
      vertex 48.9074 -10.3956 0
    endloop
  endfacet
  facet normal 0.951057 -0.309017 0
    outer loop
      vertex 48.9074 -10.3956 5
      vertex 45.6773 -20.3368 5
      vertex 48.9074 -10.3956 0
    endloop
  endfacet
  facet normal 0.994522 -0.104528 0
    outer loop
      vertex 48.9074 -10.3956 5
      vertex 48.9074 -10.3956 0
      vertex 50 0 0
    endloop
  endfacet
  facet normal 0.994522 -0.104528 0
    outer loop
      vertex 50 0 5
      vertex 48.9074 -10.3956 5
      vertex 50 0 0
    endloop
  endfacet
  facet normal 0.994522 0.104528 0
    outer loop
      vertex 50 0 0
      vertex 48.9074 10.3956 0
      vertex 48.9074 10.3956 5
    endloop
  endfacet
  facet normal 0.994522 0.104528 -0
    outer loop
      vertex 50 0 5
      vertex 50 0 0
      vertex 48.9074 10.3956 5
    endloop
  endfacet
  facet normal 0.951057 0.309017 0
    outer loop
      vertex 48.9074 10.3956 0
      vertex 45.6773 20.3368 0
      vertex 45.6773 20.3368 5
    endloop
  endfacet
  facet normal 0.951057 0.309017 -0
    outer loop
      vertex 48.9074 10.3956 5
      vertex 48.9074 10.3956 0
      vertex 45.6773 20.3368 5
    endloop
  endfacet
  facet normal 0.866025 0.5 0
    outer loop
      vertex 45.6773 20.3368 0
      vertex 40.4508 29.3893 0
      vertex 40.4508 29.3893 5
    endloop
  endfacet
  facet normal 0.866025 0.5 -0
    outer loop
      vertex 45.6773 20.3368 5
      vertex 45.6773 20.3368 0
      vertex 40.4508 29.3893 5
    endloop
  endfacet
  facet normal 0.743145 0.669131 0
    outer loop
      vertex 40.4508 29.3893 0
      vertex 33.4565 37.1572 0
      vertex 33.4565 37.1572 5
    endloop
  endfacet
  facet normal 0.743145 0.669131 -0
    outer loop
      vertex 40.4508 29.3893 5
      vertex 40.4508 29.3893 0
      vertex 33.4565 37.1572 5
    endloop
  endfacet
  facet normal 0.587785 0.809017 0
    outer loop
      vertex 25 43.3013 0
      vertex 25 43.3013 5
      vertex 33.4565 37.1572 0
    endloop
  endfacet
  facet normal 0.587785 0.809017 0
    outer loop
      vertex 33.4565 37.1572 0
      vertex 25 43.3013 5
      vertex 33.4565 37.1572 5
    endloop
  endfacet
  facet normal 0.406737 0.913545 0
    outer loop
      vertex 15.4508 47.5528 0
      vertex 15.4508 47.5528 5
      vertex 25 43.3013 0
    endloop
  endfacet
  facet normal 0.406737 0.913545 0
    outer loop
      vertex 25 43.3013 0
      vertex 15.4508 47.5528 5
      vertex 25 43.3013 5
    endloop
  endfacet
  facet normal 0.207912 0.978148 0
    outer loop
      vertex 5.22642 49.7261 0
      vertex 5.22642 49.7261 5
      vertex 15.4508 47.5528 0
    endloop
  endfacet
  facet normal 0.207912 0.978148 0
    outer loop
      vertex 15.4508 47.5528 0
      vertex 5.22642 49.7261 5
      vertex 15.4508 47.5528 5
    endloop
  endfacet
  facet normal 0 1 0
    outer loop
      vertex -5.22642 49.7261 0
      vertex -5.22642 49.7261 5
      vertex 5.22642 49.7261 0
    endloop
  endfacet
  facet normal 0 1 0
    outer loop
      vertex 5.22642 49.7261 0
      vertex -5.22642 49.7261 5
      vertex 5.22642 49.7261 5
    endloop
  endfacet
  facet normal -0.207912 0.978148 0
    outer loop
      vertex -15.4508 47.5528 0
      vertex -15.4508 47.5528 5
      vertex -5.22642 49.7261 0
    endloop
  endfacet
  facet normal -0.207912 0.978148 0
    outer loop
      vertex -5.22642 49.7261 0
      vertex -15.4508 47.5528 5
      vertex -5.22642 49.7261 5
    endloop
  endfacet
  facet normal -0.406737 0.913545 0
    outer loop
      vertex -25 43.3013 0
      vertex -25 43.3013 5
      vertex -15.4508 47.5528 0
    endloop
  endfacet
  facet normal -0.406737 0.913545 0
    outer loop
      vertex -15.4508 47.5528 0
      vertex -25 43.3013 5
      vertex -15.4508 47.5528 5
    endloop
  endfacet
  facet normal -0.587785 0.809017 0
    outer loop
      vertex -33.4565 37.1572 0
      vertex -33.4565 37.1572 5
      vertex -25 43.3013 0
    endloop
  endfacet
  facet normal -0.587785 0.809017 0
    outer loop
      vertex -25 43.3013 0
      vertex -33.4565 37.1572 5
      vertex -25 43.3013 5
    endloop
  endfacet
  facet normal -0.743145 0.669131 0
    outer loop
      vertex -40.4508 29.3893 0
      vertex -40.4508 29.3893 5
      vertex -33.4565 37.1572 0
    endloop
  endfacet
  facet normal -0.743145 0.669131 0
    outer loop
      vertex -33.4565 37.1572 0
      vertex -40.4508 29.3893 5
      vertex -33.4565 37.1572 5
    endloop
  endfacet
  facet normal -0.866025 0.5 0
    outer loop
      vertex -45.6773 20.3368 0
      vertex -45.6773 20.3368 5
      vertex -40.4508 29.3893 0
    endloop
  endfacet
  facet normal -0.866025 0.5 0
    outer loop
      vertex -40.4508 29.3893 0
      vertex -45.6773 20.3368 5
      vertex -40.4508 29.3893 5
    endloop
  endfacet
  facet normal -0.951057 0.309017 0
    outer loop
      vertex -48.9074 10.3956 0
      vertex -48.9074 10.3956 5
      vertex -45.6773 20.3368 0
    endloop
  endfacet
  facet normal -0.951057 0.309017 0
    outer loop
      vertex -45.6773 20.3368 0
      vertex -48.9074 10.3956 5
      vertex -45.6773 20.3368 5
    endloop
  endfacet
  facet normal 0.62349 -0.781831 0
    outer loop
      vertex -10.445 -8.05014 0
      vertex -10.445 -8.05014 5
      vertex -11.8019 -9.13223 5
    endloop
  endfacet
  facet normal 0.62349 -0.781831 0
    outer loop
      vertex -11.8019 -9.13223 0
      vertex -10.445 -8.05014 0
      vertex -11.8019 -9.13223 5
    endloop
  endfacet
  facet normal 1 0 0
    outer loop
      vertex -11.8019 -9.13223 0
      vertex -11.8019 -9.13223 5
      vertex -11.8019 -10.8678 5
    endloop
  endfacet
  facet normal 1 0 0
    outer loop
      vertex -11.8019 -10.8678 0
      vertex -11.8019 -9.13223 0
      vertex -11.8019 -10.8678 5
    endloop
  endfacet
  facet normal -0.222521 -0.974928 -0
    outer loop
      vertex -8.75302 -8.43634 0
      vertex -8.75302 -8.43634 5
      vertex -10.445 -8.05014 5
    endloop
  endfacet
  facet normal -0.222521 -0.974928 -0
    outer loop
      vertex -10.445 -8.05014 0
      vertex -8.75302 -8.43634 0
      vertex -10.445 -8.05014 5
    endloop
  endfacet
  facet normal -0.900969 -0.433884 0
    outer loop
      vertex -8 -10 5
      vertex -8.75302 -8.43634 5
      vertex -8 -10 0
    endloop
  endfacet
  facet normal -0.900969 -0.433884 0
    outer loop
      vertex -8 -10 0
      vertex -8.75302 -8.43634 5
      vertex -8.75302 -8.43634 0
    endloop
  endfacet
  facet normal -0.900969 0.433884 0
    outer loop
      vertex -8 -10 5
      vertex -8 -10 0
      vertex -8.75302 -11.5637 5
    endloop
  endfacet
  facet normal -0.900969 0.433884 0
    outer loop
      vertex -8.75302 -11.5637 5
      vertex -8 -10 0
      vertex -8.75302 -11.5637 0
    endloop
  endfacet
  facet normal -0.222521 0.974928 0
    outer loop
      vertex -8.75302 -11.5637 5
      vertex -8.75302 -11.5637 0
      vertex -10.445 -11.9499 5
    endloop
  endfacet
  facet normal -0.222521 0.974928 0
    outer loop
      vertex -10.445 -11.9499 5
      vertex -8.75302 -11.5637 0
      vertex -10.445 -11.9499 0
    endloop
  endfacet
  facet normal 0.62349 0.781831 -0
    outer loop
      vertex -10.445 -11.9499 5
      vertex -10.445 -11.9499 0
      vertex -11.8019 -10.8678 5
    endloop
  endfacet
  facet normal 0.62349 0.781831 -0
    outer loop
      vertex -11.8019 -10.8678 5
      vertex -10.445 -11.9499 0
      vertex -11.8019 -10.8678 0
    endloop
  endfacet
  facet normal 0.62349 -0.781831 0
    outer loop
      vertex -10.445 11.9499 0
      vertex -10.445 11.9499 5
      vertex -11.8019 10.8678 5
    endloop
  endfacet
  facet normal 0.62349 -0.781831 0
    outer loop
      vertex -11.8019 10.8678 0
      vertex -10.445 11.9499 0
      vertex -11.8019 10.8678 5
    endloop
  endfacet
  facet normal 1 0 0
    outer loop
      vertex -11.8019 10.8678 0
      vertex -11.8019 10.8678 5
      vertex -11.8019 9.13223 5
    endloop
  endfacet
  facet normal 1 0 0
    outer loop
      vertex -11.8019 9.13223 0
      vertex -11.8019 10.8678 0
      vertex -11.8019 9.13223 5
    endloop
  endfacet
  facet normal -0.222521 -0.974928 -0
    outer loop
      vertex -8.75302 11.5637 0
      vertex -8.75302 11.5637 5
      vertex -10.445 11.9499 5
    endloop
  endfacet
  facet normal -0.222521 -0.974928 -0
    outer loop
      vertex -10.445 11.9499 0
      vertex -8.75302 11.5637 0
      vertex -10.445 11.9499 5
    endloop
  endfacet
  facet normal -0.900969 -0.433884 0
    outer loop
      vertex -8 10 5
      vertex -8.75302 11.5637 5
      vertex -8 10 0
    endloop
  endfacet
  facet normal -0.900969 -0.433884 0
    outer loop
      vertex -8 10 0
      vertex -8.75302 11.5637 5
      vertex -8.75302 11.5637 0
    endloop
  endfacet
  facet normal -0.900969 0.433884 0
    outer loop
      vertex -8 10 5
      vertex -8 10 0
      vertex -8.75302 8.43634 5
    endloop
  endfacet
  facet normal -0.900969 0.433884 0
    outer loop
      vertex -8.75302 8.43634 5
      vertex -8 10 0
      vertex -8.75302 8.43634 0
    endloop
  endfacet
  facet normal -0.222521 0.974928 0
    outer loop
      vertex -8.75302 8.43634 5
      vertex -8.75302 8.43634 0
      vertex -10.445 8.05014 5
    endloop
  endfacet
  facet normal -0.222521 0.974928 0
    outer loop
      vertex -10.445 8.05014 5
      vertex -8.75302 8.43634 0
      vertex -10.445 8.05014 0
    endloop
  endfacet
  facet normal 0.62349 0.781831 -0
    outer loop
      vertex -10.445 8.05014 5
      vertex -10.445 8.05014 0
      vertex -11.8019 9.13223 5
    endloop
  endfacet
  facet normal 0.62349 0.781831 -0
    outer loop
      vertex -11.8019 9.13223 5
      vertex -10.445 8.05014 0
      vertex -11.8019 9.13223 0
    endloop
  endfacet
  facet normal 0.62349 -0.781831 0
    outer loop
      vertex 9.55496 -8.05014 0
      vertex 9.55496 -8.05014 5
      vertex 8.19806 -9.13223 5
    endloop
  endfacet
  facet normal 0.62349 -0.781831 0
    outer loop
      vertex 8.19806 -9.13223 0
      vertex 9.55496 -8.05014 0
      vertex 8.19806 -9.13223 5
    endloop
  endfacet
  facet normal 1 0 0
    outer loop
      vertex 8.19806 -9.13223 0
      vertex 8.19806 -9.13223 5
      vertex 8.19806 -10.8678 5
    endloop
  endfacet
  facet normal 1 0 0
    outer loop
      vertex 8.19806 -10.8678 0
      vertex 8.19806 -9.13223 0
      vertex 8.19806 -10.8678 5
    endloop
  endfacet
  facet normal -0.222521 -0.974928 -0
    outer loop
      vertex 11.247 -8.43634 0
      vertex 11.247 -8.43634 5
      vertex 9.55496 -8.05014 5
    endloop
  endfacet
  facet normal -0.222521 -0.974928 -0
    outer loop
      vertex 9.55496 -8.05014 0
      vertex 11.247 -8.43634 0
      vertex 9.55496 -8.05014 5
    endloop
  endfacet
  facet normal -0.900969 -0.433884 0
    outer loop
      vertex 12 -10 5
      vertex 11.247 -8.43634 5
      vertex 12 -10 0
    endloop
  endfacet
  facet normal -0.900969 -0.433884 0
    outer loop
      vertex 12 -10 0
      vertex 11.247 -8.43634 5
      vertex 11.247 -8.43634 0
    endloop
  endfacet
  facet normal -0.900969 0.433884 0
    outer loop
      vertex 12 -10 5
      vertex 12 -10 0
      vertex 11.247 -11.5637 5
    endloop
  endfacet
  facet normal -0.900969 0.433884 0
    outer loop
      vertex 11.247 -11.5637 5
      vertex 12 -10 0
      vertex 11.247 -11.5637 0
    endloop
  endfacet
  facet normal -0.222521 0.974928 0
    outer loop
      vertex 11.247 -11.5637 5
      vertex 11.247 -11.5637 0
      vertex 9.55496 -11.9499 5
    endloop
  endfacet
  facet normal -0.222521 0.974928 0
    outer loop
      vertex 9.55496 -11.9499 5
      vertex 11.247 -11.5637 0
      vertex 9.55496 -11.9499 0
    endloop
  endfacet
  facet normal 0.62349 0.781831 -0
    outer loop
      vertex 9.55496 -11.9499 5
      vertex 9.55496 -11.9499 0
      vertex 8.19806 -10.8678 5
    endloop
  endfacet
  facet normal 0.62349 0.781831 -0
    outer loop
      vertex 8.19806 -10.8678 5
      vertex 9.55496 -11.9499 0
      vertex 8.19806 -10.8678 0
    endloop
  endfacet
  facet normal 0.62349 -0.781831 0
    outer loop
      vertex 9.55496 11.9499 0
      vertex 9.55496 11.9499 5
      vertex 8.19806 10.8678 5
    endloop
  endfacet
  facet normal 0.62349 -0.781831 0
    outer loop
      vertex 8.19806 10.8678 0
      vertex 9.55496 11.9499 0
      vertex 8.19806 10.8678 5
    endloop
  endfacet
  facet normal 1 0 0
    outer loop
      vertex 8.19806 10.8678 0
      vertex 8.19806 10.8678 5
      vertex 8.19806 9.13223 5
    endloop
  endfacet
  facet normal 1 0 0
    outer loop
      vertex 8.19806 9.13223 0
      vertex 8.19806 10.8678 0
      vertex 8.19806 9.13223 5
    endloop
  endfacet
  facet normal -0.222521 -0.974928 -0
    outer loop
      vertex 11.247 11.5637 0
      vertex 11.247 11.5637 5
      vertex 9.55496 11.9499 5
    endloop
  endfacet
  facet normal -0.222521 -0.974928 -0
    outer loop
      vertex 9.55496 11.9499 0
      vertex 11.247 11.5637 0
      vertex 9.55496 11.9499 5
    endloop
  endfacet
  facet normal -0.900969 -0.433884 0
    outer loop
      vertex 12 10 5
      vertex 11.247 11.5637 5
      vertex 12 10 0
    endloop
  endfacet
  facet normal -0.900969 -0.433884 0
    outer loop
      vertex 12 10 0
      vertex 11.247 11.5637 5
      vertex 11.247 11.5637 0
    endloop
  endfacet
  facet normal -0.900969 0.433884 0
    outer loop
      vertex 12 10 5
      vertex 12 10 0
      vertex 11.247 8.43634 5
    endloop
  endfacet
  facet normal -0.900969 0.433884 0
    outer loop
      vertex 11.247 8.43634 5
      vertex 12 10 0
      vertex 11.247 8.43634 0
    endloop
  endfacet
  facet normal -0.222521 0.974928 0
    outer loop
      vertex 11.247 8.43634 5
      vertex 11.247 8.43634 0
      vertex 9.55496 8.05014 5
    endloop
  endfacet
  facet normal -0.222521 0.974928 0
    outer loop
      vertex 9.55496 8.05014 5
      vertex 11.247 8.43634 0
      vertex 9.55496 8.05014 0
    endloop
  endfacet
  facet normal 0.62349 0.781831 -0
    outer loop
      vertex 9.55496 8.05014 5
      vertex 9.55496 8.05014 0
      vertex 8.19806 9.13223 5
    endloop
  endfacet
  facet normal 0.62349 0.781831 -0
    outer loop
      vertex 8.19806 9.13223 5
      vertex 9.55496 8.05014 0
      vertex 8.19806 9.13223 0
    endloop
  endfacet
  facet normal 0 0 1
    outer loop
      vertex -48.9074 10.3956 5
      vertex -50 0 5
      vertex -48.9074 -10.3956 5
    endloop
  endfacet
  facet normal -0 -0 1
    outer loop
      vertex -46.8423 -1.5 5
      vertex -48.9074 10.3956 5
      vertex -45.6773 -20.3368 5
    endloop
  endfacet
  facet normal 0 0 1
    outer loop
      vertex -45.6773 -20.3368 5
      vertex -48.9074 10.3956 5
      vertex -48.9074 -10.3956 5
    endloop
  endfacet
  facet normal 0 0 1
    outer loop
      vertex -10.445 8.05014 5
      vertex -11.8019 9.13223 5
      vertex -48.9074 10.3956 5
    endloop
  endfacet
  facet normal 0 0 1
    outer loop
      vertex 46.8423 1.5 5
      vertex 47 0 5
      vertex 50 0 5
    endloop
  endfacet
  facet normal 0 0 1
    outer loop
      vertex 1.5 1.5 5
      vertex 46.8423 1.5 5
      vertex 9.55496 8.05014 5
    endloop
  endfacet
  facet normal 0 -0 1
    outer loop
      vertex 8.19806 9.13223 5
      vertex 1.5 1.5 5
      vertex 9.55496 8.05014 5
    endloop
  endfacet
  facet normal -0 0 1
    outer loop
      vertex -10.445 11.9499 5
      vertex -1.5 46.7425 5
      vertex -48.9074 10.3956 5
    endloop
  endfacet
  facet normal 0 0 1
    outer loop
      vertex -1.5 46.7425 5
      vertex 1.5 46.7425 5
      vertex 5.22642 49.7261 5
    endloop
  endfacet
  facet normal 0 0 1
    outer loop
      vertex 1.5 -1.5 5
      vertex 8.19806 -10.8678 5
      vertex 8.19806 -9.13223 5
    endloop
  endfacet
  facet normal 0 0 1
    outer loop
      vertex 1.5 46.7425 5
      vertex 8.19806 9.13223 5
      vertex 8.19806 10.8678 5
    endloop
  endfacet
  facet normal 0 0 1
    outer loop
      vertex 1.5 46.7425 5
      vertex 8.19806 10.8678 5
      vertex 9.55496 11.9499 5
    endloop
  endfacet
  facet normal 0 0 1
    outer loop
      vertex 1.5 46.7425 5
      vertex 9.55496 11.9499 5
      vertex 45.6773 20.3368 5
    endloop
  endfacet
  facet normal 0 0 1
    outer loop
      vertex 1.5 46.7425 5
      vertex 45.6773 20.3368 5
      vertex 40.4508 29.3893 5
    endloop
  endfacet
  facet normal 0 0 1
    outer loop
      vertex 1.5 46.7425 5
      vertex 40.4508 29.3893 5
      vertex 33.4565 37.1572 5
    endloop
  endfacet
  facet normal 0 -0 1
    outer loop
      vertex -15.4508 47.5528 5
      vertex -48.9074 10.3956 5
      vertex -5.22642 49.7261 5
    endloop
  endfacet
  facet normal 0 -0 1
    outer loop
      vertex -25 43.3013 5
      vertex -48.9074 10.3956 5
      vertex -15.4508 47.5528 5
    endloop
  endfacet
  facet normal 0 -0 1
    outer loop
      vertex -33.4565 37.1572 5
      vertex -48.9074 10.3956 5
      vertex -25 43.3013 5
    endloop
  endfacet
  facet normal 0 -0 1
    outer loop
      vertex -40.4508 29.3893 5
      vertex -48.9074 10.3956 5
      vertex -33.4565 37.1572 5
    endloop
  endfacet
  facet normal 0 -0 1
    outer loop
      vertex -45.6773 20.3368 5
      vertex -48.9074 10.3956 5
      vertex -40.4508 29.3893 5
    endloop
  endfacet
  facet normal 0 0 1
    outer loop
      vertex -40.4508 -29.3893 5
      vertex -46.8423 -1.5 5
      vertex -45.6773 -20.3368 5
    endloop
  endfacet
  facet normal -0 -0 1
    outer loop
      vertex -47 0 5
      vertex -48.9074 10.3956 5
      vertex -46.8423 -1.5 5
    endloop
  endfacet
  facet normal 0 0 1
    outer loop
      vertex -46.8423 1.5 5
      vertex -1.5 1.5 5
      vertex -48.9074 10.3956 5
    endloop
  endfacet
  facet normal 0 0 1
    outer loop
      vertex -5.22642 49.7261 5
      vertex -1.5 46.7425 5
      vertex 5.22642 49.7261 5
    endloop
  endfacet
  facet normal 0 -0 1
    outer loop
      vertex -5.22642 49.7261 5
      vertex -48.9074 10.3956 5
      vertex -1.5 46.7425 5
    endloop
  endfacet
  facet normal 0 -0 1
    outer loop
      vertex 5.22642 49.7261 5
      vertex 1.5 46.7425 5
      vertex 15.4508 47.5528 5
    endloop
  endfacet
  facet normal 0 0 1
    outer loop
      vertex 1.5 46.7425 5
      vertex 33.4565 37.1572 5
      vertex 25 43.3013 5
    endloop
  endfacet
  facet normal 0 -0 1
    outer loop
      vertex 46.8423 -1.5 5
      vertex 1.5 -1.5 5
      vertex 48.9074 -10.3956 5
    endloop
  endfacet
  facet normal 0 -0 1
    outer loop
      vertex 48.9074 10.3956 5
      vertex 46.8423 1.5 5
      vertex 50 0 5
    endloop
  endfacet
  facet normal 0 0 1
    outer loop
      vertex 50 0 5
      vertex 47 0 5
      vertex 48.9074 -10.3956 5
    endloop
  endfacet
  facet normal 0 -0 1
    outer loop
      vertex 47 0 5
      vertex 46.8423 -1.5 5
      vertex 48.9074 -10.3956 5
    endloop
  endfacet
  facet normal -0 0 1
    outer loop
      vertex 48.9074 -10.3956 5
      vertex 1.5 -1.5 5
      vertex 45.6773 -20.3368 5
    endloop
  endfacet
  facet normal 0 0 1
    outer loop
      vertex 1.5 46.7425 5
      vertex 25 43.3013 5
      vertex 15.4508 47.5528 5
    endloop
  endfacet
  facet normal -0 0 1
    outer loop
      vertex 5.22642 -49.7261 5
      vertex 1.5 -46.7425 5
      vertex -5.22642 -49.7261 5
    endloop
  endfacet
  facet normal 0 0 1
    outer loop
      vertex 1.5 -46.7425 5
      vertex -1.5 -46.7425 5
      vertex -5.22642 -49.7261 5
    endloop
  endfacet
  facet normal 0 -0 1
    outer loop
      vertex 11.247 -11.5637 5
      vertex 9.55496 -11.9499 5
      vertex 40.4508 -29.3893 5
    endloop
  endfacet
  facet normal 0 0 1
    outer loop
      vertex -1.5 1.5 5
      vertex -10.445 8.05014 5
      vertex -48.9074 10.3956 5
    endloop
  endfacet
  facet normal 0 0 1
    outer loop
      vertex -1.5 1.5 5
      vertex -8.75302 8.43634 5
      vertex -10.445 8.05014 5
    endloop
  endfacet
  facet normal 0 0 1
    outer loop
      vertex -1.5 -46.7425 5
      vertex -1.5 -1.5 5
      vertex -8 -10 5
    endloop
  endfacet
  facet normal 0 0 1
    outer loop
      vertex 11.247 -8.43634 5
      vertex 12 -10 5
      vertex 45.6773 -20.3368 5
    endloop
  endfacet
  facet normal 0 0 1
    outer loop
      vertex 1.5 -1.5 5
      vertex 8.19806 -9.13223 5
      vertex 9.55496 -8.05014 5
    endloop
  endfacet
  facet normal 0 0 1
    outer loop
      vertex -10.445 11.9499 5
      vertex -48.9074 10.3956 5
      vertex -11.8019 10.8678 5
    endloop
  endfacet
  facet normal 0 -0 1
    outer loop
      vertex 1.5 46.7425 5
      vertex 1.5 1.5 5
      vertex 8.19806 9.13223 5
    endloop
  endfacet
  facet normal 0 0 1
    outer loop
      vertex 1.5 -1.5 5
      vertex 11.247 -8.43634 5
      vertex 45.6773 -20.3368 5
    endloop
  endfacet
  facet normal 0 0 1
    outer loop
      vertex 8.19806 -10.8678 5
      vertex 25 -43.3013 5
      vertex 33.4565 -37.1572 5
    endloop
  endfacet
  facet normal 0 0 1
    outer loop
      vertex 9.55496 -11.9499 5
      vertex 33.4565 -37.1572 5
      vertex 40.4508 -29.3893 5
    endloop
  endfacet
  facet normal 0 0 1
    outer loop
      vertex -11.8019 9.13223 5
      vertex -11.8019 10.8678 5
      vertex -48.9074 10.3956 5
    endloop
  endfacet
  facet normal 0 0 1
    outer loop
      vertex 9.55496 11.9499 5
      vertex 11.247 11.5637 5
      vertex 45.6773 20.3368 5
    endloop
  endfacet
  facet normal 0 -0 1
    outer loop
      vertex 12 -10 5
      vertex 11.247 -11.5637 5
      vertex 45.6773 -20.3368 5
    endloop
  endfacet
  facet normal 0 0 1
    outer loop
      vertex -8.75302 11.5637 5
      vertex -1.5 46.7425 5
      vertex -10.445 11.9499 5
    endloop
  endfacet
  facet normal 0 0 1
    outer loop
      vertex 11.247 -11.5637 5
      vertex 40.4508 -29.3893 5
      vertex 45.6773 -20.3368 5
    endloop
  endfacet
  facet normal 0 0 1
    outer loop
      vertex -1.5 1.5 5
      vertex -8.75302 11.5637 5
      vertex -8 10 5
    endloop
  endfacet
  facet normal 0 -0 1
    outer loop
      vertex 12 10 5
      vertex 11.247 8.43634 5
      vertex 46.8423 1.5 5
    endloop
  endfacet
  facet normal 0 0 1
    outer loop
      vertex -1.5 1.5 5
      vertex -8 10 5
      vertex -8.75302 8.43634 5
    endloop
  endfacet
  facet normal 0 0 1
    outer loop
      vertex 1.5 -1.5 5
      vertex 15.4508 -47.5528 5
      vertex 25 -43.3013 5
    endloop
  endfacet
  facet normal 0 0 1
    outer loop
      vertex 12 10 5
      vertex 46.8423 1.5 5
      vertex 48.9074 10.3956 5
    endloop
  endfacet
  facet normal 0 0 1
    outer loop
      vertex 11.247 11.5637 5
      vertex 12 10 5
      vertex 48.9074 10.3956 5
    endloop
  endfacet
  facet normal 0 0 1
    outer loop
      vertex 1.5 -1.5 5
      vertex 9.55496 -8.05014 5
      vertex 11.247 -8.43634 5
    endloop
  endfacet
  facet normal 0 -0 1
    outer loop
      vertex 45.6773 20.3368 5
      vertex 11.247 11.5637 5
      vertex 48.9074 10.3956 5
    endloop
  endfacet
  facet normal 0 0 1
    outer loop
      vertex 1.5 -1.5 5
      vertex 25 -43.3013 5
      vertex 8.19806 -10.8678 5
    endloop
  endfacet
  facet normal 0 0 1
    outer loop
      vertex 8.19806 -10.8678 5
      vertex 33.4565 -37.1572 5
      vertex 9.55496 -11.9499 5
    endloop
  endfacet
  facet normal 0 0 1
    outer loop
      vertex 1.5 -1.5 5
      vertex 5.22642 -49.7261 5
      vertex 15.4508 -47.5528 5
    endloop
  endfacet
  facet normal 0 -0 1
    outer loop
      vertex 11.247 8.43634 5
      vertex 9.55496 8.05014 5
      vertex 46.8423 1.5 5
    endloop
  endfacet
  facet normal 0 -0 1
    outer loop
      vertex 1.5 -1.5 5
      vertex 1.5 -46.7425 5
      vertex 5.22642 -49.7261 5
    endloop
  endfacet
  facet normal 0 0 1
    outer loop
      vertex -47 0 5
      vertex -46.8423 1.5 5
      vertex -48.9074 10.3956 5
    endloop
  endfacet
  facet normal 0 0 1
    outer loop
      vertex -8 -10 5
      vertex -1.5 -1.5 5
      vertex -8.75302 -8.43634 5
    endloop
  endfacet
  facet normal 0 0 1
    outer loop
      vertex -1.5 -1.5 5
      vertex -10.445 -8.05014 5
      vertex -8.75302 -8.43634 5
    endloop
  endfacet
  facet normal 0 0 1
    outer loop
      vertex -1.5 -46.7425 5
      vertex -8 -10 5
      vertex -8.75302 -11.5637 5
    endloop
  endfacet
  facet normal 0 0 1
    outer loop
      vertex -1.5 -46.7425 5
      vertex -8.75302 -11.5637 5
      vertex -10.445 -11.9499 5
    endloop
  endfacet
  facet normal 0 0 1
    outer loop
      vertex -1.5 -46.7425 5
      vertex -10.445 -11.9499 5
      vertex -11.8019 -10.8678 5
    endloop
  endfacet
  facet normal 0 0 1
    outer loop
      vertex -11.8019 -10.8678 5
      vertex -5.22642 -49.7261 5
      vertex -1.5 -46.7425 5
    endloop
  endfacet
  facet normal 0 -0 1
    outer loop
      vertex -11.8019 -10.8678 5
      vertex -15.4508 -47.5528 5
      vertex -5.22642 -49.7261 5
    endloop
  endfacet
  facet normal 0 0 1
    outer loop
      vertex -11.8019 -9.13223 5
      vertex -15.4508 -47.5528 5
      vertex -11.8019 -10.8678 5
    endloop
  endfacet
  facet normal 0 0 1
    outer loop
      vertex -11.8019 -9.13223 5
      vertex -25 -43.3013 5
      vertex -15.4508 -47.5528 5
    endloop
  endfacet
  facet normal 0 0 1
    outer loop
      vertex -11.8019 -9.13223 5
      vertex -33.4565 -37.1572 5
      vertex -25 -43.3013 5
    endloop
  endfacet
  facet normal 0 0 1
    outer loop
      vertex -11.8019 -9.13223 5
      vertex -40.4508 -29.3893 5
      vertex -33.4565 -37.1572 5
    endloop
  endfacet
  facet normal 0 0 1
    outer loop
      vertex -10.445 -8.05014 5
      vertex -40.4508 -29.3893 5
      vertex -11.8019 -9.13223 5
    endloop
  endfacet
  facet normal 0 0 1
    outer loop
      vertex -1.5 -1.5 5
      vertex -40.4508 -29.3893 5
      vertex -10.445 -8.05014 5
    endloop
  endfacet
  facet normal 0 0 1
    outer loop
      vertex -1.5 -1.5 5
      vertex -46.8423 -1.5 5
      vertex -40.4508 -29.3893 5
    endloop
  endfacet
  facet normal 0 0 1
    outer loop
      vertex -1.5 1.5 5
      vertex -1.5 46.7425 5
      vertex -8.75302 11.5637 5
    endloop
  endfacet
  facet normal -0.705162 -0.0741155 0.705162
    outer loop
      vertex -47 0 5
      vertex -46.8423 -1.5 5
      vertex -3 0 49
    endloop
  endfacet
  facet normal -0.705162 -0.0741155 0.705162
    outer loop
      vertex -3 0 49
      vertex -46.8423 -1.5 5
      vertex -7.05694 -1.5 44.7854
    endloop
  endfacet
  facet normal -0.705162 -0.0741155 0.705162
    outer loop
      vertex -3 0 49
      vertex -7.05694 -1.5 44.7854
      vertex -2.93444 -0.623735 49
    endloop
  endfacet
  facet normal 0 -1 0
    outer loop
      vertex -7.05694 -1.5 44.7854
      vertex -46.8423 -1.5 5
      vertex -1.5 -1.5 5
    endloop
  endfacet
  facet normal 0 -1 0
    outer loop
      vertex -2.5791 -1.5 49
      vertex -7.05694 -1.5 44.7854
      vertex -1.5 -1.5 49
    endloop
  endfacet
  facet normal 0 -1 0
    outer loop
      vertex -1.5 -1.5 49
      vertex -7.05694 -1.5 44.7854
      vertex -1.5 -1.5 5
    endloop
  endfacet
  facet normal -0 -1 0
    outer loop
      vertex -3.36906 -1.5 48.3121
      vertex -7.05694 -1.5 44.7854
      vertex -2.5791 -1.5 49
    endloop
  endfacet
  facet normal -1 -0 0
    outer loop
      vertex -1.5 -46.7425 5
      vertex -1.5 -14.2715 37.6498
      vertex -1.5 -1.5 5
    endloop
  endfacet
  facet normal -1 0 0
    outer loop
      vertex -1.5 -1.5 5
      vertex -1.5 -14.2715 37.6498
      vertex -1.5 -4.61653 47.1459
    endloop
  endfacet
  facet normal -1 0 0
    outer loop
      vertex -1.5 -1.5 5
      vertex -1.5 -4.61653 47.1459
      vertex -1.5 -2.59808 49
    endloop
  endfacet
  facet normal -1 0 0
    outer loop
      vertex -1.5 -1.5 5
      vertex -1.5 -2.59808 49
      vertex -1.5 -1.5 49
    endloop
  endfacet
  facet normal 0 -0.709046 0.705162
    outer loop
      vertex -1.5 -14.2715 37.6498
      vertex -1.5 -46.7425 5
      vertex 1.5 -46.7425 5
    endloop
  endfacet
  facet normal 0 -0.709046 0.705162
    outer loop
      vertex 0.313585 -2.98357 49
      vertex -1.5 -14.2715 37.6498
      vertex 1.5 -14.2715 37.6498
    endloop
  endfacet
  facet normal 0 -0.709046 0.705162
    outer loop
      vertex 1.5 -14.2715 37.6498
      vertex -1.5 -14.2715 37.6498
      vertex 1.5 -46.7425 5
    endloop
  endfacet
  facet normal 0 -0.709046 0.705162
    outer loop
      vertex -0.313585 -2.98357 49
      vertex -1.5 -14.2715 37.6498
      vertex 0.313585 -2.98357 49
    endloop
  endfacet
  facet normal 1 0 -0
    outer loop
      vertex 1.5 -14.2715 37.6498
      vertex 1.5 -46.7425 5
      vertex 1.5 -1.5 5
    endloop
  endfacet
  facet normal 1 0 -0
    outer loop
      vertex 1.5 -2.59808 49
      vertex 1.5 -14.2715 37.6498
      vertex 1.5 -1.5 49
    endloop
  endfacet
  facet normal 1 0 0
    outer loop
      vertex 1.5 -1.5 49
      vertex 1.5 -14.2715 37.6498
      vertex 1.5 -1.5 5
    endloop
  endfacet
  facet normal 1 0 -0
    outer loop
      vertex 1.5 -4.61653 47.1459
      vertex 1.5 -14.2715 37.6498
      vertex 1.5 -2.59808 49
    endloop
  endfacet
  facet normal 0 -1 0
    outer loop
      vertex 1.5 -1.5 49
      vertex 1.5 -1.5 5
      vertex 46.8423 -1.5 5
    endloop
  endfacet
  facet normal 0 -1 0
    outer loop
      vertex 3.36906 -1.5 48.3121
      vertex 1.5 -1.5 49
      vertex 7.05694 -1.5 44.7854
    endloop
  endfacet
  facet normal 0 -1 0
    outer loop
      vertex 7.05694 -1.5 44.7854
      vertex 1.5 -1.5 49
      vertex 46.8423 -1.5 5
    endloop
  endfacet
  facet normal 0 -1 0
    outer loop
      vertex 2.5791 -1.5 49
      vertex 1.5 -1.5 49
      vertex 3.36906 -1.5 48.3121
    endloop
  endfacet
  facet normal 0.705162 -0.0741155 0.705162
    outer loop
      vertex 3 0 49
      vertex 2.93444 -0.623735 49
      vertex 7.05694 -1.5 44.7854
    endloop
  endfacet
  facet normal 0.705162 -0.0741155 0.705162
    outer loop
      vertex 47 0 5
      vertex 3 0 49
      vertex 46.8423 -1.5 5
    endloop
  endfacet
  facet normal 0.705162 -0.0741155 0.705162
    outer loop
      vertex 46.8423 -1.5 5
      vertex 3 0 49
      vertex 7.05694 -1.5 44.7854
    endloop
  endfacet
  facet normal 0.705162 0.0741155 0.705162
    outer loop
      vertex 7.05694 1.5 44.7854
      vertex 2.93444 0.623735 49
      vertex 3 0 49
    endloop
  endfacet
  facet normal 0.705162 0.0741155 0.705162
    outer loop
      vertex 46.8423 1.5 5
      vertex 7.05694 1.5 44.7854
      vertex 47 0 5
    endloop
  endfacet
  facet normal 0.705162 0.0741155 0.705162
    outer loop
      vertex 47 0 5
      vertex 7.05694 1.5 44.7854
      vertex 3 0 49
    endloop
  endfacet
  facet normal 0 1 0
    outer loop
      vertex 1.5 1.5 5
      vertex 1.5 1.5 49
      vertex 46.8423 1.5 5
    endloop
  endfacet
  facet normal 0 1 0
    outer loop
      vertex 46.8423 1.5 5
      vertex 1.5 1.5 49
      vertex 2.5791 1.5 49
    endloop
  endfacet
  facet normal 0 1 0
    outer loop
      vertex 46.8423 1.5 5
      vertex 2.5791 1.5 49
      vertex 3.36906 1.5 48.3121
    endloop
  endfacet
  facet normal 0 1 0
    outer loop
      vertex 46.8423 1.5 5
      vertex 3.36906 1.5 48.3121
      vertex 7.05694 1.5 44.7854
    endloop
  endfacet
  facet normal 1 0 -0
    outer loop
      vertex 1.5 1.5 49
      vertex 1.5 1.5 5
      vertex 1.5 46.7425 5
    endloop
  endfacet
  facet normal 1 -0 -0
    outer loop
      vertex 1.5 4.61653 47.1459
      vertex 1.5 1.5 49
      vertex 1.5 14.2715 37.6498
    endloop
  endfacet
  facet normal 1 -0 -0
    outer loop
      vertex 1.5 14.2715 37.6498
      vertex 1.5 1.5 49
      vertex 1.5 46.7425 5
    endloop
  endfacet
  facet normal 1 0 -0
    outer loop
      vertex 1.5 2.59808 49
      vertex 1.5 1.5 49
      vertex 1.5 4.61653 47.1459
    endloop
  endfacet
  facet normal -1.11332e-15 0.709046 0.705162
    outer loop
      vertex -1.5 14.2715 37.6498
      vertex -0.313585 2.98357 49
      vertex -1.5 46.7425 5
    endloop
  endfacet
  facet normal 0 0.709046 0.705162
    outer loop
      vertex -1.5 46.7425 5
      vertex -0.313585 2.98357 49
      vertex 0.313585 2.98357 49
    endloop
  endfacet
  facet normal 0 0.709046 0.705162
    outer loop
      vertex -1.5 46.7425 5
      vertex 0.313585 2.98357 49
      vertex 1.5 14.2715 37.6498
    endloop
  endfacet
  facet normal 0 0.709046 0.705162
    outer loop
      vertex -1.5 46.7425 5
      vertex 1.5 14.2715 37.6498
      vertex 1.5 46.7425 5
    endloop
  endfacet
  facet normal -1 -0 -0
    outer loop
      vertex -1.5 1.5 5
      vertex -1.5 1.5 49
      vertex -1.5 46.7425 5
    endloop
  endfacet
  facet normal -1 0 0
    outer loop
      vertex -1.5 46.7425 5
      vertex -1.5 1.5 49
      vertex -1.5 2.59808 49
    endloop
  endfacet
  facet normal -1 0 0
    outer loop
      vertex -1.5 46.7425 5
      vertex -1.5 2.59808 49
      vertex -1.5 4.61653 47.1459
    endloop
  endfacet
  facet normal -1 0 0
    outer loop
      vertex -1.5 46.7425 5
      vertex -1.5 4.61653 47.1459
      vertex -1.5 14.2715 37.6498
    endloop
  endfacet
  facet normal 0 1 0
    outer loop
      vertex -46.8423 1.5 5
      vertex -7.05694 1.5 44.7854
      vertex -1.5 1.5 5
    endloop
  endfacet
  facet normal 0 1 0
    outer loop
      vertex -1.5 1.5 5
      vertex -7.05694 1.5 44.7854
      vertex -3.36906 1.5 48.3121
    endloop
  endfacet
  facet normal 0 1 0
    outer loop
      vertex -1.5 1.5 5
      vertex -3.36906 1.5 48.3121
      vertex -2.5791 1.5 49
    endloop
  endfacet
  facet normal 0 1 0
    outer loop
      vertex -1.5 1.5 5
      vertex -2.5791 1.5 49
      vertex -1.5 1.5 49
    endloop
  endfacet
  facet normal -0.705162 0.0741155 0.705162
    outer loop
      vertex -47 0 5
      vertex -3 0 49
      vertex -46.8423 1.5 5
    endloop
  endfacet
  facet normal -0.705162 0.0741155 0.705162
    outer loop
      vertex -46.8423 1.5 5
      vertex -3 0 49
      vertex -2.93444 0.623735 49
    endloop
  endfacet
  facet normal -0.705162 0.0741155 0.705162
    outer loop
      vertex -46.8423 1.5 5
      vertex -2.93444 0.623735 49
      vertex -7.05694 1.5 44.7854
    endloop
  endfacet
  facet normal 0 0 1
    outer loop
      vertex -2.93444 0.623735 49
      vertex -3 0 49
      vertex -2.93444 -0.623735 49
    endloop
  endfacet
  facet normal 0 0 1
    outer loop
      vertex -2.5791 -1.5 49
      vertex -2.93444 0.623735 49
      vertex -2.74064 -1.22021 49
    endloop
  endfacet
  facet normal 0 0 1
    outer loop
      vertex -2.74064 -1.22021 49
      vertex -2.93444 0.623735 49
      vertex -2.93444 -0.623735 49
    endloop
  endfacet
  facet normal -0 0 1
    outer loop
      vertex -1.5 -1.5 49
      vertex -2.93444 0.623735 49
      vertex -2.5791 -1.5 49
    endloop
  endfacet
  facet normal 0 0 1
    outer loop
      vertex -0.313585 -2.98357 49
      vertex -2.93444 0.623735 49
      vertex -1.5 -1.5 49
    endloop
  endfacet
  facet normal 0 0 1
    outer loop
      vertex -0.927051 -2.85317 49
      vertex -1.5 -1.5 49
      vertex -1.5 -2.59808 49
    endloop
  endfacet
  facet normal 0 0 1
    outer loop
      vertex -0.313585 -2.98357 49
      vertex -1.5 -1.5 49
      vertex -0.927051 -2.85317 49
    endloop
  endfacet
  facet normal -0 0 1
    outer loop
      vertex 0.313585 -2.98357 49
      vertex -2.93444 0.623735 49
      vertex -0.313585 -2.98357 49
    endloop
  endfacet
  facet normal -0 0 1
    outer loop
      vertex 0.927051 -2.85317 49
      vertex -2.93444 0.623735 49
      vertex 0.313585 -2.98357 49
    endloop
  endfacet
  facet normal -0 0 1
    outer loop
      vertex 1.5 -2.59808 49
      vertex -2.93444 0.623735 49
      vertex 0.927051 -2.85317 49
    endloop
  endfacet
  facet normal -0 0 1
    outer loop
      vertex 1.5 -1.5 49
      vertex -2.93444 0.623735 49
      vertex 1.5 -2.59808 49
    endloop
  endfacet
  facet normal -0 0 1
    outer loop
      vertex 2.5791 -1.5 49
      vertex -2.93444 0.623735 49
      vertex 1.5 -1.5 49
    endloop
  endfacet
  facet normal -0 0 1
    outer loop
      vertex 2.74064 -1.22021 49
      vertex -2.93444 0.623735 49
      vertex 2.5791 -1.5 49
    endloop
  endfacet
  facet normal -0 0 1
    outer loop
      vertex 2.93444 -0.623735 49
      vertex -2.93444 0.623735 49
      vertex 2.74064 -1.22021 49
    endloop
  endfacet
  facet normal -0 0 1
    outer loop
      vertex 3 0 49
      vertex -2.93444 0.623735 49
      vertex 2.93444 -0.623735 49
    endloop
  endfacet
  facet normal 0 -0 1
    outer loop
      vertex 2.93444 0.623735 49
      vertex -2.93444 0.623735 49
      vertex 3 0 49
    endloop
  endfacet
  facet normal 0 -0 1
    outer loop
      vertex 2.74064 1.22021 49
      vertex -2.93444 0.623735 49
      vertex 2.93444 0.623735 49
    endloop
  endfacet
  facet normal 0 -0 1
    outer loop
      vertex 2.5791 1.5 49
      vertex -2.93444 0.623735 49
      vertex 2.74064 1.22021 49
    endloop
  endfacet
  facet normal 0 -0 1
    outer loop
      vertex 1.5 1.5 49
      vertex -2.93444 0.623735 49
      vertex 2.5791 1.5 49
    endloop
  endfacet
  facet normal 0 0 1
    outer loop
      vertex 1.5 2.59808 49
      vertex -2.93444 0.623735 49
      vertex 1.5 1.5 49
    endloop
  endfacet
  facet normal 0 -0 1
    outer loop
      vertex 0.927051 2.85317 49
      vertex -2.93444 0.623735 49
      vertex 1.5 2.59808 49
    endloop
  endfacet
  facet normal 0 -0 1
    outer loop
      vertex -1.5 1.5 49
      vertex -2.93444 0.623735 49
      vertex 0.927051 2.85317 49
    endloop
  endfacet
  facet normal 0 0 1
    outer loop
      vertex -1.5 1.5 49
      vertex -2.5791 1.5 49
      vertex -2.93444 0.623735 49
    endloop
  endfacet
  facet normal 0 -0 1
    outer loop
      vertex 0.313585 2.98357 49
      vertex -1.5 1.5 49
      vertex 0.927051 2.85317 49
    endloop
  endfacet
  facet normal 0 -0 1
    outer loop
      vertex -2.74064 1.22021 49
      vertex -2.93444 0.623735 49
      vertex -2.5791 1.5 49
    endloop
  endfacet
  facet normal 0 0 1
    outer loop
      vertex -1.5 2.59808 49
      vertex -0.313585 2.98357 49
      vertex -0.927051 2.85317 49
    endloop
  endfacet
  facet normal 0 0 1
    outer loop
      vertex -1.5 2.59808 49
      vertex 0.313585 2.98357 49
      vertex -0.313585 2.98357 49
    endloop
  endfacet
  facet normal 0 -0 1
    outer loop
      vertex -1.5 2.59808 49
      vertex -1.5 1.5 49
      vertex 0.313585 2.98357 49
    endloop
  endfacet
  facet normal -0.674343 -0.219107 0.705162
    outer loop
      vertex -2.93444 -0.623735 49
      vertex -7.05694 -1.5 44.7854
      vertex -3.36906 -1.5 48.3121
    endloop
  endfacet
  facet normal -0.674343 -0.219107 0.705162
    outer loop
      vertex -2.74064 -1.22021 49
      vertex -2.93444 -0.623735 49
      vertex -3.36906 -1.5 48.3121
    endloop
  endfacet
  facet normal -0.614052 -0.354523 0.705162
    outer loop
      vertex -2.74064 -1.22021 49
      vertex -3.36906 -1.5 48.3121
      vertex -2.5791 -1.5 49
    endloop
  endfacet
  facet normal -0.288395 -0.647746 0.705162
    outer loop
      vertex -1.5 -2.59808 49
      vertex -1.5 -4.61653 47.1459
      vertex -0.927051 -2.85317 49
    endloop
  endfacet
  facet normal -0.147419 -0.693552 0.705162
    outer loop
      vertex -1.5 -4.61653 47.1459
      vertex -1.5 -14.2715 37.6498
      vertex -0.313585 -2.98357 49
    endloop
  endfacet
  facet normal -0.147419 -0.693552 0.705162
    outer loop
      vertex -0.927051 -2.85317 49
      vertex -1.5 -4.61653 47.1459
      vertex -0.313585 -2.98357 49
    endloop
  endfacet
  facet normal 0.147419 -0.693552 0.705162
    outer loop
      vertex 0.927051 -2.85317 49
      vertex 0.313585 -2.98357 49
      vertex 1.5 -14.2715 37.6498
    endloop
  endfacet
  facet normal 0.147419 -0.693552 0.705162
    outer loop
      vertex 1.5 -4.61653 47.1459
      vertex 0.927051 -2.85317 49
      vertex 1.5 -14.2715 37.6498
    endloop
  endfacet
  facet normal 0.288395 -0.647746 0.705162
    outer loop
      vertex 1.5 -2.59808 49
      vertex 0.927051 -2.85317 49
      vertex 1.5 -4.61653 47.1459
    endloop
  endfacet
  facet normal 0.614052 -0.354523 0.705162
    outer loop
      vertex 2.74064 -1.22021 49
      vertex 2.5791 -1.5 49
      vertex 3.36906 -1.5 48.3121
    endloop
  endfacet
  facet normal 0.674343 -0.219107 0.705162
    outer loop
      vertex 2.93444 -0.623735 49
      vertex 2.74064 -1.22021 49
      vertex 3.36906 -1.5 48.3121
    endloop
  endfacet
  facet normal 0.674343 -0.219107 0.705162
    outer loop
      vertex 7.05694 -1.5 44.7854
      vertex 2.93444 -0.623735 49
      vertex 3.36906 -1.5 48.3121
    endloop
  endfacet
  facet normal 0.674343 0.219107 0.705162
    outer loop
      vertex 3.36906 1.5 48.3121
      vertex 2.74064 1.22021 49
      vertex 2.93444 0.623735 49
    endloop
  endfacet
  facet normal 0.674343 0.219107 0.705162
    outer loop
      vertex 7.05694 1.5 44.7854
      vertex 3.36906 1.5 48.3121
      vertex 2.93444 0.623735 49
    endloop
  endfacet
  facet normal 0.614052 0.354523 0.705162
    outer loop
      vertex 3.36906 1.5 48.3121
      vertex 2.5791 1.5 49
      vertex 2.74064 1.22021 49
    endloop
  endfacet
  facet normal 0.288395 0.647746 0.705162
    outer loop
      vertex 1.5 4.61653 47.1459
      vertex 0.927051 2.85317 49
      vertex 1.5 2.59808 49
    endloop
  endfacet
  facet normal 0.147419 0.693552 0.705162
    outer loop
      vertex 1.5 14.2715 37.6498
      vertex 0.313585 2.98357 49
      vertex 0.927051 2.85317 49
    endloop
  endfacet
  facet normal 0.147419 0.693552 0.705162
    outer loop
      vertex 1.5 4.61653 47.1459
      vertex 1.5 14.2715 37.6498
      vertex 0.927051 2.85317 49
    endloop
  endfacet
  facet normal -0.147419 0.693552 0.705162
    outer loop
      vertex -1.5 14.2715 37.6498
      vertex -1.5 4.61653 47.1459
      vertex -0.927051 2.85317 49
    endloop
  endfacet
  facet normal -0.147419 0.693552 0.705162
    outer loop
      vertex -0.313585 2.98357 49
      vertex -1.5 14.2715 37.6498
      vertex -0.927051 2.85317 49
    endloop
  endfacet
  facet normal -0.288395 0.647746 0.705162
    outer loop
      vertex -1.5 4.61653 47.1459
      vertex -1.5 2.59808 49
      vertex -0.927051 2.85317 49
    endloop
  endfacet
  facet normal -0.614052 0.354523 0.705162
    outer loop
      vertex -2.5791 1.5 49
      vertex -3.36906 1.5 48.3121
      vertex -2.74064 1.22021 49
    endloop
  endfacet
  facet normal -0.674343 0.219107 0.705162
    outer loop
      vertex -3.36906 1.5 48.3121
      vertex -7.05694 1.5 44.7854
      vertex -2.93444 0.623735 49
    endloop
  endfacet
  facet normal -0.674343 0.219107 0.705162
    outer loop
      vertex -2.74064 1.22021 49
      vertex -3.36906 1.5 48.3121
      vertex -2.93444 0.623735 49
    endloop
  endfacet
endsolid OpenSCAD_Model
