solid OpenSCAD_Model
  facet normal -0 0 -1
    outer loop
      vertex -20 0 0
      vertex -19.563 4.15823 0
      vertex -19.563 -4.15823 0
    endloop
  endfacet
  facet normal 0 -0 -1
    outer loop
      vertex -19.563 -4.15823 0
      vertex -19.563 4.15823 0
      vertex -18.2709 8.13473 0
    endloop
  endfacet
  facet normal 0 0 -1
    outer loop
      vertex -19.563 -4.15823 0
      vertex -18.2709 8.13473 0
      vertex -16.1803 11.7557 0
    endloop
  endfacet
  facet normal 0 0 -1
    outer loop
      vertex -19.563 -4.15823 0
      vertex -16.1803 11.7557 0
      vertex -13.3826 14.8629 0
    endloop
  endfacet
  facet normal 0 0 -1
    outer loop
      vertex -19.563 -4.15823 0
      vertex -13.3826 14.8629 0
      vertex -10 17.3205 0
    endloop
  endfacet
  facet normal 0 0 -1
    outer loop
      vertex -11.8019 10.8678 0
      vertex -10 17.3205 0
      vertex -6.18034 19.0211 0
    endloop
  endfacet
  facet normal -0 0 -1
    outer loop
      vertex -10.445 11.9499 0
      vertex -2.09057 19.8904 0
      vertex -8.75302 11.5637 0
    endloop
  endfacet
  facet normal 0 0 -1
    outer loop
      vertex -19.563 -4.15823 0
      vertex 2.09057 19.8904 0
      vertex 6.18034 19.0211 0
    endloop
  endfacet
  facet normal 0 0 -1
    outer loop
      vertex -19.563 -4.15823 0
      vertex 6.18034 19.0211 0
      vertex 10 17.3205 0
    endloop
  endfacet
  facet normal 0 0 -1
    outer loop
      vertex -19.563 -4.15823 0
      vertex 10 17.3205 0
      vertex 13.3826 14.8629 0
    endloop
  endfacet
  facet normal 0 0 -1
    outer loop
      vertex 11.247 11.5637 0
      vertex 13.3826 14.8629 0
      vertex 16.1803 11.7557 0
    endloop
  endfacet
  facet normal -0 0 -1
    outer loop
      vertex 11.247 8.43634 0
      vertex 16.1803 11.7557 0
      vertex 18.2709 8.13473 0
    endloop
  endfacet
  facet normal 0 0 -1
    outer loop
      vertex -19.563 -4.15823 0
      vertex 18.2709 8.13473 0
      vertex 19.563 4.15823 0
    endloop
  endfacet
  facet normal 0 0 -1
    outer loop
      vertex -19.563 -4.15823 0
      vertex 19.563 4.15823 0
      vertex 20 0 0
    endloop
  endfacet
  facet normal -0 0 -1
    outer loop
      vertex -19.563 -4.15823 0
      vertex 20 0 0
      vertex 19.563 -4.15823 0
    endloop
  endfacet
  facet normal 0 0 -1
    outer loop
      vertex -19.563 -4.15823 0
      vertex 19.563 -4.15823 0
      vertex 18.2709 -8.13473 0
    endloop
  endfacet
  facet normal -0 0 -1
    outer loop
      vertex 12 -10 0
      vertex 18.2709 -8.13473 0
      vertex 16.1803 -11.7557 0
    endloop
  endfacet
  facet normal 0 0 -1
    outer loop
      vertex 11.247 -11.5637 0
      vertex 16.1803 -11.7557 0
      vertex 13.3826 -14.8629 0
    endloop
  endfacet
  facet normal 0 0 -1
    outer loop
      vertex -8.75302 -8.43634 0
      vertex 13.3826 -14.8629 0
      vertex 10 -17.3205 0
    endloop
  endfacet
  facet normal 0 0 -1
    outer loop
      vertex -8 -10 0
      vertex 10 -17.3205 0
      vertex 6.18034 -19.0211 0
    endloop
  endfacet
  facet normal 0 0 -1
    outer loop
      vertex -10.445 -11.9499 0
      vertex 2.09057 -19.8904 0
      vertex -2.09057 -19.8904 0
    endloop
  endfacet
  facet normal 0 0 -1
    outer loop
      vertex -19.563 -4.15823 0
      vertex -2.09057 -19.8904 0
      vertex -6.18034 -19.0211 0
    endloop
  endfacet
  facet normal 0 0 -1
    outer loop
      vertex -19.563 -4.15823 0
      vertex -6.18034 -19.0211 0
      vertex -10 -17.3205 0
    endloop
  endfacet
  facet normal 0 0 -1
    outer loop
      vertex -19.563 -4.15823 0
      vertex -10 -17.3205 0
      vertex -13.3826 -14.8629 0
    endloop
  endfacet
  facet normal 0 0 -1
    outer loop
      vertex -19.563 -4.15823 0
      vertex -13.3826 -14.8629 0
      vertex -16.1803 -11.7557 0
    endloop
  endfacet
  facet normal 0 0 -1
    outer loop
      vertex -19.563 -4.15823 0
      vertex -16.1803 -11.7557 0
      vertex -18.2709 -8.13473 0
    endloop
  endfacet
  facet normal 0 0 -1
    outer loop
      vertex -11.8019 -10.8678 0
      vertex -19.563 -4.15823 0
      vertex -11.8019 -9.13223 0
    endloop
  endfacet
  facet normal 0 0 -1
    outer loop
      vertex -8.75302 -11.5637 0
      vertex 2.09057 -19.8904 0
      vertex -10.445 -11.9499 0
    endloop
  endfacet
  facet normal 0 0 -1
    outer loop
      vertex -19.563 -4.15823 0
      vertex -11.8019 -10.8678 0
      vertex -2.09057 -19.8904 0
    endloop
  endfacet
  facet normal 0 0 -1
    outer loop
      vertex -8 -10 0
      vertex 2.09057 -19.8904 0
      vertex -8.75302 -11.5637 0
    endloop
  endfacet
  facet normal 0 0 -1
    outer loop
      vertex -11.8019 -10.8678 0
      vertex -10.445 -11.9499 0
      vertex -2.09057 -19.8904 0
    endloop
  endfacet
  facet normal 0 0 -1
    outer loop
      vertex -8 -10 0
      vertex 6.18034 -19.0211 0
      vertex 2.09057 -19.8904 0
    endloop
  endfacet
  facet normal 0 0 -1
    outer loop
      vertex -19.563 -4.15823 0
      vertex 13.3826 -14.8629 0
      vertex -8.75302 -8.43634 0
    endloop
  endfacet
  facet normal 0 0 -1
    outer loop
      vertex -11.8019 9.13223 0
      vertex -19.563 -4.15823 0
      vertex -11.8019 10.8678 0
    endloop
  endfacet
  facet normal 0 0 -1
    outer loop
      vertex -19.563 -4.15823 0
      vertex -8.75302 -8.43634 0
      vertex -10.445 -8.05014 0
    endloop
  endfacet
  facet normal 0 0 -1
    outer loop
      vertex -19.563 -4.15823 0
      vertex -10 17.3205 0
      vertex -11.8019 10.8678 0
    endloop
  endfacet
  facet normal 0 -0 -1
    outer loop
      vertex -10.445 11.9499 0
      vertex -11.8019 10.8678 0
      vertex -6.18034 19.0211 0
    endloop
  endfacet
  facet normal 0 0 -1
    outer loop
      vertex -10.445 8.05014 0
      vertex -19.563 -4.15823 0
      vertex -11.8019 9.13223 0
    endloop
  endfacet
  facet normal 0 0 -1
    outer loop
      vertex -8.75302 11.5637 0
      vertex -2.09057 19.8904 0
      vertex 2.09057 19.8904 0
    endloop
  endfacet
  facet normal 0 0 -1
    outer loop
      vertex -19.563 -4.15823 0
      vertex -10.445 8.05014 0
      vertex -8.75302 8.43634 0
    endloop
  endfacet
  facet normal 0 0 -1
    outer loop
      vertex -19.563 -4.15823 0
      vertex -8.75302 8.43634 0
      vertex 2.09057 19.8904 0
    endloop
  endfacet
  facet normal 0 0 -1
    outer loop
      vertex -8.75302 8.43634 0
      vertex -8 10 0
      vertex 2.09057 19.8904 0
    endloop
  endfacet
  facet normal -0 0 -1
    outer loop
      vertex -8.75302 11.5637 0
      vertex 2.09057 19.8904 0
      vertex -8 10 0
    endloop
  endfacet
  facet normal 0 0 -1
    outer loop
      vertex -10.445 11.9499 0
      vertex -6.18034 19.0211 0
      vertex -2.09057 19.8904 0
    endloop
  endfacet
  facet normal 0 0 -1
    outer loop
      vertex 9.55496 8.05014 0
      vertex -19.563 -4.15823 0
      vertex 8.19806 9.13223 0
    endloop
  endfacet
  facet normal 0 0 -1
    outer loop
      vertex 11.247 -11.5637 0
      vertex 13.3826 -14.8629 0
      vertex 9.55496 -11.9499 0
    endloop
  endfacet
  facet normal 0 0 -1
    outer loop
      vertex -19.563 -4.15823 0
      vertex 8.19806 -10.8678 0
      vertex 9.55496 -11.9499 0
    endloop
  endfacet
  facet normal 0 0 -1
    outer loop
      vertex -19.563 -4.15823 0
      vertex 9.55496 -11.9499 0
      vertex 13.3826 -14.8629 0
    endloop
  endfacet
  facet normal 0 0 -1
    outer loop
      vertex 12 -10 0
      vertex 16.1803 -11.7557 0
      vertex 11.247 -11.5637 0
    endloop
  endfacet
  facet normal -0 0 -1
    outer loop
      vertex 11.247 11.5637 0
      vertex 16.1803 11.7557 0
      vertex 12 10 0
    endloop
  endfacet
  facet normal -0 0 -1
    outer loop
      vertex 11.247 -8.43634 0
      vertex 18.2709 -8.13473 0
      vertex 12 -10 0
    endloop
  endfacet
  facet normal 0 0 -1
    outer loop
      vertex 9.55496 -8.05014 0
      vertex 18.2709 -8.13473 0
      vertex 11.247 -8.43634 0
    endloop
  endfacet
  facet normal 0 0 -1
    outer loop
      vertex 8.19806 -10.8678 0
      vertex -19.563 -4.15823 0
      vertex 8.19806 -9.13223 0
    endloop
  endfacet
  facet normal 0 0 -1
    outer loop
      vertex -19.563 -4.15823 0
      vertex 18.2709 -8.13473 0
      vertex 9.55496 -8.05014 0
    endloop
  endfacet
  facet normal 0 0 -1
    outer loop
      vertex -19.563 -4.15823 0
      vertex 8.19806 10.8678 0
      vertex 8.19806 9.13223 0
    endloop
  endfacet
  facet normal -0 0 -1
    outer loop
      vertex 12 10 0
      vertex 16.1803 11.7557 0
      vertex 11.247 8.43634 0
    endloop
  endfacet
  facet normal 0 0 -1
    outer loop
      vertex -19.563 -4.15823 0
      vertex 9.55496 8.05014 0
      vertex 18.2709 8.13473 0
    endloop
  endfacet
  facet normal 0 0 -1
    outer loop
      vertex 9.55496 8.05014 0
      vertex 11.247 8.43634 0
      vertex 18.2709 8.13473 0
    endloop
  endfacet
  facet normal -0 0 -1
    outer loop
      vertex 9.55496 11.9499 0
      vertex 13.3826 14.8629 0
      vertex 11.247 11.5637 0
    endloop
  endfacet
  facet normal 0 0 -1
    outer loop
      vertex -19.563 -4.15823 0
      vertex 13.3826 14.8629 0
      vertex 9.55496 11.9499 0
    endloop
  endfacet
  facet normal 0 0 -1
    outer loop
      vertex -19.563 -4.15823 0
      vertex 9.55496 11.9499 0
      vertex 8.19806 10.8678 0
    endloop
  endfacet
  facet normal 0 -0 -1
    outer loop
      vertex -11.8019 -9.13223 0
      vertex -19.563 -4.15823 0
      vertex -10.445 -8.05014 0
    endloop
  endfacet
  facet normal 0 -0 -1
    outer loop
      vertex 8.19806 -9.13223 0
      vertex -19.563 -4.15823 0
      vertex 9.55496 -8.05014 0
    endloop
  endfacet
  facet normal 0 0 -1
    outer loop
      vertex -8.75302 -8.43634 0
      vertex 10 -17.3205 0
      vertex -8 -10 0
    endloop
  endfacet
  facet normal -0.994522 0.104528 0
    outer loop
      vertex -20 0 0
      vertex -20 0 25
      vertex -19.563 4.15823 0
    endloop
  endfacet
  facet normal -0.994522 0.104528 0
    outer loop
      vertex -19.563 4.15823 0
      vertex -20 0 25
      vertex -19.563 4.15823 25
    endloop
  endfacet
  facet normal -0.994522 -0.104528 -0
    outer loop
      vertex -20 0 0
      vertex -19.563 -4.15823 0
      vertex -20 0 25
    endloop
  endfacet
  facet normal -0.994522 -0.104528 0
    outer loop
      vertex -20 0 25
      vertex -19.563 -4.15823 0
      vertex -19.563 -4.15823 25
    endloop
  endfacet
  facet normal -0.951057 -0.309017 -0
    outer loop
      vertex -19.563 -4.15823 0
      vertex -18.2709 -8.13473 0
      vertex -19.563 -4.15823 25
    endloop
  endfacet
  facet normal -0.951057 -0.309017 0
    outer loop
      vertex -19.563 -4.15823 25
      vertex -18.2709 -8.13473 0
      vertex -18.2709 -8.13473 25
    endloop
  endfacet
  facet normal -0.866025 -0.5 -0
    outer loop
      vertex -18.2709 -8.13473 0
      vertex -16.1803 -11.7557 0
      vertex -18.2709 -8.13473 25
    endloop
  endfacet
  facet normal -0.866025 -0.5 0
    outer loop
      vertex -18.2709 -8.13473 25
      vertex -16.1803 -11.7557 0
      vertex -16.1803 -11.7557 25
    endloop
  endfacet
  facet normal -0.743145 -0.669131 -0
    outer loop
      vertex -16.1803 -11.7557 0
      vertex -13.3826 -14.8629 0
      vertex -16.1803 -11.7557 25
    endloop
  endfacet
  facet normal -0.743145 -0.669131 0
    outer loop
      vertex -16.1803 -11.7557 25
      vertex -13.3826 -14.8629 0
      vertex -13.3826 -14.8629 25
    endloop
  endfacet
  facet normal -0.587785 -0.809017 0
    outer loop
      vertex -13.3826 -14.8629 25
      vertex -13.3826 -14.8629 0
      vertex -10 -17.3205 0
    endloop
  endfacet
  facet normal -0.587785 -0.809017 0
    outer loop
      vertex -10 -17.3205 25
      vertex -13.3826 -14.8629 25
      vertex -10 -17.3205 0
    endloop
  endfacet
  facet normal -0.406737 -0.913545 0
    outer loop
      vertex -10 -17.3205 25
      vertex -10 -17.3205 0
      vertex -6.18034 -19.0211 0
    endloop
  endfacet
  facet normal -0.406737 -0.913545 0
    outer loop
      vertex -6.18034 -19.0211 25
      vertex -10 -17.3205 25
      vertex -6.18034 -19.0211 0
    endloop
  endfacet
  facet normal -0.207912 -0.978148 0
    outer loop
      vertex -6.18034 -19.0211 25
      vertex -6.18034 -19.0211 0
      vertex -2.09057 -19.8904 0
    endloop
  endfacet
  facet normal -0.207912 -0.978148 0
    outer loop
      vertex -2.09057 -19.8904 25
      vertex -6.18034 -19.0211 25
      vertex -2.09057 -19.8904 0
    endloop
  endfacet
  facet normal 0 -1 0
    outer loop
      vertex -2.09057 -19.8904 25
      vertex -2.09057 -19.8904 0
      vertex 2.09057 -19.8904 0
    endloop
  endfacet
  facet normal 0 -1 0
    outer loop
      vertex 2.09057 -19.8904 25
      vertex -2.09057 -19.8904 25
      vertex 2.09057 -19.8904 0
    endloop
  endfacet
  facet normal 0.207912 -0.978148 0
    outer loop
      vertex 2.09057 -19.8904 25
      vertex 2.09057 -19.8904 0
      vertex 6.18034 -19.0211 0
    endloop
  endfacet
  facet normal 0.207912 -0.978148 0
    outer loop
      vertex 6.18034 -19.0211 25
      vertex 2.09057 -19.8904 25
      vertex 6.18034 -19.0211 0
    endloop
  endfacet
  facet normal 0.406737 -0.913545 0
    outer loop
      vertex 6.18034 -19.0211 25
      vertex 6.18034 -19.0211 0
      vertex 10 -17.3205 0
    endloop
  endfacet
  facet normal 0.406737 -0.913545 0
    outer loop
      vertex 10 -17.3205 25
      vertex 6.18034 -19.0211 25
      vertex 10 -17.3205 0
    endloop
  endfacet
  facet normal 0.587785 -0.809017 0
    outer loop
      vertex 10 -17.3205 25
      vertex 10 -17.3205 0
      vertex 13.3826 -14.8629 0
    endloop
  endfacet
  facet normal 0.587785 -0.809017 0
    outer loop
      vertex 13.3826 -14.8629 25
      vertex 10 -17.3205 25
      vertex 13.3826 -14.8629 0
    endloop
  endfacet
  facet normal 0.743145 -0.669131 0
    outer loop
      vertex 13.3826 -14.8629 25
      vertex 13.3826 -14.8629 0
      vertex 16.1803 -11.7557 0
    endloop
  endfacet
  facet normal 0.743145 -0.669131 0
    outer loop
      vertex 16.1803 -11.7557 25
      vertex 13.3826 -14.8629 25
      vertex 16.1803 -11.7557 0
    endloop
  endfacet
  facet normal 0.866025 -0.5 0
    outer loop
      vertex 16.1803 -11.7557 25
      vertex 16.1803 -11.7557 0
      vertex 18.2709 -8.13473 0
    endloop
  endfacet
  facet normal 0.866025 -0.5 0
    outer loop
      vertex 18.2709 -8.13473 25
      vertex 16.1803 -11.7557 25
      vertex 18.2709 -8.13473 0
    endloop
  endfacet
  facet normal 0.951057 -0.309017 0
    outer loop
      vertex 18.2709 -8.13473 25
      vertex 18.2709 -8.13473 0
      vertex 19.563 -4.15823 0
    endloop
  endfacet
  facet normal 0.951057 -0.309017 0
    outer loop
      vertex 19.563 -4.15823 25
      vertex 18.2709 -8.13473 25
      vertex 19.563 -4.15823 0
    endloop
  endfacet
  facet normal 0.994522 -0.104528 0
    outer loop
      vertex 19.563 -4.15823 25
      vertex 19.563 -4.15823 0
      vertex 20 0 0
    endloop
  endfacet
  facet normal 0.994522 -0.104528 0
    outer loop
      vertex 20 0 25
      vertex 19.563 -4.15823 25
      vertex 20 0 0
    endloop
  endfacet
  facet normal 0.994522 0.104528 0
    outer loop
      vertex 20 0 0
      vertex 19.563 4.15823 0
      vertex 19.563 4.15823 25
    endloop
  endfacet
  facet normal 0.994522 0.104528 -0
    outer loop
      vertex 20 0 25
      vertex 20 0 0
      vertex 19.563 4.15823 25
    endloop
  endfacet
  facet normal 0.951057 0.309017 0
    outer loop
      vertex 19.563 4.15823 0
      vertex 18.2709 8.13473 0
      vertex 18.2709 8.13473 25
    endloop
  endfacet
  facet normal 0.951057 0.309017 -0
    outer loop
      vertex 19.563 4.15823 25
      vertex 19.563 4.15823 0
      vertex 18.2709 8.13473 25
    endloop
  endfacet
  facet normal 0.866025 0.5 0
    outer loop
      vertex 18.2709 8.13473 0
      vertex 16.1803 11.7557 0
      vertex 16.1803 11.7557 25
    endloop
  endfacet
  facet normal 0.866025 0.5 -0
    outer loop
      vertex 18.2709 8.13473 25
      vertex 18.2709 8.13473 0
      vertex 16.1803 11.7557 25
    endloop
  endfacet
  facet normal 0.743145 0.669131 0
    outer loop
      vertex 16.1803 11.7557 0
      vertex 13.3826 14.8629 0
      vertex 13.3826 14.8629 25
    endloop
  endfacet
  facet normal 0.743145 0.669131 -0
    outer loop
      vertex 16.1803 11.7557 25
      vertex 16.1803 11.7557 0
      vertex 13.3826 14.8629 25
    endloop
  endfacet
  facet normal 0.587785 0.809017 0
    outer loop
      vertex 10 17.3205 0
      vertex 10 17.3205 25
      vertex 13.3826 14.8629 0
    endloop
  endfacet
  facet normal 0.587785 0.809017 0
    outer loop
      vertex 13.3826 14.8629 0
      vertex 10 17.3205 25
      vertex 13.3826 14.8629 25
    endloop
  endfacet
  facet normal 0.406737 0.913545 0
    outer loop
      vertex 6.18034 19.0211 0
      vertex 6.18034 19.0211 25
      vertex 10 17.3205 0
    endloop
  endfacet
  facet normal 0.406737 0.913545 0
    outer loop
      vertex 10 17.3205 0
      vertex 6.18034 19.0211 25
      vertex 10 17.3205 25
    endloop
  endfacet
  facet normal 0.207912 0.978148 0
    outer loop
      vertex 2.09057 19.8904 0
      vertex 2.09057 19.8904 25
      vertex 6.18034 19.0211 0
    endloop
  endfacet
  facet normal 0.207912 0.978148 0
    outer loop
      vertex 6.18034 19.0211 0
      vertex 2.09057 19.8904 25
      vertex 6.18034 19.0211 25
    endloop
  endfacet
  facet normal 0 1 0
    outer loop
      vertex -2.09057 19.8904 0
      vertex -2.09057 19.8904 25
      vertex 2.09057 19.8904 0
    endloop
  endfacet
  facet normal 0 1 0
    outer loop
      vertex 2.09057 19.8904 0
      vertex -2.09057 19.8904 25
      vertex 2.09057 19.8904 25
    endloop
  endfacet
  facet normal -0.207912 0.978148 0
    outer loop
      vertex -6.18034 19.0211 0
      vertex -6.18034 19.0211 25
      vertex -2.09057 19.8904 0
    endloop
  endfacet
  facet normal -0.207912 0.978148 0
    outer loop
      vertex -2.09057 19.8904 0
      vertex -6.18034 19.0211 25
      vertex -2.09057 19.8904 25
    endloop
  endfacet
  facet normal -0.406737 0.913545 0
    outer loop
      vertex -10 17.3205 0
      vertex -10 17.3205 25
      vertex -6.18034 19.0211 0
    endloop
  endfacet
  facet normal -0.406737 0.913545 0
    outer loop
      vertex -6.18034 19.0211 0
      vertex -10 17.3205 25
      vertex -6.18034 19.0211 25
    endloop
  endfacet
  facet normal -0.587785 0.809017 0
    outer loop
      vertex -13.3826 14.8629 0
      vertex -13.3826 14.8629 25
      vertex -10 17.3205 0
    endloop
  endfacet
  facet normal -0.587785 0.809017 0
    outer loop
      vertex -10 17.3205 0
      vertex -13.3826 14.8629 25
      vertex -10 17.3205 25
    endloop
  endfacet
  facet normal -0.743145 0.669131 0
    outer loop
      vertex -16.1803 11.7557 0
      vertex -16.1803 11.7557 25
      vertex -13.3826 14.8629 0
    endloop
  endfacet
  facet normal -0.743145 0.669131 0
    outer loop
      vertex -13.3826 14.8629 0
      vertex -16.1803 11.7557 25
      vertex -13.3826 14.8629 25
    endloop
  endfacet
  facet normal -0.866025 0.5 0
    outer loop
      vertex -18.2709 8.13473 0
      vertex -18.2709 8.13473 25
      vertex -16.1803 11.7557 0
    endloop
  endfacet
  facet normal -0.866025 0.5 0
    outer loop
      vertex -16.1803 11.7557 0
      vertex -18.2709 8.13473 25
      vertex -16.1803 11.7557 25
    endloop
  endfacet
  facet normal -0.951057 0.309017 0
    outer loop
      vertex -19.563 4.15823 0
      vertex -19.563 4.15823 25
      vertex -18.2709 8.13473 0
    endloop
  endfacet
  facet normal -0.951057 0.309017 0
    outer loop
      vertex -18.2709 8.13473 0
      vertex -19.563 4.15823 25
      vertex -18.2709 8.13473 25
    endloop
  endfacet
  facet normal 1 0 0
    outer loop
      vertex -11.8019 -9.13223 0
      vertex -11.8019 -9.13223 23
      vertex -11.8019 -10.8678 23
    endloop
  endfacet
  facet normal 1 0 0
    outer loop
      vertex -11.8019 -10.8678 0
      vertex -11.8019 -9.13223 0
      vertex -11.8019 -10.8678 23
    endloop
  endfacet
  facet normal 0.62349 -0.781831 0
    outer loop
      vertex -10.445 -8.05014 0
      vertex -10.445 -8.05014 23
      vertex -11.8019 -9.13223 23
    endloop
  endfacet
  facet normal 0.62349 -0.781831 0
    outer loop
      vertex -11.8019 -9.13223 0
      vertex -10.445 -8.05014 0
      vertex -11.8019 -9.13223 23
    endloop
  endfacet
  facet normal -0.222521 -0.974928 -0
    outer loop
      vertex -8.75302 -8.43634 0
      vertex -8.75302 -8.43634 23
      vertex -10.445 -8.05014 23
    endloop
  endfacet
  facet normal -0.222521 -0.974928 -0
    outer loop
      vertex -10.445 -8.05014 0
      vertex -8.75302 -8.43634 0
      vertex -10.445 -8.05014 23
    endloop
  endfacet
  facet normal -0.900969 -0.433884 0
    outer loop
      vertex -8 -10 23
      vertex -8.75302 -8.43634 23
      vertex -8 -10 0
    endloop
  endfacet
  facet normal -0.900969 -0.433884 0
    outer loop
      vertex -8 -10 0
      vertex -8.75302 -8.43634 23
      vertex -8.75302 -8.43634 0
    endloop
  endfacet
  facet normal -0.900969 0.433884 0
    outer loop
      vertex -8 -10 23
      vertex -8 -10 0
      vertex -8.75302 -11.5637 23
    endloop
  endfacet
  facet normal -0.900969 0.433884 0
    outer loop
      vertex -8.75302 -11.5637 23
      vertex -8 -10 0
      vertex -8.75302 -11.5637 0
    endloop
  endfacet
  facet normal -0.222521 0.974928 0
    outer loop
      vertex -8.75302 -11.5637 23
      vertex -8.75302 -11.5637 0
      vertex -10.445 -11.9499 23
    endloop
  endfacet
  facet normal -0.222521 0.974928 0
    outer loop
      vertex -10.445 -11.9499 23
      vertex -8.75302 -11.5637 0
      vertex -10.445 -11.9499 0
    endloop
  endfacet
  facet normal 0.62349 0.781831 -0
    outer loop
      vertex -10.445 -11.9499 23
      vertex -10.445 -11.9499 0
      vertex -11.8019 -10.8678 23
    endloop
  endfacet
  facet normal 0.62349 0.781831 -0
    outer loop
      vertex -11.8019 -10.8678 23
      vertex -10.445 -11.9499 0
      vertex -11.8019 -10.8678 0
    endloop
  endfacet
  facet normal 1 0 0
    outer loop
      vertex -11.8019 10.8678 0
      vertex -11.8019 10.8678 23
      vertex -11.8019 9.13223 23
    endloop
  endfacet
  facet normal 1 0 0
    outer loop
      vertex -11.8019 9.13223 0
      vertex -11.8019 10.8678 0
      vertex -11.8019 9.13223 23
    endloop
  endfacet
  facet normal 0.62349 -0.781831 0
    outer loop
      vertex -10.445 11.9499 0
      vertex -10.445 11.9499 23
      vertex -11.8019 10.8678 23
    endloop
  endfacet
  facet normal 0.62349 -0.781831 0
    outer loop
      vertex -11.8019 10.8678 0
      vertex -10.445 11.9499 0
      vertex -11.8019 10.8678 23
    endloop
  endfacet
  facet normal -0.222521 -0.974928 -0
    outer loop
      vertex -8.75302 11.5637 0
      vertex -8.75302 11.5637 23
      vertex -10.445 11.9499 23
    endloop
  endfacet
  facet normal -0.222521 -0.974928 -0
    outer loop
      vertex -10.445 11.9499 0
      vertex -8.75302 11.5637 0
      vertex -10.445 11.9499 23
    endloop
  endfacet
  facet normal -0.900969 -0.433884 0
    outer loop
      vertex -8 10 23
      vertex -8.75302 11.5637 23
      vertex -8 10 0
    endloop
  endfacet
  facet normal -0.900969 -0.433884 0
    outer loop
      vertex -8 10 0
      vertex -8.75302 11.5637 23
      vertex -8.75302 11.5637 0
    endloop
  endfacet
  facet normal -0.900969 0.433884 0
    outer loop
      vertex -8 10 23
      vertex -8 10 0
      vertex -8.75302 8.43634 23
    endloop
  endfacet
  facet normal -0.900969 0.433884 0
    outer loop
      vertex -8.75302 8.43634 23
      vertex -8 10 0
      vertex -8.75302 8.43634 0
    endloop
  endfacet
  facet normal -0.222521 0.974928 0
    outer loop
      vertex -8.75302 8.43634 23
      vertex -8.75302 8.43634 0
      vertex -10.445 8.05014 23
    endloop
  endfacet
  facet normal -0.222521 0.974928 0
    outer loop
      vertex -10.445 8.05014 23
      vertex -8.75302 8.43634 0
      vertex -10.445 8.05014 0
    endloop
  endfacet
  facet normal 0.62349 0.781831 -0
    outer loop
      vertex -10.445 8.05014 23
      vertex -10.445 8.05014 0
      vertex -11.8019 9.13223 23
    endloop
  endfacet
  facet normal 0.62349 0.781831 -0
    outer loop
      vertex -11.8019 9.13223 23
      vertex -10.445 8.05014 0
      vertex -11.8019 9.13223 0
    endloop
  endfacet
  facet normal 1 0 0
    outer loop
      vertex 8.19806 -9.13223 0
      vertex 8.19806 -9.13223 23
      vertex 8.19806 -10.8678 23
    endloop
  endfacet
  facet normal 1 0 0
    outer loop
      vertex 8.19806 -10.8678 0
      vertex 8.19806 -9.13223 0
      vertex 8.19806 -10.8678 23
    endloop
  endfacet
  facet normal 0.62349 -0.781831 0
    outer loop
      vertex 9.55496 -8.05014 0
      vertex 9.55496 -8.05014 23
      vertex 8.19806 -9.13223 23
    endloop
  endfacet
  facet normal 0.62349 -0.781831 0
    outer loop
      vertex 8.19806 -9.13223 0
      vertex 9.55496 -8.05014 0
      vertex 8.19806 -9.13223 23
    endloop
  endfacet
  facet normal -0.222521 -0.974928 -0
    outer loop
      vertex 11.247 -8.43634 0
      vertex 11.247 -8.43634 23
      vertex 9.55496 -8.05014 23
    endloop
  endfacet
  facet normal -0.222521 -0.974928 -0
    outer loop
      vertex 9.55496 -8.05014 0
      vertex 11.247 -8.43634 0
      vertex 9.55496 -8.05014 23
    endloop
  endfacet
  facet normal -0.900969 -0.433884 0
    outer loop
      vertex 12 -10 23
      vertex 11.247 -8.43634 23
      vertex 12 -10 0
    endloop
  endfacet
  facet normal -0.900969 -0.433884 0
    outer loop
      vertex 12 -10 0
      vertex 11.247 -8.43634 23
      vertex 11.247 -8.43634 0
    endloop
  endfacet
  facet normal -0.900969 0.433884 0
    outer loop
      vertex 12 -10 23
      vertex 12 -10 0
      vertex 11.247 -11.5637 23
    endloop
  endfacet
  facet normal -0.900969 0.433884 0
    outer loop
      vertex 11.247 -11.5637 23
      vertex 12 -10 0
      vertex 11.247 -11.5637 0
    endloop
  endfacet
  facet normal -0.222521 0.974928 0
    outer loop
      vertex 11.247 -11.5637 23
      vertex 11.247 -11.5637 0
      vertex 9.55496 -11.9499 23
    endloop
  endfacet
  facet normal -0.222521 0.974928 0
    outer loop
      vertex 9.55496 -11.9499 23
      vertex 11.247 -11.5637 0
      vertex 9.55496 -11.9499 0
    endloop
  endfacet
  facet normal 0.62349 0.781831 -0
    outer loop
      vertex 9.55496 -11.9499 23
      vertex 9.55496 -11.9499 0
      vertex 8.19806 -10.8678 23
    endloop
  endfacet
  facet normal 0.62349 0.781831 -0
    outer loop
      vertex 8.19806 -10.8678 23
      vertex 9.55496 -11.9499 0
      vertex 8.19806 -10.8678 0
    endloop
  endfacet
  facet normal 1 0 0
    outer loop
      vertex 8.19806 10.8678 0
      vertex 8.19806 10.8678 23
      vertex 8.19806 9.13223 23
    endloop
  endfacet
  facet normal 1 0 0
    outer loop
      vertex 8.19806 9.13223 0
      vertex 8.19806 10.8678 0
      vertex 8.19806 9.13223 23
    endloop
  endfacet
  facet normal 0.62349 -0.781831 0
    outer loop
      vertex 9.55496 11.9499 0
      vertex 9.55496 11.9499 23
      vertex 8.19806 10.8678 23
    endloop
  endfacet
  facet normal 0.62349 -0.781831 0
    outer loop
      vertex 8.19806 10.8678 0
      vertex 9.55496 11.9499 0
      vertex 8.19806 10.8678 23
    endloop
  endfacet
  facet normal -0.222521 -0.974928 -0
    outer loop
      vertex 11.247 11.5637 0
      vertex 11.247 11.5637 23
      vertex 9.55496 11.9499 23
    endloop
  endfacet
  facet normal -0.222521 -0.974928 -0
    outer loop
      vertex 9.55496 11.9499 0
      vertex 11.247 11.5637 0
      vertex 9.55496 11.9499 23
    endloop
  endfacet
  facet normal -0.900969 -0.433884 0
    outer loop
      vertex 12 10 23
      vertex 11.247 11.5637 23
      vertex 12 10 0
    endloop
  endfacet
  facet normal -0.900969 -0.433884 0
    outer loop
      vertex 12 10 0
      vertex 11.247 11.5637 23
      vertex 11.247 11.5637 0
    endloop
  endfacet
  facet normal -0.900969 0.433884 0
    outer loop
      vertex 12 10 23
      vertex 12 10 0
      vertex 11.247 8.43634 23
    endloop
  endfacet
  facet normal -0.900969 0.433884 0
    outer loop
      vertex 11.247 8.43634 23
      vertex 12 10 0
      vertex 11.247 8.43634 0
    endloop
  endfacet
  facet normal -0.222521 0.974928 0
    outer loop
      vertex 11.247 8.43634 23
      vertex 11.247 8.43634 0
      vertex 9.55496 8.05014 23
    endloop
  endfacet
  facet normal -0.222521 0.974928 0
    outer loop
      vertex 9.55496 8.05014 23
      vertex 11.247 8.43634 0
      vertex 9.55496 8.05014 0
    endloop
  endfacet
  facet normal 0.62349 0.781831 -0
    outer loop
      vertex 9.55496 8.05014 23
      vertex 9.55496 8.05014 0
      vertex 8.19806 9.13223 23
    endloop
  endfacet
  facet normal 0.62349 0.781831 -0
    outer loop
      vertex 8.19806 9.13223 23
      vertex 9.55496 8.05014 0
      vertex 8.19806 9.13223 0
    endloop
  endfacet
  facet normal 0 0 1
    outer loop
      vertex -19.563 4.15823 25
      vertex -20 0 25
      vertex -19.563 -4.15823 25
    endloop
  endfacet
  facet normal 0 0 1
    outer loop
      vertex -16.1803 -11.7557 25
      vertex -19.563 4.15823 25
      vertex -18.2709 -8.13473 25
    endloop
  endfacet
  facet normal 0 0 1
    outer loop
      vertex -18.2709 -8.13473 25
      vertex -19.563 4.15823 25
      vertex -19.563 -4.15823 25
    endloop
  endfacet
  facet normal 0 0 1
    outer loop
      vertex -13.3826 -14.8629 25
      vertex -19.563 4.15823 25
      vertex -16.1803 -11.7557 25
    endloop
  endfacet
  facet normal 0 0 1
    outer loop
      vertex -10 -17.3205 25
      vertex -19.563 4.15823 25
      vertex -13.3826 -14.8629 25
    endloop
  endfacet
  facet normal -0 -0 1
    outer loop
      vertex -12.4271 -11.7634 25
      vertex -19.563 4.15823 25
      vertex -10 -17.3205 25
    endloop
  endfacet
  facet normal 0 0 1
    outer loop
      vertex -10.9271 -7.14683 25
      vertex -9.07295 -7.14683 25
      vertex -19.563 4.15823 25
    endloop
  endfacet
  facet normal -0 0 1
    outer loop
      vertex 10 -17.3205 25
      vertex -19.563 4.15823 25
      vertex 6.18034 -19.0211 25
    endloop
  endfacet
  facet normal -0 -0 1
    outer loop
      vertex 7.57295 -11.7634 25
      vertex -19.563 4.15823 25
      vertex 10 -17.3205 25
    endloop
  endfacet
  facet normal 0 0 1
    outer loop
      vertex -3.88377 0.957263 25
      vertex -2.99404 2.65249 25
      vertex -19.563 4.15823 25
    endloop
  endfacet
  facet normal 0 -0 1
    outer loop
      vertex 4 0 25
      vertex 3.54182 -1.85889 25
      vertex 19.563 -4.15823 25
    endloop
  endfacet
  facet normal 0 0 1
    outer loop
      vertex 0.482147 3.97083 25
      vertex 2.27226 3.29194 25
      vertex 19.563 4.15823 25
    endloop
  endfacet
  facet normal 0 -0 1
    outer loop
      vertex 10.9271 7.14683 25
      vertex -19.563 4.15823 25
      vertex 19.563 4.15823 25
    endloop
  endfacet
  facet normal 0 -0 1
    outer loop
      vertex 12.4271 8.23664 25
      vertex 10.9271 7.14683 25
      vertex 18.2709 8.13473 25
    endloop
  endfacet
  facet normal 0 0 1
    outer loop
      vertex -9.07295 7.14683 25
      vertex -10.9271 7.14683 25
      vertex -19.563 4.15823 25
    endloop
  endfacet
  facet normal 0 0 1
    outer loop
      vertex 12.4271 11.7634 25
      vertex 13 10 25
      vertex 16.1803 11.7557 25
    endloop
  endfacet
  facet normal -0 0 1
    outer loop
      vertex -13 10 25
      vertex -12.4271 11.7634 25
      vertex -19.563 4.15823 25
    endloop
  endfacet
  facet normal 0 0 1
    outer loop
      vertex -9.07295 12.8532 25
      vertex -7.57295 11.7634 25
      vertex 2.09057 19.8904 25
    endloop
  endfacet
  facet normal 0 0 1
    outer loop
      vertex -10.9271 12.8532 25
      vertex -9.07295 12.8532 25
      vertex -2.09057 19.8904 25
    endloop
  endfacet
  facet normal 0 -0 1
    outer loop
      vertex -10 17.3205 25
      vertex -19.563 4.15823 25
      vertex -6.18034 19.0211 25
    endloop
  endfacet
  facet normal 0 -0 1
    outer loop
      vertex -13.3826 14.8629 25
      vertex -19.563 4.15823 25
      vertex -10 17.3205 25
    endloop
  endfacet
  facet normal 0 -0 1
    outer loop
      vertex -16.1803 11.7557 25
      vertex -19.563 4.15823 25
      vertex -13.3826 14.8629 25
    endloop
  endfacet
  facet normal 0 -0 1
    outer loop
      vertex -18.2709 8.13473 25
      vertex -19.563 4.15823 25
      vertex -16.1803 11.7557 25
    endloop
  endfacet
  facet normal 0 0 1
    outer loop
      vertex -6.18034 -19.0211 25
      vertex -12.4271 -11.7634 25
      vertex -10 -17.3205 25
    endloop
  endfacet
  facet normal -0 -0 1
    outer loop
      vertex -13 -10 25
      vertex -19.563 4.15823 25
      vertex -12.4271 -11.7634 25
    endloop
  endfacet
  facet normal -0 0 1
    outer loop
      vertex -12.4271 -8.23664 25
      vertex -19.563 4.15823 25
      vertex -13 -10 25
    endloop
  endfacet
  facet normal -0 0 1
    outer loop
      vertex -12.4271 8.23664 25
      vertex -13 10 25
      vertex -19.563 4.15823 25
    endloop
  endfacet
  facet normal 0 0 1
    outer loop
      vertex -7.57295 -8.23664 25
      vertex -7 -10 25
      vertex 2.09057 -19.8904 25
    endloop
  endfacet
  facet normal 0 -0 1
    outer loop
      vertex -7 -10 25
      vertex -7.57295 -11.7634 25
      vertex 2.09057 -19.8904 25
    endloop
  endfacet
  facet normal 0 0 1
    outer loop
      vertex -7.57295 -8.23664 25
      vertex -19.563 4.15823 25
      vertex -9.07295 -7.14683 25
    endloop
  endfacet
  facet normal 0 -0 1
    outer loop
      vertex -9.07295 -12.8532 25
      vertex -10.9271 -12.8532 25
      vertex -6.18034 -19.0211 25
    endloop
  endfacet
  facet normal 0 0 1
    outer loop
      vertex 6.18034 -19.0211 25
      vertex -19.563 4.15823 25
      vertex -7.57295 -8.23664 25
    endloop
  endfacet
  facet normal 0 -0 1
    outer loop
      vertex -7.57295 -11.7634 25
      vertex -9.07295 -12.8532 25
      vertex -2.09057 -19.8904 25
    endloop
  endfacet
  facet normal 0 0 1
    outer loop
      vertex -7.57295 -8.23664 25
      vertex 2.09057 -19.8904 25
      vertex 6.18034 -19.0211 25
    endloop
  endfacet
  facet normal -0 0 1
    outer loop
      vertex 2.09057 -19.8904 25
      vertex -7.57295 -11.7634 25
      vertex -2.09057 -19.8904 25
    endloop
  endfacet
  facet normal 0 0 1
    outer loop
      vertex -2.09057 -19.8904 25
      vertex -9.07295 -12.8532 25
      vertex -6.18034 -19.0211 25
    endloop
  endfacet
  facet normal 0 0 1
    outer loop
      vertex -6.18034 -19.0211 25
      vertex -10.9271 -12.8532 25
      vertex -12.4271 -11.7634 25
    endloop
  endfacet
  facet normal 0 -0 1
    outer loop
      vertex -7.57295 8.23664 25
      vertex -9.07295 7.14683 25
      vertex 13.3826 14.8629 25
    endloop
  endfacet
  facet normal 0 -0 1
    outer loop
      vertex -7 10 25
      vertex -7.57295 8.23664 25
      vertex 10 17.3205 25
    endloop
  endfacet
  facet normal 0 0 1
    outer loop
      vertex -3.88377 -0.957263 25
      vertex -3.88377 0.957263 25
      vertex -19.563 4.15823 25
    endloop
  endfacet
  facet normal 0 0 1
    outer loop
      vertex -7.57295 11.7634 25
      vertex 10 17.3205 25
      vertex 6.18034 19.0211 25
    endloop
  endfacet
  facet normal 0 0 1
    outer loop
      vertex -7.57295 11.7634 25
      vertex -7 10 25
      vertex 10 17.3205 25
    endloop
  endfacet
  facet normal 0 -0 1
    outer loop
      vertex -6.18034 19.0211 25
      vertex -12.4271 11.7634 25
      vertex -2.09057 19.8904 25
    endloop
  endfacet
  facet normal 0 0 1
    outer loop
      vertex -6.18034 19.0211 25
      vertex -19.563 4.15823 25
      vertex -12.4271 11.7634 25
    endloop
  endfacet
  facet normal 0 0 1
    outer loop
      vertex -12.4271 11.7634 25
      vertex -10.9271 12.8532 25
      vertex -2.09057 19.8904 25
    endloop
  endfacet
  facet normal 0 -0 1
    outer loop
      vertex -2.09057 19.8904 25
      vertex -9.07295 12.8532 25
      vertex 2.09057 19.8904 25
    endloop
  endfacet
  facet normal 0 -0 1
    outer loop
      vertex 2.09057 19.8904 25
      vertex -7.57295 11.7634 25
      vertex 6.18034 19.0211 25
    endloop
  endfacet
  facet normal 0 -0 1
    outer loop
      vertex 10 17.3205 25
      vertex -7.57295 8.23664 25
      vertex 13.3826 14.8629 25
    endloop
  endfacet
  facet normal 0 0 1
    outer loop
      vertex -2.99404 -2.65249 25
      vertex -3.88377 -0.957263 25
      vertex -19.563 4.15823 25
    endloop
  endfacet
  facet normal 0 0 1
    outer loop
      vertex 7.57295 -11.7634 25
      vertex 7 -10 25
      vertex -19.563 4.15823 25
    endloop
  endfacet
  facet normal 0 0 1
    outer loop
      vertex 7.57295 -8.23664 25
      vertex -1.41842 -3.74006 25
      vertex -19.563 4.15823 25
    endloop
  endfacet
  facet normal 0 0 1
    outer loop
      vertex 2.27226 3.29194 25
      vertex 3.54182 1.85889 25
      vertex 20 0 25
    endloop
  endfacet
  facet normal 0 0 1
    outer loop
      vertex 3.54182 1.85889 25
      vertex 4 0 25
      vertex 20 0 25
    endloop
  endfacet
  facet normal -0 0 1
    outer loop
      vertex -1.41842 3.74006 25
      vertex -19.563 4.15823 25
      vertex -2.99404 2.65249 25
    endloop
  endfacet
  facet normal -0 0 1
    outer loop
      vertex 0.482147 3.97083 25
      vertex -19.563 4.15823 25
      vertex -1.41842 3.74006 25
    endloop
  endfacet
  facet normal 0 0 1
    outer loop
      vertex 2.27226 3.29194 25
      vertex 20 0 25
      vertex 19.563 4.15823 25
    endloop
  endfacet
  facet normal 0 0 1
    outer loop
      vertex 19.563 4.15823 25
      vertex -19.563 4.15823 25
      vertex 0.482147 3.97083 25
    endloop
  endfacet
  facet normal 0 -0 1
    outer loop
      vertex 3.54182 -1.85889 25
      vertex 2.27226 -3.29194 25
      vertex 18.2709 -8.13473 25
    endloop
  endfacet
  facet normal 0 0 1
    outer loop
      vertex 20 0 25
      vertex 4 0 25
      vertex 19.563 -4.15823 25
    endloop
  endfacet
  facet normal -0 0 1
    outer loop
      vertex 19.563 -4.15823 25
      vertex 3.54182 -1.85889 25
      vertex 18.2709 -8.13473 25
    endloop
  endfacet
  facet normal -0 0 1
    outer loop
      vertex 9.07295 7.14683 25
      vertex 7.57295 8.23664 25
      vertex -19.563 4.15823 25
    endloop
  endfacet
  facet normal -0 -0 1
    outer loop
      vertex -2.99404 -2.65249 25
      vertex -19.563 4.15823 25
      vertex -1.41842 -3.74006 25
    endloop
  endfacet
  facet normal 0 -0 1
    outer loop
      vertex 13 -10 25
      vertex 12.4271 -11.7634 25
      vertex 16.1803 -11.7557 25
    endloop
  endfacet
  facet normal -0 -0 1
    outer loop
      vertex 9.07295 -12.8532 25
      vertex 7.57295 -11.7634 25
      vertex 10 -17.3205 25
    endloop
  endfacet
  facet normal 0 -0 1
    outer loop
      vertex 10.9271 -12.8532 25
      vertex 9.07295 -12.8532 25
      vertex 13.3826 -14.8629 25
    endloop
  endfacet
  facet normal -0 0 1
    outer loop
      vertex 7.57295 -8.23664 25
      vertex -19.563 4.15823 25
      vertex 7 -10 25
    endloop
  endfacet
  facet normal -0 0 1
    outer loop
      vertex 10.9271 -7.14683 25
      vertex 2.27226 -3.29194 25
      vertex 9.07295 -7.14683 25
    endloop
  endfacet
  facet normal 0 0 1
    outer loop
      vertex 12.4271 -8.23664 25
      vertex 13 -10 25
      vertex 16.1803 -11.7557 25
    endloop
  endfacet
  facet normal 0 0 1
    outer loop
      vertex 18.2709 -8.13473 25
      vertex 2.27226 -3.29194 25
      vertex 10.9271 -7.14683 25
    endloop
  endfacet
  facet normal 0 0 1
    outer loop
      vertex 18.2709 -8.13473 25
      vertex 12.4271 -8.23664 25
      vertex 16.1803 -11.7557 25
    endloop
  endfacet
  facet normal 0 0 1
    outer loop
      vertex 10.9271 -7.14683 25
      vertex 12.4271 -8.23664 25
      vertex 18.2709 -8.13473 25
    endloop
  endfacet
  facet normal 0 0 1
    outer loop
      vertex 16.1803 -11.7557 25
      vertex 12.4271 -11.7634 25
      vertex 13.3826 -14.8629 25
    endloop
  endfacet
  facet normal 0 -0 1
    outer loop
      vertex 12.4271 -11.7634 25
      vertex 10.9271 -12.8532 25
      vertex 13.3826 -14.8629 25
    endloop
  endfacet
  facet normal -0 0 1
    outer loop
      vertex 13.3826 -14.8629 25
      vertex 9.07295 -12.8532 25
      vertex 10 -17.3205 25
    endloop
  endfacet
  facet normal -0 0 1
    outer loop
      vertex 7 10 25
      vertex 7.57295 11.7634 25
      vertex -9.07295 7.14683 25
    endloop
  endfacet
  facet normal 0 0 1
    outer loop
      vertex 9.07295 12.8532 25
      vertex 10.9271 12.8532 25
      vertex 13.3826 14.8629 25
    endloop
  endfacet
  facet normal 0 -0 1
    outer loop
      vertex -9.07295 7.14683 25
      vertex -19.563 4.15823 25
      vertex 7 10 25
    endloop
  endfacet
  facet normal 0 0 1
    outer loop
      vertex 9.07295 12.8532 25
      vertex -9.07295 7.14683 25
      vertex 7.57295 11.7634 25
    endloop
  endfacet
  facet normal 0 0 1
    outer loop
      vertex 13.3826 14.8629 25
      vertex -9.07295 7.14683 25
      vertex 9.07295 12.8532 25
    endloop
  endfacet
  facet normal 0 -0 1
    outer loop
      vertex 13.3826 14.8629 25
      vertex 10.9271 12.8532 25
      vertex 16.1803 11.7557 25
    endloop
  endfacet
  facet normal 0 0 1
    outer loop
      vertex 10.9271 12.8532 25
      vertex 12.4271 11.7634 25
      vertex 16.1803 11.7557 25
    endloop
  endfacet
  facet normal 0 -0 1
    outer loop
      vertex 16.1803 11.7557 25
      vertex 13 10 25
      vertex 18.2709 8.13473 25
    endloop
  endfacet
  facet normal 0 -0 1
    outer loop
      vertex 13 10 25
      vertex 12.4271 8.23664 25
      vertex 18.2709 8.13473 25
    endloop
  endfacet
  facet normal 0 -0 1
    outer loop
      vertex 18.2709 8.13473 25
      vertex 10.9271 7.14683 25
      vertex 19.563 4.15823 25
    endloop
  endfacet
  facet normal 0 -0 1
    outer loop
      vertex 9.07295 7.14683 25
      vertex -19.563 4.15823 25
      vertex 10.9271 7.14683 25
    endloop
  endfacet
  facet normal -0 0 1
    outer loop
      vertex 7.57295 8.23664 25
      vertex 7 10 25
      vertex -19.563 4.15823 25
    endloop
  endfacet
  facet normal -0 0 1
    outer loop
      vertex -10.9271 7.14683 25
      vertex -12.4271 8.23664 25
      vertex -19.563 4.15823 25
    endloop
  endfacet
  facet normal 0 0 1
    outer loop
      vertex -12.4271 -8.23664 25
      vertex -10.9271 -7.14683 25
      vertex -19.563 4.15823 25
    endloop
  endfacet
  facet normal 0 0 1
    outer loop
      vertex 7.57295 -8.23664 25
      vertex 0.482147 -3.97083 25
      vertex -1.41842 -3.74006 25
    endloop
  endfacet
  facet normal 0 0 1
    outer loop
      vertex 7.57295 -8.23664 25
      vertex 2.27226 -3.29194 25
      vertex 0.482147 -3.97083 25
    endloop
  endfacet
  facet normal 0 0 1
    outer loop
      vertex 7.57295 -8.23664 25
      vertex 9.07295 -7.14683 25
      vertex 2.27226 -3.29194 25
    endloop
  endfacet
  facet normal 0 0 1
    outer loop
      vertex -12.4271 -11.7634 23
      vertex -10.9271 -12.8532 23
      vertex -9.07295 -12.8532 23
    endloop
  endfacet
  facet normal -0 -0 1
    outer loop
      vertex -10.445 -11.9499 23
      vertex -12.4271 -11.7634 23
      vertex -9.07295 -12.8532 23
    endloop
  endfacet
  facet normal 0 -0 1
    outer loop
      vertex -8.75302 -11.5637 23
      vertex -10.445 -11.9499 23
      vertex -7.57295 -11.7634 23
    endloop
  endfacet
  facet normal 0 -0 1
    outer loop
      vertex -8 -10 23
      vertex -8.75302 -11.5637 23
      vertex -7 -10 23
    endloop
  endfacet
  facet normal 0 0 1
    outer loop
      vertex -8.75302 -8.43634 23
      vertex -8 -10 23
      vertex -7.57295 -8.23664 23
    endloop
  endfacet
  facet normal 0 0 1
    outer loop
      vertex -13 -10 23
      vertex -12.4271 -11.7634 23
      vertex -12.4271 -8.23664 23
    endloop
  endfacet
  facet normal 0 0 1
    outer loop
      vertex -12.4271 -8.23664 23
      vertex -11.8019 -9.13223 23
      vertex -10.9271 -7.14683 23
    endloop
  endfacet
  facet normal 0 -0 1
    outer loop
      vertex -12.4271 -8.23664 23
      vertex -12.4271 -11.7634 23
      vertex -11.8019 -9.13223 23
    endloop
  endfacet
  facet normal 0 0 1
    outer loop
      vertex -10.9271 -7.14683 23
      vertex -10.445 -8.05014 23
      vertex -9.07295 -7.14683 23
    endloop
  endfacet
  facet normal 0 0 1
    outer loop
      vertex -9.07295 -7.14683 23
      vertex -8.75302 -8.43634 23
      vertex -7.57295 -8.23664 23
    endloop
  endfacet
  facet normal 0 -0 1
    outer loop
      vertex -7.57295 -8.23664 23
      vertex -8 -10 23
      vertex -7 -10 23
    endloop
  endfacet
  facet normal 0 0 1
    outer loop
      vertex -7 -10 23
      vertex -8.75302 -11.5637 23
      vertex -7.57295 -11.7634 23
    endloop
  endfacet
  facet normal 0 0 1
    outer loop
      vertex -7.57295 -11.7634 23
      vertex -10.445 -11.9499 23
      vertex -9.07295 -12.8532 23
    endloop
  endfacet
  facet normal 0 0 1
    outer loop
      vertex -10.445 -8.05014 23
      vertex -8.75302 -8.43634 23
      vertex -9.07295 -7.14683 23
    endloop
  endfacet
  facet normal 0 0 1
    outer loop
      vertex -11.8019 -9.13223 23
      vertex -10.445 -8.05014 23
      vertex -10.9271 -7.14683 23
    endloop
  endfacet
  facet normal -0 0 1
    outer loop
      vertex -11.8019 -10.8678 23
      vertex -11.8019 -9.13223 23
      vertex -12.4271 -11.7634 23
    endloop
  endfacet
  facet normal 0 0 1
    outer loop
      vertex -10.445 -11.9499 23
      vertex -11.8019 -10.8678 23
      vertex -12.4271 -11.7634 23
    endloop
  endfacet
  facet normal 0 0 1
    outer loop
      vertex -12.4271 8.23664 23
      vertex -10.9271 7.14683 23
      vertex -9.07295 7.14683 23
    endloop
  endfacet
  facet normal -0 -0 1
    outer loop
      vertex -10.445 8.05014 23
      vertex -12.4271 8.23664 23
      vertex -9.07295 7.14683 23
    endloop
  endfacet
  facet normal 0 -0 1
    outer loop
      vertex -8.75302 8.43634 23
      vertex -10.445 8.05014 23
      vertex -7.57295 8.23664 23
    endloop
  endfacet
  facet normal 0 -0 1
    outer loop
      vertex -8 10 23
      vertex -8.75302 8.43634 23
      vertex -7 10 23
    endloop
  endfacet
  facet normal 0 0 1
    outer loop
      vertex -8.75302 11.5637 23
      vertex -8 10 23
      vertex -7.57295 11.7634 23
    endloop
  endfacet
  facet normal 0 0 1
    outer loop
      vertex -13 10 23
      vertex -12.4271 8.23664 23
      vertex -12.4271 11.7634 23
    endloop
  endfacet
  facet normal 0 0 1
    outer loop
      vertex -12.4271 11.7634 23
      vertex -11.8019 10.8678 23
      vertex -10.9271 12.8532 23
    endloop
  endfacet
  facet normal 0 -0 1
    outer loop
      vertex -12.4271 11.7634 23
      vertex -12.4271 8.23664 23
      vertex -11.8019 10.8678 23
    endloop
  endfacet
  facet normal 0 0 1
    outer loop
      vertex -10.9271 12.8532 23
      vertex -10.445 11.9499 23
      vertex -9.07295 12.8532 23
    endloop
  endfacet
  facet normal 0 0 1
    outer loop
      vertex -9.07295 12.8532 23
      vertex -8.75302 11.5637 23
      vertex -7.57295 11.7634 23
    endloop
  endfacet
  facet normal 0 -0 1
    outer loop
      vertex -7.57295 11.7634 23
      vertex -8 10 23
      vertex -7 10 23
    endloop
  endfacet
  facet normal 0 0 1
    outer loop
      vertex -7 10 23
      vertex -8.75302 8.43634 23
      vertex -7.57295 8.23664 23
    endloop
  endfacet
  facet normal 0 0 1
    outer loop
      vertex -7.57295 8.23664 23
      vertex -10.445 8.05014 23
      vertex -9.07295 7.14683 23
    endloop
  endfacet
  facet normal 0 0 1
    outer loop
      vertex -10.445 11.9499 23
      vertex -8.75302 11.5637 23
      vertex -9.07295 12.8532 23
    endloop
  endfacet
  facet normal 0 0 1
    outer loop
      vertex -11.8019 10.8678 23
      vertex -10.445 11.9499 23
      vertex -10.9271 12.8532 23
    endloop
  endfacet
  facet normal -0 0 1
    outer loop
      vertex -11.8019 9.13223 23
      vertex -11.8019 10.8678 23
      vertex -12.4271 8.23664 23
    endloop
  endfacet
  facet normal 0 0 1
    outer loop
      vertex -10.445 8.05014 23
      vertex -11.8019 9.13223 23
      vertex -12.4271 8.23664 23
    endloop
  endfacet
  facet normal 0 0 1
    outer loop
      vertex 7.57295 -11.7634 23
      vertex 9.07295 -12.8532 23
      vertex 10.9271 -12.8532 23
    endloop
  endfacet
  facet normal -0 -0 1
    outer loop
      vertex 9.55496 -11.9499 23
      vertex 7.57295 -11.7634 23
      vertex 10.9271 -12.8532 23
    endloop
  endfacet
  facet normal 0 -0 1
    outer loop
      vertex 11.247 -11.5637 23
      vertex 9.55496 -11.9499 23
      vertex 12.4271 -11.7634 23
    endloop
  endfacet
  facet normal 0 -0 1
    outer loop
      vertex 12 -10 23
      vertex 11.247 -11.5637 23
      vertex 13 -10 23
    endloop
  endfacet
  facet normal 0 0 1
    outer loop
      vertex 11.247 -8.43634 23
      vertex 12 -10 23
      vertex 12.4271 -8.23664 23
    endloop
  endfacet
  facet normal 0 0 1
    outer loop
      vertex 7 -10 23
      vertex 7.57295 -11.7634 23
      vertex 7.57295 -8.23664 23
    endloop
  endfacet
  facet normal 0 0 1
    outer loop
      vertex 7.57295 -8.23664 23
      vertex 8.19806 -9.13223 23
      vertex 9.07295 -7.14683 23
    endloop
  endfacet
  facet normal 0 -0 1
    outer loop
      vertex 7.57295 -8.23664 23
      vertex 7.57295 -11.7634 23
      vertex 8.19806 -9.13223 23
    endloop
  endfacet
  facet normal 0 0 1
    outer loop
      vertex 9.07295 -7.14683 23
      vertex 9.55496 -8.05014 23
      vertex 10.9271 -7.14683 23
    endloop
  endfacet
  facet normal 0 0 1
    outer loop
      vertex 10.9271 -7.14683 23
      vertex 11.247 -8.43634 23
      vertex 12.4271 -8.23664 23
    endloop
  endfacet
  facet normal 0 -0 1
    outer loop
      vertex 12.4271 -8.23664 23
      vertex 12 -10 23
      vertex 13 -10 23
    endloop
  endfacet
  facet normal 0 0 1
    outer loop
      vertex 13 -10 23
      vertex 11.247 -11.5637 23
      vertex 12.4271 -11.7634 23
    endloop
  endfacet
  facet normal 0 0 1
    outer loop
      vertex 12.4271 -11.7634 23
      vertex 9.55496 -11.9499 23
      vertex 10.9271 -12.8532 23
    endloop
  endfacet
  facet normal 0 0 1
    outer loop
      vertex 9.55496 -8.05014 23
      vertex 11.247 -8.43634 23
      vertex 10.9271 -7.14683 23
    endloop
  endfacet
  facet normal 0 0 1
    outer loop
      vertex 8.19806 -9.13223 23
      vertex 9.55496 -8.05014 23
      vertex 9.07295 -7.14683 23
    endloop
  endfacet
  facet normal -0 0 1
    outer loop
      vertex 8.19806 -10.8678 23
      vertex 8.19806 -9.13223 23
      vertex 7.57295 -11.7634 23
    endloop
  endfacet
  facet normal 0 0 1
    outer loop
      vertex 9.55496 -11.9499 23
      vertex 8.19806 -10.8678 23
      vertex 7.57295 -11.7634 23
    endloop
  endfacet
  facet normal 0 0 1
    outer loop
      vertex 7.57295 8.23664 23
      vertex 9.07295 7.14683 23
      vertex 10.9271 7.14683 23
    endloop
  endfacet
  facet normal -0 -0 1
    outer loop
      vertex 9.55496 8.05014 23
      vertex 7.57295 8.23664 23
      vertex 10.9271 7.14683 23
    endloop
  endfacet
  facet normal 0 -0 1
    outer loop
      vertex 11.247 8.43634 23
      vertex 9.55496 8.05014 23
      vertex 12.4271 8.23664 23
    endloop
  endfacet
  facet normal 0 -0 1
    outer loop
      vertex 12 10 23
      vertex 11.247 8.43634 23
      vertex 13 10 23
    endloop
  endfacet
  facet normal 0 0 1
    outer loop
      vertex 11.247 11.5637 23
      vertex 12 10 23
      vertex 12.4271 11.7634 23
    endloop
  endfacet
  facet normal 0 0 1
    outer loop
      vertex 7 10 23
      vertex 7.57295 8.23664 23
      vertex 7.57295 11.7634 23
    endloop
  endfacet
  facet normal 0 0 1
    outer loop
      vertex 7.57295 11.7634 23
      vertex 8.19806 10.8678 23
      vertex 9.07295 12.8532 23
    endloop
  endfacet
  facet normal 0 -0 1
    outer loop
      vertex 7.57295 11.7634 23
      vertex 7.57295 8.23664 23
      vertex 8.19806 10.8678 23
    endloop
  endfacet
  facet normal 0 0 1
    outer loop
      vertex 9.07295 12.8532 23
      vertex 9.55496 11.9499 23
      vertex 10.9271 12.8532 23
    endloop
  endfacet
  facet normal 0 0 1
    outer loop
      vertex 10.9271 12.8532 23
      vertex 11.247 11.5637 23
      vertex 12.4271 11.7634 23
    endloop
  endfacet
  facet normal 0 -0 1
    outer loop
      vertex 12.4271 11.7634 23
      vertex 12 10 23
      vertex 13 10 23
    endloop
  endfacet
  facet normal 0 0 1
    outer loop
      vertex 13 10 23
      vertex 11.247 8.43634 23
      vertex 12.4271 8.23664 23
    endloop
  endfacet
  facet normal 0 0 1
    outer loop
      vertex 12.4271 8.23664 23
      vertex 9.55496 8.05014 23
      vertex 10.9271 7.14683 23
    endloop
  endfacet
  facet normal 0 0 1
    outer loop
      vertex 9.55496 11.9499 23
      vertex 11.247 11.5637 23
      vertex 10.9271 12.8532 23
    endloop
  endfacet
  facet normal 0 0 1
    outer loop
      vertex 8.19806 10.8678 23
      vertex 9.55496 11.9499 23
      vertex 9.07295 12.8532 23
    endloop
  endfacet
  facet normal -0 0 1
    outer loop
      vertex 8.19806 9.13223 23
      vertex 8.19806 10.8678 23
      vertex 7.57295 8.23664 23
    endloop
  endfacet
  facet normal 0 0 1
    outer loop
      vertex 9.55496 8.05014 23
      vertex 8.19806 9.13223 23
      vertex 7.57295 8.23664 23
    endloop
  endfacet
  facet normal 0.587785 0.809017 -0
    outer loop
      vertex -10.9271 -12.8532 25
      vertex -10.9271 -12.8532 23
      vertex -12.4271 -11.7634 25
    endloop
  endfacet
  facet normal 0.587785 0.809017 -0
    outer loop
      vertex -12.4271 -11.7634 25
      vertex -10.9271 -12.8532 23
      vertex -12.4271 -11.7634 23
    endloop
  endfacet
  facet normal 0.951057 0.309017 0
    outer loop
      vertex -13 -10 25
      vertex -12.4271 -11.7634 25
      vertex -12.4271 -11.7634 23
    endloop
  endfacet
  facet normal 0.951057 0.309017 0
    outer loop
      vertex -13 -10 23
      vertex -13 -10 25
      vertex -12.4271 -11.7634 23
    endloop
  endfacet
  facet normal 0 1 0
    outer loop
      vertex -9.07295 -12.8532 25
      vertex -9.07295 -12.8532 23
      vertex -10.9271 -12.8532 25
    endloop
  endfacet
  facet normal 0 1 -0
    outer loop
      vertex -10.9271 -12.8532 25
      vertex -9.07295 -12.8532 23
      vertex -10.9271 -12.8532 23
    endloop
  endfacet
  facet normal -0.587785 0.809017 0
    outer loop
      vertex -7.57295 -11.7634 25
      vertex -7.57295 -11.7634 23
      vertex -9.07295 -12.8532 25
    endloop
  endfacet
  facet normal -0.587785 0.809017 0
    outer loop
      vertex -9.07295 -12.8532 25
      vertex -7.57295 -11.7634 23
      vertex -9.07295 -12.8532 23
    endloop
  endfacet
  facet normal -0.951057 0.309017 0
    outer loop
      vertex -7 -10 25
      vertex -7 -10 23
      vertex -7.57295 -11.7634 25
    endloop
  endfacet
  facet normal -0.951057 0.309017 0
    outer loop
      vertex -7.57295 -11.7634 25
      vertex -7 -10 23
      vertex -7.57295 -11.7634 23
    endloop
  endfacet
  facet normal -0.951057 -0.309017 0
    outer loop
      vertex -7 -10 25
      vertex -7.57295 -8.23664 25
      vertex -7 -10 23
    endloop
  endfacet
  facet normal -0.951057 -0.309017 0
    outer loop
      vertex -7 -10 23
      vertex -7.57295 -8.23664 25
      vertex -7.57295 -8.23664 23
    endloop
  endfacet
  facet normal -0.587785 -0.809017 -0
    outer loop
      vertex -7.57295 -8.23664 23
      vertex -7.57295 -8.23664 25
      vertex -9.07295 -7.14683 25
    endloop
  endfacet
  facet normal -0.587785 -0.809017 -0
    outer loop
      vertex -9.07295 -7.14683 23
      vertex -7.57295 -8.23664 23
      vertex -9.07295 -7.14683 25
    endloop
  endfacet
  facet normal 0 -1 0
    outer loop
      vertex -9.07295 -7.14683 23
      vertex -9.07295 -7.14683 25
      vertex -10.9271 -7.14683 25
    endloop
  endfacet
  facet normal -0 -1 -0
    outer loop
      vertex -10.9271 -7.14683 23
      vertex -9.07295 -7.14683 23
      vertex -10.9271 -7.14683 25
    endloop
  endfacet
  facet normal 0.587785 -0.809017 0
    outer loop
      vertex -10.9271 -7.14683 23
      vertex -10.9271 -7.14683 25
      vertex -12.4271 -8.23664 25
    endloop
  endfacet
  facet normal 0.587785 -0.809017 0
    outer loop
      vertex -12.4271 -8.23664 23
      vertex -10.9271 -7.14683 23
      vertex -12.4271 -8.23664 25
    endloop
  endfacet
  facet normal 0.951057 -0.309017 0
    outer loop
      vertex -12.4271 -8.23664 23
      vertex -12.4271 -8.23664 25
      vertex -13 -10 25
    endloop
  endfacet
  facet normal 0.951057 -0.309017 0
    outer loop
      vertex -13 -10 23
      vertex -12.4271 -8.23664 23
      vertex -13 -10 25
    endloop
  endfacet
  facet normal 0.951057 0.309017 0
    outer loop
      vertex -13 10 25
      vertex -12.4271 8.23664 25
      vertex -12.4271 8.23664 23
    endloop
  endfacet
  facet normal 0.951057 0.309017 0
    outer loop
      vertex -13 10 23
      vertex -13 10 25
      vertex -12.4271 8.23664 23
    endloop
  endfacet
  facet normal 0.587785 0.809017 -0
    outer loop
      vertex -10.9271 7.14683 25
      vertex -10.9271 7.14683 23
      vertex -12.4271 8.23664 25
    endloop
  endfacet
  facet normal 0.587785 0.809017 -0
    outer loop
      vertex -12.4271 8.23664 25
      vertex -10.9271 7.14683 23
      vertex -12.4271 8.23664 23
    endloop
  endfacet
  facet normal 0 1 0
    outer loop
      vertex -9.07295 7.14683 25
      vertex -9.07295 7.14683 23
      vertex -10.9271 7.14683 25
    endloop
  endfacet
  facet normal 0 1 -0
    outer loop
      vertex -10.9271 7.14683 25
      vertex -9.07295 7.14683 23
      vertex -10.9271 7.14683 23
    endloop
  endfacet
  facet normal -0.587785 0.809017 0
    outer loop
      vertex -7.57295 8.23664 25
      vertex -7.57295 8.23664 23
      vertex -9.07295 7.14683 25
    endloop
  endfacet
  facet normal -0.587785 0.809017 0
    outer loop
      vertex -9.07295 7.14683 25
      vertex -7.57295 8.23664 23
      vertex -9.07295 7.14683 23
    endloop
  endfacet
  facet normal -0.951057 0.309017 0
    outer loop
      vertex -7 10 25
      vertex -7 10 23
      vertex -7.57295 8.23664 25
    endloop
  endfacet
  facet normal -0.951057 0.309017 0
    outer loop
      vertex -7.57295 8.23664 25
      vertex -7 10 23
      vertex -7.57295 8.23664 23
    endloop
  endfacet
  facet normal -0.951057 -0.309017 0
    outer loop
      vertex -7 10 25
      vertex -7.57295 11.7634 25
      vertex -7 10 23
    endloop
  endfacet
  facet normal -0.951057 -0.309017 0
    outer loop
      vertex -7 10 23
      vertex -7.57295 11.7634 25
      vertex -7.57295 11.7634 23
    endloop
  endfacet
  facet normal -0.587785 -0.809017 -0
    outer loop
      vertex -7.57295 11.7634 23
      vertex -7.57295 11.7634 25
      vertex -9.07295 12.8532 25
    endloop
  endfacet
  facet normal -0.587785 -0.809017 -0
    outer loop
      vertex -9.07295 12.8532 23
      vertex -7.57295 11.7634 23
      vertex -9.07295 12.8532 25
    endloop
  endfacet
  facet normal 0 -1 0
    outer loop
      vertex -9.07295 12.8532 23
      vertex -9.07295 12.8532 25
      vertex -10.9271 12.8532 25
    endloop
  endfacet
  facet normal -0 -1 -0
    outer loop
      vertex -10.9271 12.8532 23
      vertex -9.07295 12.8532 23
      vertex -10.9271 12.8532 25
    endloop
  endfacet
  facet normal 0.587785 -0.809017 0
    outer loop
      vertex -10.9271 12.8532 23
      vertex -10.9271 12.8532 25
      vertex -12.4271 11.7634 25
    endloop
  endfacet
  facet normal 0.587785 -0.809017 0
    outer loop
      vertex -12.4271 11.7634 23
      vertex -10.9271 12.8532 23
      vertex -12.4271 11.7634 25
    endloop
  endfacet
  facet normal 0.951057 -0.309017 0
    outer loop
      vertex -12.4271 11.7634 23
      vertex -12.4271 11.7634 25
      vertex -13 10 25
    endloop
  endfacet
  facet normal 0.951057 -0.309017 0
    outer loop
      vertex -13 10 23
      vertex -12.4271 11.7634 23
      vertex -13 10 25
    endloop
  endfacet
  facet normal 0.885456 0.464723 0
    outer loop
      vertex -3.88377 -0.957263 25
      vertex -2.99404 -2.65249 25
      vertex -2.99404 -2.65249 16
    endloop
  endfacet
  facet normal 0.885456 0.464723 0
    outer loop
      vertex -3.88377 -0.957263 16
      vertex -3.88377 -0.957263 25
      vertex -2.99404 -2.65249 16
    endloop
  endfacet
  facet normal 1 0 0
    outer loop
      vertex -3.88377 0.957263 16
      vertex -3.88377 0.957263 25
      vertex -3.88377 -0.957263 25
    endloop
  endfacet
  facet normal 1 0 0
    outer loop
      vertex -3.88377 -0.957263 16
      vertex -3.88377 0.957263 16
      vertex -3.88377 -0.957263 25
    endloop
  endfacet
  facet normal 0.568065 0.822984 -0
    outer loop
      vertex -1.41842 -3.74006 25
      vertex -1.41842 -3.74006 16
      vertex -2.99404 -2.65249 25
    endloop
  endfacet
  facet normal 0.568065 0.822984 -0
    outer loop
      vertex -2.99404 -2.65249 25
      vertex -1.41842 -3.74006 16
      vertex -2.99404 -2.65249 16
    endloop
  endfacet
  facet normal 0.120536 0.992709 -0
    outer loop
      vertex 0.482147 -3.97083 25
      vertex 0.482147 -3.97083 16
      vertex -1.41842 -3.74006 25
    endloop
  endfacet
  facet normal 0.120536 0.992709 -0
    outer loop
      vertex -1.41842 -3.74006 25
      vertex 0.482147 -3.97083 16
      vertex -1.41842 -3.74006 16
    endloop
  endfacet
  facet normal -0.354605 0.935016 0
    outer loop
      vertex 2.27226 -3.29194 25
      vertex 2.27226 -3.29194 16
      vertex 0.482147 -3.97083 25
    endloop
  endfacet
  facet normal -0.354605 0.935016 0
    outer loop
      vertex 0.482147 -3.97083 25
      vertex 2.27226 -3.29194 16
      vertex 0.482147 -3.97083 16
    endloop
  endfacet
  facet normal -0.748511 0.663123 0
    outer loop
      vertex 3.54182 -1.85889 25
      vertex 3.54182 -1.85889 16
      vertex 2.27226 -3.29194 25
    endloop
  endfacet
  facet normal -0.748511 0.663123 0
    outer loop
      vertex 2.27226 -3.29194 25
      vertex 3.54182 -1.85889 16
      vertex 2.27226 -3.29194 16
    endloop
  endfacet
  facet normal -0.970942 0.239316 0
    outer loop
      vertex 4 0 25
      vertex 4 0 16
      vertex 3.54182 -1.85889 25
    endloop
  endfacet
  facet normal -0.970942 0.239316 0
    outer loop
      vertex 3.54182 -1.85889 25
      vertex 4 0 16
      vertex 3.54182 -1.85889 16
    endloop
  endfacet
  facet normal -0.970942 -0.239316 0
    outer loop
      vertex 4 0 25
      vertex 3.54182 1.85889 25
      vertex 4 0 16
    endloop
  endfacet
  facet normal -0.970942 -0.239316 0
    outer loop
      vertex 4 0 16
      vertex 3.54182 1.85889 25
      vertex 3.54182 1.85889 16
    endloop
  endfacet
  facet normal -0.748511 -0.663123 0
    outer loop
      vertex 3.54182 1.85889 25
      vertex 2.27226 3.29194 25
      vertex 3.54182 1.85889 16
    endloop
  endfacet
  facet normal -0.748511 -0.663123 0
    outer loop
      vertex 3.54182 1.85889 16
      vertex 2.27226 3.29194 25
      vertex 2.27226 3.29194 16
    endloop
  endfacet
  facet normal -0.354605 -0.935016 -0
    outer loop
      vertex 2.27226 3.29194 16
      vertex 2.27226 3.29194 25
      vertex 0.482147 3.97083 25
    endloop
  endfacet
  facet normal -0.354605 -0.935016 -0
    outer loop
      vertex 0.482147 3.97083 16
      vertex 2.27226 3.29194 16
      vertex 0.482147 3.97083 25
    endloop
  endfacet
  facet normal 0.120536 -0.992709 0
    outer loop
      vertex 0.482147 3.97083 16
      vertex 0.482147 3.97083 25
      vertex -1.41842 3.74006 25
    endloop
  endfacet
  facet normal 0.120536 -0.992709 0
    outer loop
      vertex -1.41842 3.74006 16
      vertex 0.482147 3.97083 16
      vertex -1.41842 3.74006 25
    endloop
  endfacet
  facet normal 0.568065 -0.822984 0
    outer loop
      vertex -1.41842 3.74006 16
      vertex -1.41842 3.74006 25
      vertex -2.99404 2.65249 25
    endloop
  endfacet
  facet normal 0.568065 -0.822984 0
    outer loop
      vertex -2.99404 2.65249 16
      vertex -1.41842 3.74006 16
      vertex -2.99404 2.65249 25
    endloop
  endfacet
  facet normal 0.885456 -0.464723 0
    outer loop
      vertex -2.99404 2.65249 16
      vertex -2.99404 2.65249 25
      vertex -3.88377 0.957263 25
    endloop
  endfacet
  facet normal 0.885456 -0.464723 0
    outer loop
      vertex -3.88377 0.957263 16
      vertex -2.99404 2.65249 16
      vertex -3.88377 0.957263 25
    endloop
  endfacet
  facet normal 0.587785 0.809017 -0
    outer loop
      vertex 9.07295 -12.8532 25
      vertex 9.07295 -12.8532 23
      vertex 7.57295 -11.7634 25
    endloop
  endfacet
  facet normal 0.587785 0.809017 -0
    outer loop
      vertex 7.57295 -11.7634 25
      vertex 9.07295 -12.8532 23
      vertex 7.57295 -11.7634 23
    endloop
  endfacet
  facet normal 0.951057 0.309017 0
    outer loop
      vertex 7 -10 25
      vertex 7.57295 -11.7634 25
      vertex 7.57295 -11.7634 23
    endloop
  endfacet
  facet normal 0.951057 0.309017 0
    outer loop
      vertex 7 -10 23
      vertex 7 -10 25
      vertex 7.57295 -11.7634 23
    endloop
  endfacet
  facet normal 0 1 0
    outer loop
      vertex 10.9271 -12.8532 25
      vertex 10.9271 -12.8532 23
      vertex 9.07295 -12.8532 25
    endloop
  endfacet
  facet normal 0 1 -0
    outer loop
      vertex 9.07295 -12.8532 25
      vertex 10.9271 -12.8532 23
      vertex 9.07295 -12.8532 23
    endloop
  endfacet
  facet normal -0.587785 0.809017 0
    outer loop
      vertex 12.4271 -11.7634 25
      vertex 12.4271 -11.7634 23
      vertex 10.9271 -12.8532 25
    endloop
  endfacet
  facet normal -0.587785 0.809017 0
    outer loop
      vertex 10.9271 -12.8532 25
      vertex 12.4271 -11.7634 23
      vertex 10.9271 -12.8532 23
    endloop
  endfacet
  facet normal -0.951057 0.309017 0
    outer loop
      vertex 13 -10 25
      vertex 13 -10 23
      vertex 12.4271 -11.7634 25
    endloop
  endfacet
  facet normal -0.951057 0.309017 0
    outer loop
      vertex 12.4271 -11.7634 25
      vertex 13 -10 23
      vertex 12.4271 -11.7634 23
    endloop
  endfacet
  facet normal -0.951057 -0.309017 0
    outer loop
      vertex 13 -10 25
      vertex 12.4271 -8.23664 25
      vertex 13 -10 23
    endloop
  endfacet
  facet normal -0.951057 -0.309017 0
    outer loop
      vertex 13 -10 23
      vertex 12.4271 -8.23664 25
      vertex 12.4271 -8.23664 23
    endloop
  endfacet
  facet normal -0.587785 -0.809017 -0
    outer loop
      vertex 12.4271 -8.23664 23
      vertex 12.4271 -8.23664 25
      vertex 10.9271 -7.14683 25
    endloop
  endfacet
  facet normal -0.587785 -0.809017 -0
    outer loop
      vertex 10.9271 -7.14683 23
      vertex 12.4271 -8.23664 23
      vertex 10.9271 -7.14683 25
    endloop
  endfacet
  facet normal 0 -1 0
    outer loop
      vertex 10.9271 -7.14683 23
      vertex 10.9271 -7.14683 25
      vertex 9.07295 -7.14683 25
    endloop
  endfacet
  facet normal -0 -1 -0
    outer loop
      vertex 9.07295 -7.14683 23
      vertex 10.9271 -7.14683 23
      vertex 9.07295 -7.14683 25
    endloop
  endfacet
  facet normal 0.587785 -0.809017 0
    outer loop
      vertex 9.07295 -7.14683 23
      vertex 9.07295 -7.14683 25
      vertex 7.57295 -8.23664 25
    endloop
  endfacet
  facet normal 0.587785 -0.809017 0
    outer loop
      vertex 7.57295 -8.23664 23
      vertex 9.07295 -7.14683 23
      vertex 7.57295 -8.23664 25
    endloop
  endfacet
  facet normal 0.951057 -0.309017 0
    outer loop
      vertex 7.57295 -8.23664 23
      vertex 7.57295 -8.23664 25
      vertex 7 -10 25
    endloop
  endfacet
  facet normal 0.951057 -0.309017 0
    outer loop
      vertex 7 -10 23
      vertex 7.57295 -8.23664 23
      vertex 7 -10 25
    endloop
  endfacet
  facet normal 0.587785 0.809017 -0
    outer loop
      vertex 9.07295 7.14683 25
      vertex 9.07295 7.14683 23
      vertex 7.57295 8.23664 25
    endloop
  endfacet
  facet normal 0.587785 0.809017 -0
    outer loop
      vertex 7.57295 8.23664 25
      vertex 9.07295 7.14683 23
      vertex 7.57295 8.23664 23
    endloop
  endfacet
  facet normal 0.951057 0.309017 0
    outer loop
      vertex 7 10 25
      vertex 7.57295 8.23664 25
      vertex 7.57295 8.23664 23
    endloop
  endfacet
  facet normal 0.951057 0.309017 0
    outer loop
      vertex 7 10 23
      vertex 7 10 25
      vertex 7.57295 8.23664 23
    endloop
  endfacet
  facet normal 0 1 0
    outer loop
      vertex 10.9271 7.14683 25
      vertex 10.9271 7.14683 23
      vertex 9.07295 7.14683 25
    endloop
  endfacet
  facet normal 0 1 -0
    outer loop
      vertex 9.07295 7.14683 25
      vertex 10.9271 7.14683 23
      vertex 9.07295 7.14683 23
    endloop
  endfacet
  facet normal -0.587785 0.809017 0
    outer loop
      vertex 12.4271 8.23664 25
      vertex 12.4271 8.23664 23
      vertex 10.9271 7.14683 25
    endloop
  endfacet
  facet normal -0.587785 0.809017 0
    outer loop
      vertex 10.9271 7.14683 25
      vertex 12.4271 8.23664 23
      vertex 10.9271 7.14683 23
    endloop
  endfacet
  facet normal -0.951057 0.309017 0
    outer loop
      vertex 13 10 25
      vertex 13 10 23
      vertex 12.4271 8.23664 25
    endloop
  endfacet
  facet normal -0.951057 0.309017 0
    outer loop
      vertex 12.4271 8.23664 25
      vertex 13 10 23
      vertex 12.4271 8.23664 23
    endloop
  endfacet
  facet normal -0.951057 -0.309017 0
    outer loop
      vertex 13 10 25
      vertex 12.4271 11.7634 25
      vertex 13 10 23
    endloop
  endfacet
  facet normal -0.951057 -0.309017 0
    outer loop
      vertex 13 10 23
      vertex 12.4271 11.7634 25
      vertex 12.4271 11.7634 23
    endloop
  endfacet
  facet normal -0.587785 -0.809017 -0
    outer loop
      vertex 12.4271 11.7634 23
      vertex 12.4271 11.7634 25
      vertex 10.9271 12.8532 25
    endloop
  endfacet
  facet normal -0.587785 -0.809017 -0
    outer loop
      vertex 10.9271 12.8532 23
      vertex 12.4271 11.7634 23
      vertex 10.9271 12.8532 25
    endloop
  endfacet
  facet normal 0 -1 0
    outer loop
      vertex 10.9271 12.8532 23
      vertex 10.9271 12.8532 25
      vertex 9.07295 12.8532 25
    endloop
  endfacet
  facet normal -0 -1 -0
    outer loop
      vertex 9.07295 12.8532 23
      vertex 10.9271 12.8532 23
      vertex 9.07295 12.8532 25
    endloop
  endfacet
  facet normal 0.587785 -0.809017 0
    outer loop
      vertex 9.07295 12.8532 23
      vertex 9.07295 12.8532 25
      vertex 7.57295 11.7634 25
    endloop
  endfacet
  facet normal 0.587785 -0.809017 0
    outer loop
      vertex 7.57295 11.7634 23
      vertex 9.07295 12.8532 23
      vertex 7.57295 11.7634 25
    endloop
  endfacet
  facet normal 0.951057 -0.309017 0
    outer loop
      vertex 7.57295 11.7634 23
      vertex 7.57295 11.7634 25
      vertex 7 10 25
    endloop
  endfacet
  facet normal 0.951057 -0.309017 0
    outer loop
      vertex 7 10 23
      vertex 7.57295 11.7634 23
      vertex 7 10 25
    endloop
  endfacet
  facet normal 0 0 1
    outer loop
      vertex -2.99404 -2.65249 16
      vertex -1.41842 -3.74006 16
      vertex 0.482147 -3.97083 16
    endloop
  endfacet
  facet normal 0 0 1
    outer loop
      vertex 3.54182 -1.85889 16
      vertex -2.99404 -2.65249 16
      vertex 2.27226 -3.29194 16
    endloop
  endfacet
  facet normal -0 0 1
    outer loop
      vertex 2.27226 -3.29194 16
      vertex -2.99404 -2.65249 16
      vertex 0.482147 -3.97083 16
    endloop
  endfacet
  facet normal 0 0 1
    outer loop
      vertex 4 0 16
      vertex -2.99404 -2.65249 16
      vertex 3.54182 -1.85889 16
    endloop
  endfacet
  facet normal 0 -0 1
    outer loop
      vertex 3.54182 1.85889 16
      vertex -2.99404 -2.65249 16
      vertex 4 0 16
    endloop
  endfacet
  facet normal 0 -0 1
    outer loop
      vertex 2.27226 3.29194 16
      vertex -2.99404 -2.65249 16
      vertex 3.54182 1.85889 16
    endloop
  endfacet
  facet normal 0 -0 1
    outer loop
      vertex 0.482147 3.97083 16
      vertex -2.99404 -2.65249 16
      vertex 2.27226 3.29194 16
    endloop
  endfacet
  facet normal 0 -0 1
    outer loop
      vertex -1.41842 3.74006 16
      vertex -2.99404 -2.65249 16
      vertex 0.482147 3.97083 16
    endloop
  endfacet
  facet normal 0 -0 1
    outer loop
      vertex -2.99404 2.65249 16
      vertex -2.99404 -2.65249 16
      vertex -1.41842 3.74006 16
    endloop
  endfacet
  facet normal 0 0 1
    outer loop
      vertex -3.88377 0.957263 16
      vertex -2.99404 -2.65249 16
      vertex -2.99404 2.65249 16
    endloop
  endfacet
  facet normal 0 0 1
    outer loop
      vertex -3.88377 -0.957263 16
      vertex -2.99404 -2.65249 16
      vertex -3.88377 0.957263 16
    endloop
  endfacet
endsolid OpenSCAD_Model
